{
.appVersion = "3102";
.formatVersion = 3;
DisplayStrings = (
borneo,
"",
"ᨛ",
"ᨏ",
"᨟",
"ᨀᨁᨂᨃᨄᨅᨆᨇᨈᨉᨊᨋᨌᨍᨎᨏᨐᨑᨒᨓᨔᨕᨖ/iya-bugi ꧏ᨞᨟ᨄᨗᨛᨘᨙᨚᨛ◌"
);
axes = (
{
name = "Optical size";
tag = opsz;
}
);
classes = (
{
code = "aPas-java aiPas-java ePas-java iKawiPas-java iPas-java iiPas-java kaPas-java kaPas-java.base kaSasakPas-java kaSasakPas-java.base kaMurdaPas-java gaPas-java gaMurdaPas-java ngaPas-java caPas-java caPas_pengkal-java caPas_suku-java caMurdaPas-java jaPas-java jaPas_suku-java nyaMurdaPas-java ttaPas-java ttaPas_pengkal-java ttaPas_suku-java ttaMahapranaPas-java ttaMahapranaPas_suku-java ddaPas-java ddaPas_suku-java ddaMahapranaPas-java naMurdaPas-java taPas-java taMurdaPas-java taPas-java.base daPas-java daMahapranaPas-java naPas-java naPas_suku-java baPas-java baMurdaPas-java maPas-java maPas_suku-java yaPas-java raPas-java raAgungPas-java laPas-java laPas-java.base waPas-java waPas_suku-java saMurdaPas-java ngaLeletPas-java ngaLeletRaswadiPas-java oPas-java uPas-java nyaMurdaPas-java.alt baPas-java.alt pengkal-java.below";
name = belowForm;
},
{
code = "$[script like \"javanese\"]
";
name = AllJavanese;
},
{
code = "$[name like \"*pengkal*\"]
";
name = PengkalSpacing;
},
{
code = "jaMahaprana_keret-java jaMahaprana_suku-java jaMahaprana_sukuMendut-java ngaLelet-java ngaLeletRaswadi-java o-java taling-java dirgaMure-java wignyan-java jaMahapranaPas_keret-java jaMahapranaPas_suku-java jaMahapranaPas_sukuMendut-java two-java three-java padaAndap-java padaMadya-java padaLuhur-java cakra-java pengkal-java pengkal_keret-java pengkal_suku-java pengkal_sukuMendut-java pengkal-java.below pengkal_keret-java.below pengkal_suku-java.below pengkal_sukuMendut-java.below cakra-java.001 cakra-java.002 suku-java
";
name = Descenders;
}
);
date = "2011-09-18 19:23:17 +0000";
familyName = "Tuladha javanese";
featurePrefixes = (
{
automatic = 1;
code = "languagesystem DFLT dflt;

languagesystem java dflt;
languagesystem java KAW;

languagesystem bali dflt;
";

glyphs = (
{
glyphname = A;
lastChange = "2021-11-22 08:04:04 +0000";
layers = (
{
layerId = m01;
shapes = (
{
closed = 1;
nodes = (
(1261,0,l),
(1261,46,l),
(1167,56,l),
(1152,68,l),
(682,1283,l),
(638,1274,l),
(578,1131,l),
(972,68,l),
(957,56,l),
(863,46,l),
(863,0,l)
);
},
{
closed = 1;
nodes = (
(333,46,l),
(239,56,l),
(224,68,l),
(682,1283,l),
(628,1283,l),
(154,68,l),
(139,56,l),
(45,46,l),
(45,0,l),
(333,0,l)
);
},
{
closed = 1;
nodes = (
(337,409,l),
(401,429,l),
(841,429,l),
(841,509,l),
(780,489,l),
(337,489,l)
);
}
);
width = 1306;
}
);
metricRight = "=|";
unicode = 65;
},
{
glyphname = H;
lastChange = "2021-11-22 07:20:21 +0000";
layers = (
{
layerId = m01;
shapes = (
{
closed = 1;
nodes = (
(503,0,l),
(503,46,l),
(409,56,l),
(394,68,l),
(387,109,o),
(384,165,o),
(384,204,cs),
(384,1079,ls),
(384,1118,o),
(387,1174,o),
(394,1215,c),
(409,1227,l),
(503,1237,l),
(503,1283,l),
(110,1283,l),
(110,1237,l),
(204,1227,l),
(219,1215,l),
(226,1174,o),
(229,1118,o),
(229,1079,cs),
(229,204,ls),
(229,165,o),
(226,109,o),
(219,68,c),
(204,56,l),
(110,46,l),
(110,0,l)
);
},
{
closed = 1;
nodes = (
(1288,0,l),
(1288,46,l),
(1194,56,l),
(1179,68,l),
(1172,109,o),
(1169,165,o),
(1169,204,cs),
(1169,1079,ls),
(1169,1118,o),
(1172,1174,o),
(1179,1215,c),
(1194,1227,l),
(1288,1237,l),
(1288,1283,l),
(895,1283,l),
(895,1237,l),
(989,1227,l),
(1004,1215,l),
(1011,1174,o),
(1014,1118,o),
(1014,1079,cs),
(1014,204,ls),
(1014,165,o),
(1011,109,o),
(1004,68,c),
(989,56,l),
(895,46,l),
(895,0,l)
);
},
{
closed = 1;
nodes = (
(349,599,l),
(423,619,l),
(1053,619,l),
(1053,704,l),
(982,684,l),
(349,684,l)
);
}
);
width = 1398;
}
);
metricRight = "=|";
unicode = 72;
},
{
glyphname = I;
lastChange = "2021-11-22 07:20:56 +0000";
layers = (
{
layerId = m01;
shapes = (
{
closed = 1;
nodes = (
(503,0,l),
(503,46,l),
(409,56,l),
(394,68,l),
(387,109,o),
(384,165,o),
(384,204,cs),
(384,1079,ls),
(384,1118,o),
(387,1174,o),
(394,1215,c),
(409,1227,l),
(503,1237,l),
(503,1283,l),
(110,1283,l),
(110,1237,l),
(204,1227,l),
(219,1215,l),
(226,1174,o),
(229,1118,o),
(229,1079,cs),
(229,204,ls),
(229,165,o),
(226,109,o),
(219,68,c),
(204,56,l),
(110,46,l),
(110,0,l)
);
}
);
width = 613;
}
);
metricLeft = H;
metricRight = "=|";
unicode = 73;
},
{
glyphname = T;
lastChange = "2021-11-22 07:24:56 +0000";
layers = (
{
layerId = m01;
shapes = (
{
closed = 1;
nodes = (
(851,0,l),
(851,46,l),
(717,56,l),
(702,68,l),
(695,109,o),
(692,165,o),
(692,204,cs),
(692,1283,l),
(537,1283,l),
(537,204,ls),
(537,165,o),
(534,109,o),
(527,68,c),
(512,56,l),
(378,46,l),
(378,0,l)
);
},
{
closed = 1;
nodes = (
(1124,1283,l),
(621,1283,l),
(621,1218,l),
(880,1218,ls),
(917,1218,o),
(969,1214,o),
(1008,1200,c),
(1020,1185,l),
(1118,869,l),
(1164,879,l)
);
},
{
closed = 1;
nodes = (
(111,869,l),
(209,1185,l),
(221,1200,l),
(260,1214,o),
(312,1218,o),
(349,1218,cs),
(608,1218,l),
(608,1283,l),
(105,1283,l),
(65,879,l)
);
}
);
width = 1229;
}
);
metricRight = "=|";
unicode = 84;
},
{
glyphname = a;
lastChange = "2021-11-22 07:53:47 +0000";
layers = (
{
layerId = m01;
shapes = (
{
closed = 1;
nodes = (
(589,0,l),
(808,30,l),
(808,76,l),
(714,86,l),
(699,98,l),
(692,139,o),
(689,195,o),
(689,234,cs),
(689,570,ls),
(689,735,o),
(634,880,o),
(427,880,cs),
(234,880,o),
(119,750,o),
(64,668,c),
(99,639,l),
(171,731,o),
(249,775,o),
(357,775,cs),
(512,775,o),
(539,689,o),
(539,560,cs),
(539,0,l)
);
},
{
closed = 1;
nodes = (
(249,437,o),
(85,339,o),
(85,167,cs),
(85,57,o),
(152,-28,o),
(287,-28,cs),
(376,-28,o),
(467,9,o),
(520,112,c),
(544,112,l),
(563,211,l),
(539,211,l),
(501,123,o),
(430,82,o),
(355,82,cs),
(284,82,o),
(231,119,o),
(231,205,cs),
(231,304,o),
(301,389,o),
(556,409,c),
(556,463,l)
);
}
);
width = 878;
}
);
metricRight = n;
unicode = 97;
},
{
glyphname = b;
lastChange = "2021-11-22 07:26:52 +0000";
layers = (
{
layerId = m01;
shapes = (
{
closed = 1;
nodes = (
(250,0,l),
(329,204,l),
(329,1420,l),
(279,1420,l),
(60,1390,l),
(60,1344,l),
(154,1334,l),
(169,1322,l),
(176,1281,o),
(179,1225,o),
(179,1186,cs),
(179,204,ls),
(179,165,o),
(176,110,o),
(169,0,c)
);
},
{
closed = 1;
nodes = (
(321,627,l),
(369,720,o),
(448,763,o),
(546,763,cs),
(700,763,o),
(783,658,o),
(783,467,cs),
(783,427,ls),
(783,196,o),
(704,67,o),
(548,67,cs),
(414,67,o),
(337,164,o),
(329,319,c),
(272,319,l),
(286,93,o),
(401,-20,o),
(578,-20,cs),
(786,-20,o),
(943,137,o),
(943,452,cs),
(943,748,o),
(805,880,o),
(605,880,cs),
(438,880,o),
(338,788,o),
(294,652,c)
);
}
);
width = 1028;
}
);
metricRight = o;
unicode = 98;
},
{
glyphname = c;
lastChange = "2021-11-22 07:58:54 +0000";
layers = (
{
layerId = m01;
shapes = (
{
closed = 1;
nodes = (
(239,880,o),
(85,696,o),
(85,411,cs),
(85,121,o),
(244,-20,o),
(454,-20,cs),
(616,-20,o),
(726,64,o),
(799,238,c),
(757,261,l),
(700,154,o),
(612,113,o),
(504,113,cs),
(328,113,o),
(230,219,o),
(230,433,cs),
(230,473,ls),
(230,686,o),
(330,813,o),
(492,813,cs),
(610,813,o),
(685,745,o),
(721,639,c),
(762,639,l),
(756,811,l),
(696,851,o),
(596,880,o),
(495,880,cs)
);
}
);
width = 844;
}
);
metricLeft = o;
unicode = 99;
},
{
glyphname = d;
lastChange = "2021-11-22 07:59:46 +0000";
layers = (
{
layerId = m01;
shapes = (
{
closed = 1;
nodes = (
(615,-20,o),
(741,98,o),
(756,319,c),
(699,319,l),
(692,175,o),
(610,67,o),
(468,67,cs),
(314,67,o),
(245,195,o),
(245,397,cs),
(245,437,ls),
(245,660,o),
(331,763,o),
(498,763,cs),
(599,763,o),
(671,725,o),
(707,677,c),
(734,702,l),
(696,803,o),
(600,880,o),
(448,880,cs),
(228,880,o),
(85,718,o),
(85,416,cs),
(85,107,o),
(234,-20,o),
(428,-20,cs)
);
},
{
closed = 1;
nodes = (
(748,0,l),
(967,30,l),
(967,76,l),
(873,86,l),
(858,98,l),
(851,139,o),
(848,195,o),
(848,234,cs),
(848,1420,l),
(798,1420,l),
(579,1390,l),
(579,1344,l),
(673,1334,l),
(688,1322,l),
(695,1281,o),
(698,1225,o),
(698,1186,cs),
(698,0,l)
);
}
);
width = 1037;
}
);
metricLeft = o;
metricRight = n;
unicode = 100;
},
{
glyphname = e;
lastChange = "2021-11-22 07:57:07 +0000";
layers = (
{
layerId = m01;
shapes = (
{
closed = 1;
nodes = (
(757,261,l),
(700,154,o),
(612,113,o),
(504,113,cs),
(328,113,o),
(230,228,o),
(230,445,cs),
(230,485,ls),
(230,697,o),
(319,813,o),
(460,813,cs),
(589,813,o),
(663,715,o),
(674,491,c),
(821,491,l),
(812,752,o),
(663,880,o),
(467,880,cs),
(243,880,o),
(85,708,o),
(85,420,cs),
(85,131,o),
(244,-20,o),
(458,-20,cs),
(615,-20,o),
(726,64,o),
(799,238,c)
);
},
{
closed = 1;
nodes = (
(214,491,l),
(774,491,l),
(774,548,l),
(214,548,l)
);
}
);
width = 896;
}
);
metricLeft = o;
unicode = 101;
},
{
glyphname = h;
lastChange = "2021-11-21 03:05:06 +0000";
layers = (
{
background = {
shapes = (
{
closed = 1;
nodes = (
(998,0,l),
(998,46,l),
(904,56,l),
(889,68,l),
(882,109,o),
(879,165,o),
(879,204,cs),
(879,570,ls),
(879,737,o),
(829,880,o),
(638,880,cs),
(497,880,o),
(420,803,o),
(368,738,c),
(344,738,l),
(325,649,l),
(349,649,l),
(412,734,o),
(479,775,o),
(572,775,cs),
(706,775,o),
(729,689,o),
(729,560,cs),
(729,204,ls),
(729,165,o),
(726,109,o),
(719,68,c),
(704,56,l),
(610,46,l),
(610,0,l)
);
},
{
closed = 1;
nodes = (
(468,0,l),
(468,46,l),
(374,56,l),
(359,68,l),
(352,109,o),
(349,165,o),
(349,204,cs),
(349,1420,l),
(299,1420,l),
(80,1390,l),
(80,1344,l),
(174,1334,l),
(189,1322,l),
(196,1281,o),
(199,1225,o),
(199,1186,cs),
(199,204,ls),
(199,165,o),
(196,109,o),
(189,68,c),
(174,56,l),
(80,46,l),
(80,0,l)
);
}
);
};
layerId = m01;
shapes = (
{
closed = 1;
nodes = (
(1008,0,l),
(1008,46,l),
(914,56,l),
(899,68,l),
(892,109,o),
(889,165,o),
(889,204,cs),
(889,570,ls),
(889,737,o),
(838,880,o),
(643,880,cs),
(499,880,o),
(421,803,o),
(368,738,c),
(344,738,l),
(325,649,l),
(349,649,l),
(413,734,o),
(482,775,o),
(577,775,cs),
(715,775,o),
(739,689,o),
(739,560,cs),
(739,204,ls),
(739,165,o),
(736,109,o),
(729,68,c),
(714,56,l),
(620,46,l),
(620,0,l)
);
},
{
closed = 1;
nodes = (
(468,0,l),
(468,46,l),
(374,56,l),
(359,68,l),
(352,109,o),
(349,165,o),
(349,204,cs),
(349,1420,l),
(299,1420,l),
(80,1390,l),
(80,1344,l),
(174,1334,l),
(189,1322,l),
(196,1281,o),
(199,1225,o),
(199,1186,cs),
(199,204,ls),
(199,165,o),
(196,109,o),
(189,68,c),
(174,56,l),
(80,46,l),
(80,0,l)
);
}
);
width = 1078;
}
);
metricLeft = n;
metricRight = n;
unicode = 104;
},
{
glyphname = i;
lastChange = "2021-11-22 07:24:13 +0000";
layers = (
{
layerId = m01;
shapes = (
{
closed = 1;
nodes = (
(488,0,l),
(488,46,l),
(394,56,l),
(379,68,l),
(372,109,o),
(369,165,o),
(369,204,cs),
(369,860,l),
(319,860,l),
(100,830,l),
(100,784,l),
(194,774,l),
(209,762,l),
(216,721,o),
(219,665,o),
(219,626,cs),
(219,204,ls),
(219,165,o),
(216,109,o),
(209,68,c),
(194,56,l),
(100,46,l),
(100,0,l)
);
},
{
closed = 1;
nodes = (
(345,1062,o),
(403,1117,o),
(403,1191,cs),
(403,1264,o),
(345,1319,o),
(275,1319,cs),
(205,1319,o),
(146,1264,o),
(146,1191,cs),
(146,1117,o),
(205,1062,o),
(275,1062,cs)
);
}
);
width = 578;
}
);
unicode = 105;
},
{
glyphname = l;
lastChange = "2021-11-22 07:51:22 +0000";
layers = (
{
background = {
shapes = (
{
ref = b;
}
);
};
layerId = m01;
shapes = (
{
closed = 1;
nodes = (
(488,0,l),
(488,46,l),
(394,56,l),
(379,68,l),
(372,109,o),
(369,165,o),
(369,204,cs),
(369,1420,l),
(319,1420,l),
(100,1390,l),
(100,1344,l),
(194,1334,l),
(209,1322,l),
(216,1281,o),
(219,1225,o),
(219,1186,cs),
(219,204,ls),
(219,165,o),
(216,109,o),
(209,68,c),
(194,56,l),
(100,46,l),
(100,0,l)
);
}
);
width = 578;
}
);
unicode = 108;
},
{
glyphname = m;
lastChange = "2021-11-22 08:06:07 +0000";
layers = (
{
background = {
shapes = (
{
closed = 1;
nodes = (
(998,0,l),
(998,46,l),
(904,56,l),
(889,68,l),
(882,109,o),
(879,165,o),
(879,204,cs),
(879,570,ls),
(879,737,o),
(829,880,o),
(639,880,cs),
(498,880,o),
(420,803,o),
(368,738,c),
(344,738,l),
(325,649,l),
(349,649,l),
(412,734,o),
(480,775,o),
(573,775,cs),
(706,775,o),
(729,689,o),
(729,560,cs),
(729,204,ls),
(729,165,o),
(726,109,o),
(719,68,c),
(704,56,l),
(610,46,l),
(610,0,l)
);
},
{
closed = 1;
nodes = (
(468,0,l),
(468,46,l),
(374,56,l),
(359,68,l),
(352,109,o),
(349,165,o),
(349,204,cs),
(349,860,l),
(299,860,l),
(80,830,l),
(80,784,l),
(174,774,l),
(189,762,l),
(196,721,o),
(199,665,o),
(199,626,cs),
(199,204,ls),
(199,165,o),
(196,109,o),
(189,68,c),
(174,56,l),
(80,46,l),
(80,0,l)
);
},
{
closed = 1;
nodes = (
(1528,0,l),
(1528,46,l),
(1434,56,l),
(1419,68,l),
(1412,109,o),
(1409,165,o),
(1409,204,cs),
(1409,570,ls),
(1409,737,o),
(1358,880,o),
(1164,880,cs),
(1017,880,o),
(935,798,o),
(881,728,c),
(858,728,l),
(849,639,l),
(873,639,l),
(938,731,o),
(1006,775,o),
(1101,775,cs),
(1236,775,o),
(1259,689,o),
(1259,560,cs),
(1259,204,ls),
(1259,165,o),
(1256,109,o),
(1249,68,c),
(1234,56,l),
(1140,46,l),
(1140,0,l)
);
}
);
};
layerId = m01;
shapes = (
{
closed = 1;
nodes = (
(998,0,l),
(998,46,l),
(904,56,l),
(889,68,l),
(882,109,o),
(879,165,o),
(879,204,cs),
(879,570,ls),
(879,737,o),
(829,880,o),
(639,880,cs),
(498,880,o),
(415,804,o),
(368,738,c),
(344,738,l),
(325,649,l),
(349,649,l),
(412,734,o),
(476,765,o),
(564,765,cs),
(701,765,o),
(729,691,o),
(729,560,cs),
(729,204,ls),
(729,165,o),
(726,109,o),
(719,68,c),
(704,56,l),
(610,46,l),
(610,0,l)
);
},
{
closed = 1;
nodes = (
(468,0,l),
(468,46,l),
(374,56,l),
(359,68,l),
(352,109,o),
(349,165,o),
(349,204,cs),
(349,860,l),
(299,860,l),
(80,830,l),
(80,784,l),
(174,774,l),
(189,762,l),
(196,721,o),
(199,665,o),
(199,626,cs),
(199,204,ls),
(199,165,o),
(196,109,o),
(189,68,c),
(174,56,l),
(80,46,l),
(80,0,l)
);
},
{
closed = 1;
nodes = (
(1528,0,l),
(1528,46,l),
(1434,56,l),
(1419,68,l),
(1412,109,o),
(1409,165,o),
(1409,204,cs),
(1409,570,ls),
(1409,737,o),
(1358,880,o),
(1164,880,cs),
(1017,880,o),
(930,799,o),
(881,728,c),
(858,728,l),
(849,639,l),
(873,639,l),
(938,731,o),
(1001,765,o),
(1094,765,cs),
(1231,765,o),
(1259,690,o),
(1259,560,cs),
(1259,204,ls),
(1259,165,o),
(1256,109,o),
(1249,68,c),
(1234,56,l),
(1140,46,l),
(1140,0,l)
);
}
);
width = 1598;
},
{
associatedMasterId = m01;
background = {
shapes = (
{
closed = 1;
nodes = (
(998,0,l),
(998,46,l),
(904,56,l),
(889,68,l),
(882,109,o),
(879,165,o),
(879,204,cs),
(879,570,ls),
(879,737,o),
(829,880,o),
(639,880,cs),
(498,880,o),
(420,803,o),
(368,738,c),
(344,738,l),
(325,649,l),
(349,649,l),
(412,734,o),
(480,775,o),
(573,775,cs),
(706,775,o),
(729,689,o),
(729,560,cs),
(729,204,ls),
(729,165,o),
(726,109,o),
(719,68,c),
(704,56,l),
(610,46,l),
(610,0,l)
);
},
{
closed = 1;
nodes = (
(468,0,l),
(468,46,l),
(374,56,l),
(359,68,l),
(352,109,o),
(349,165,o),
(349,204,cs),
(349,860,l),
(299,860,l),
(80,830,l),
(80,784,l),
(174,774,l),
(189,762,l),
(196,721,o),
(199,665,o),
(199,626,cs),
(199,204,ls),
(199,165,o),
(196,109,o),
(189,68,c),
(174,56,l),
(80,46,l),
(80,0,l)
);
},
{
closed = 1;
nodes = (
(1528,0,l),
(1528,46,l),
(1434,56,l),
(1419,68,l),
(1412,109,o),
(1409,165,o),
(1409,204,cs),
(1409,570,ls),
(1409,737,o),
(1358,880,o),
(1164,880,cs),
(1017,880,o),
(935,798,o),
(881,728,c),
(858,728,l),
(849,639,l),
(873,639,l),
(938,731,o),
(1006,775,o),
(1101,775,cs),
(1236,775,o),
(1259,689,o),
(1259,560,cs),
(1259,204,ls),
(1259,165,o),
(1256,109,o),
(1249,68,c),
(1234,56,l),
(1140,46,l),
(1140,0,l)
);
}
);
};
layerId = "94377011-AF65-4A98-8FE0-63414CDE34C0";
name = "22 Nov 21 15.05";
shapes = (
{
closed = 1;
nodes = (
(998,0,l),
(998,46,l),
(904,56,l),
(889,68,l),
(882,109,o),
(879,165,o),
(879,204,cs),
(879,570,ls),
(879,737,o),
(829,880,o),
(639,880,cs),
(498,880,o),
(420,803,o),
(368,738,c),
(344,738,l),
(325,649,l),
(349,649,l),
(412,734,o),
(480,775,o),
(573,775,cs),
(706,775,o),
(729,689,o),
(729,560,cs),
(729,204,ls),
(729,165,o),
(726,109,o),
(719,68,c),
(704,56,l),
(610,46,l),
(610,0,l)
);
},
{
closed = 1;
nodes = (
(468,0,l),
(468,46,l),
(374,56,l),
(359,68,l),
(352,109,o),
(349,165,o),
(349,204,cs),
(349,860,l),
(299,860,l),
(80,830,l),
(80,784,l),
(174,774,l),
(189,762,l),
(196,721,o),
(199,665,o),
(199,626,cs),
(199,204,ls),
(199,165,o),
(196,109,o),
(189,68,c),
(174,56,l),
(80,46,l),
(80,0,l)
);
},
{
closed = 1;
nodes = (
(1528,0,l),
(1528,46,l),
(1434,56,l),
(1419,68,l),
(1412,109,o),
(1409,165,o),
(1409,204,cs),
(1409,570,ls),
(1409,737,o),
(1358,880,o),
(1164,880,cs),
(1017,880,o),
(935,798,o),
(881,728,c),
(858,728,l),
(849,639,l),
(873,639,l),
(938,731,o),
(1006,775,o),
(1101,775,cs),
(1236,775,o),
(1259,689,o),
(1259,560,cs),
(1259,204,ls),
(1259,165,o),
(1256,109,o),
(1249,68,c),
(1234,56,l),
(1140,46,l),
(1140,0,l)
);
}
);
width = 1598;
}
);
metricLeft = n;
metricRight = n;
unicode = 109;
},
{
glyphname = n;
lastChange = "2021-11-22 08:05:44 +0000";
layers = (
{
background = {
shapes = (
{
closed = 1;
nodes = (
(1008,0,l),
(1008,46,l),
(914,56,l),
(899,68,l),
(892,109,o),
(889,165,o),
(889,204,cs),
(889,570,ls),
(889,737,o),
(838,880,o),
(643,880,cs),
(499,880,o),
(421,803,o),
(368,738,c),
(344,738,l),
(325,649,l),
(349,649,l),
(413,734,o),
(482,775,o),
(577,775,cs),
(715,775,o),
(739,689,o),
(739,560,cs),
(739,204,ls),
(739,165,o),
(736,109,o),
(729,68,c),
(714,56,l),
(620,46,l),
(620,0,l)
);
},
{
closed = 1;
nodes = (
(468,0,l),
(468,46,l),
(374,56,l),
(359,68,l),
(352,109,o),
(349,165,o),
(349,204,cs),
(349,860,l),
(299,860,l),
(80,830,l),
(80,784,l),
(174,774,l),
(189,762,l),
(196,721,o),
(199,665,o),
(199,626,cs),
(199,204,ls),
(199,165,o),
(196,109,o),
(189,68,c),
(174,56,l),
(80,46,l),
(80,0,l)
);
}
);
};
layerId = m01;
shapes = (
{
closed = 1;
nodes = (
(1008,0,l),
(1008,46,l),
(914,56,l),
(899,68,l),
(892,109,o),
(889,165,o),
(889,204,cs),
(889,570,ls),
(889,737,o),
(838,880,o),
(643,880,cs),
(499,880,o),
(407,803,o),
(368,738,c),
(344,738,l),
(325,649,l),
(349,649,l),
(413,734,o),
(480,765,o),
(571,765,cs),
(712,765,o),
(739,690,o),
(739,560,cs),
(739,204,ls),
(739,165,o),
(736,109,o),
(729,68,c),
(714,56,l),
(620,46,l),
(620,0,l)
);
},
{
closed = 1;
nodes = (
(468,0,l),
(468,46,l),
(374,56,l),
(359,68,l),
(352,109,o),
(349,165,o),
(349,204,cs),
(349,860,l),
(299,860,l),
(80,830,l),
(80,784,l),
(174,774,l),
(189,762,l),
(196,721,o),
(199,665,o),
(199,626,cs),
(199,204,ls),
(199,165,o),
(196,109,o),
(189,68,c),
(174,56,l),
(80,46,l),
(80,0,l)
);
}
);
width = 1078;
},
{
associatedMasterId = m01;
layerId = "C44855F2-C8E7-4929-BBE4-D4E7787F3CD4";
name = "22 Nov 21 15.05";
shapes = (
{
closed = 1;
nodes = (
(1008,0,l),
(1008,46,l),
(914,56,l),
(899,68,l),
(892,109,o),
(889,165,o),
(889,204,cs),
(889,570,ls),
(889,737,o),
(838,880,o),
(643,880,cs),
(499,880,o),
(421,803,o),
(368,738,c),
(344,738,l),
(325,649,l),
(349,649,l),
(413,734,o),
(482,775,o),
(577,775,cs),
(715,775,o),
(739,689,o),
(739,560,cs),
(739,204,ls),
(739,165,o),
(736,109,o),
(729,68,c),
(714,56,l),
(620,46,l),
(620,0,l)
);
},
{
closed = 1;
nodes = (
(468,0,l),
(468,46,l),
(374,56,l),
(359,68,l),
(352,109,o),
(349,165,o),
(349,204,cs),
(349,860,l),
(299,860,l),
(80,830,l),
(80,784,l),
(174,774,l),
(189,762,l),
(196,721,o),
(199,665,o),
(199,626,cs),
(199,204,ls),
(199,165,o),
(196,109,o),
(189,68,c),
(174,56,l),
(80,46,l),
(80,0,l)
);
}
);
width = 1078;
}
);
metricRight = "=|-10";
unicode = 110;
},
{
glyphname = o;
lastChange = "2021-11-21 03:05:06 +0000";
layers = (
{
background = {
shapes = (
{
closed = 1;
nodes = (
(459,-20,cs),
(703,-20,o),
(863,153,o),
(863,438,cs),
(863,729,o),
(696,880,o),
(469,880,cs),
(225,880,o),
(65,707,o),
(65,422,cs),
(65,131,o),
(232,-20,o)
);
},
{
closed = 1;
nodes = (
(200,485,ls),
(200,692,o),
(282,804,o),
(437,804,cs),
(607,804,o),
(728,669,o),
(728,395,cs),
(728,355,ls),
(728,168,o),
(646,57,o),
(491,57,cs),
(321,57,o),
(200,191,o),
(200,445,cs)
);
}
);
};
layerId = m01;
shapes = (
{
closed = 1;
nodes = (
(708,-20,o),
(865,141,o),
(865,430,cs),
(865,719,o),
(708,880,o),
(478,880,cs),
(248,880,o),
(85,719,o),
(85,430,cs),
(85,141,o),
(248,-20,o),
(478,-20,cs)
);
},
{
closed = 1;
nodes = (
(333,47,o),
(245,155,o),
(245,410,cs),
(245,450,ls),
(245,703,o),
(332,813,o),
(477,813,cs),
(622,813,o),
(705,703,o),
(705,450,cs),
(705,410,ls),
(705,157,o),
(622,47,o),
(477,47,cs)
);
}
);
width = 950;
}
);
metricRight = "=|";
unicode = 111;
},
{
glyphname = p;
lastChange = "2021-11-22 07:53:25 +0000";
layers = (
{
layerId = m01;
shapes = (
{
closed = 1;
nodes = (
(806,-20,o),
(963,137,o),
(963,452,cs),
(963,748,o),
(825,880,o),
(625,880,cs),
(458,880,o),
(358,788,o),
(314,652,c),
(341,627,l),
(389,720,o),
(468,763,o),
(566,763,cs),
(720,763,o),
(803,658,o),
(803,467,cs),
(803,427,ls),
(803,196,o),
(724,67,o),
(568,67,cs),
(434,67,o),
(357,164,o),
(349,289,c),
(302,269,l),
(306,93,o),
(421,-20,o),
(598,-20,cs)
);
},
{
closed = 1;
nodes = (
(468,-460,l),
(468,-414,l),
(374,-404,l),
(359,-392,l),
(352,-351,o),
(349,-295,o),
(349,-256,cs),
(349,860,l),
(299,860,l),
(80,830,l),
(80,784,l),
(174,774,l),
(189,762,l),
(196,721,o),
(199,665,o),
(199,626,cs),
(199,-256,ls),
(199,-295,o),
(196,-351,o),
(189,-392,c),
(174,-404,l),
(80,-414,l),
(80,-460,l)
);
}
);
width = 1048;
}
);
metricLeft = n;
metricRight = o;
unicode = 112;
},
{
glyphname = q;
lastChange = "2021-11-22 08:03:29 +0000";
layers = (
{
layerId = m01;
shapes = (
{
closed = 1;
nodes = (
(615,-20,o),
(741,98,o),
(756,319,c),
(699,319,l),
(692,175,o),
(610,67,o),
(468,67,cs),
(314,67,o),
(245,195,o),
(245,397,cs),
(245,437,ls),
(245,660,o),
(331,763,o),
(498,763,cs),
(599,763,o),
(671,725,o),
(707,677,c),
(734,702,l),
(696,803,o),
(600,880,o),
(448,880,cs),
(228,880,o),
(85,718,o),
(85,416,cs),
(85,107,o),
(234,-20,o),
(428,-20,cs)
);
},
{
closed = 1;
nodes = (
(968,-460,l),
(968,-414,l),
(874,-404,l),
(859,-392,l),
(852,-351,o),
(849,-295,o),
(849,-256,cs),
(849,656,ls),
(849,695,o),
(852,750,o),
(859,860,c),
(778,860,l),
(699,716,l),
(699,-256,ls),
(699,-295,o),
(696,-351,o),
(689,-392,c),
(674,-404,l),
(580,-414,l),
(580,-460,l)
);
}
);
width = 1048;
}
);
metricLeft = o;
metricRight = "=|n";
unicode = 113;
},
{
glyphname = r;
lastChange = "2021-11-21 03:05:06 +0000";
layers = (
{
layerId = m01;
shapes = (
{
closed = 1;
nodes = (
(643,878,l),
(632,879,o),
(620,880,o),
(608,880,cs),
(483,880,o),
(414,791,o),
(368,698,c),
(344,698,l),
(325,599,l),
(349,599,l),
(408,695,o),
(459,735,o),
(565,735,cs),
(592,735,o),
(619,732,o),
(643,728,c)
);
},
{
closed = 1;
nodes = (
(488,0,l),
(488,46,l),
(374,56,l),
(359,68,l),
(352,109,o),
(349,165,o),
(349,204,cs),
(349,860,l),
(299,860,l),
(80,830,l),
(80,784,l),
(174,774,l),
(189,762,l),
(196,721,o),
(199,665,o),
(199,626,cs),
(199,204,ls),
(199,165,o),
(196,109,o),
(189,68,c),
(174,56,l),
(80,46,l),
(80,0,l)
);
}
);
width = 698;
}
);
metricLeft = n;
unicode = 114;
},
{
glyphname = s;
lastChange = "2021-11-22 07:59:21 +0000";
layers = (
{
layerId = m01;
shapes = (
{
closed = 1;
nodes = (
(595,-20,o),
(725,69,o),
(725,248,cs),
(725,597,o),
(227,471,o),
(227,688,cs),
(227,764,o),
(289,811,o),
(399,811,cs),
(537,811,o),
(610,736,o),
(651,639,c),
(692,639,l),
(686,811,l),
(619,853,o),
(525,880,o),
(422,880,cs),
(231,880,o),
(115,786,o),
(115,634,cs),
(115,319,o),
(613,439,o),
(613,195,cs),
(613,109,o),
(551,53,o),
(424,53,cs),
(278,53,o),
(191,128,o),
(140,246,c),
(99,246,l),
(115,50,l),
(180,7,o),
(290,-20,o),
(398,-20,cs)
);
}
);
width = 816;
}
);
unicode = 115;
},
{
glyphname = t;
lastChange = "2021-11-22 08:04:59 +0000";
layers = (
{
layerId = m01;
shapes = (
{
closed = 1;
nodes = (
(465,-10,o),
(532,31,o),
(575,97,c),
(542,128,l),
(518,98,o),
(484,75,o),
(433,75,cs),
(349,75,o),
(334,138,o),
(334,230,cs),
(334,1060,l),
(284,1060,l),
(184,863,l),
(184,230,ls),
(184,87,o),
(225,-10,o),
(371,-10,cs)
);
},
{
closed = 1;
nodes = (
(573,797,l),
(573,860,l),
(32,860,l),
(32,797,l)
);
}
);
width = 650;
}
);
unicode = 116;
},
{
glyphname = u;
lastChange = "2021-11-21 03:05:06 +0000";
layers = (
{
layerId = m01;
shapes = (
{
closed = 1;
nodes = (
(70,860,l),
(70,814,l),
(164,804,l),
(179,792,l),
(186,751,o),
(189,695,o),
(189,656,cs),
(189,290,ls),
(189,123,o),
(238,-20,o),
(425,-20,cs),
(564,-20,o),
(639,57,o),
(690,122,c),
(714,122,l),
(733,211,l),
(709,211,l),
(648,126,o),
(582,85,o),
(491,85,cs),
(362,85,o),
(339,171,o),
(339,300,cs),
(339,860,l)
);
},
{
closed = 1;
nodes = (
(590,860,l),
(590,814,l),
(684,804,l),
(699,792,l),
(706,751,o),
(709,695,o),
(709,656,cs),
(709,0,l),
(759,0,l),
(978,30,l),
(978,76,l),
(884,86,l),
(869,98,l),
(862,139,o),
(859,195,o),
(859,234,cs),
(859,860,l)
);
}
);
width = 1058;
}
);
metricLeft = "=|n";
metricRight = "=|n";
unicode = 117;
},
{
glyphname = "akara-bali";
lastChange = "2021-11-21 03:05:06 +0000";
layers = (
{
background = {
shapes = (
{
closed = 1;
nodes = (
(527,-10,o),
(577,104,o),
(577,333,cs),
(577,437,ls),
(577,676,o),
(749,765,o),
(1057,765,cs),
(1407,765,o),
(1542,650,o),
(1542,401,cs),
(1542,300,o),
(1520,128,o),
(1432,0,c),
(1523,0,ls),
(1758,0,o),
(1823,211,o),
(1823,464,cs),
(1823,585,o),
(1809,671,o),
(1779,761,c),
(1904,756,o),
(1952,661,o),
(1952,512,cs),
(1952,0,l),
(2032,0,l),
(2032,512,ls),
(2032,763,o),
(1978,940,o),
(1615,940,c),
(1700,785,o),
(1743,643,o),
(1743,450,cs),
(1743,255,o),
(1700,177,o),
(1592,175,c),
(1618,264,o),
(1622,366,o),
(1622,422,cs),
(1622,774,o),
(1464,950,o),
(1054,950,cs),
(639,950,o),
(496,769,o),
(496,437,cs),
(496,333,ls),
(496,238,o),
(481,175,o),
(396,175,cs),
(330,175,o),
(299,214,o),
(299,287,cs),
(299,428,o),
(415,559,o),
(415,757,cs),
(415,859,o),
(384,950,o),
(277,950,cs),
(161,950,o),
(58,842,o),
(150,498,c),
(214,515,l),
(155,722,o),
(192,784,o),
(253,784,cs),
(304,784,o),
(315,741,o),
(315,680,cs),
(315,491,o),
(210,382,o),
(210,217,cs),
(210,114,o),
(251,-10,o),
(392,-10,cs)
);
}
);
};
layerId = m01;
shapes = (
{
closed = 1;
nodes = (
(214,879,o),
(371,1058,o),
(720,1058,cs),
(985,1058,o),
(1152,955,o),
(1198,751,c),
(1258,766,l),
(1211,1059,o),
(1023,1201,o),
(726,1201,cs),
(291,1201,o),
(144,895,o),
(144,552,cs),
(144,260,o),
(251,-10,o),
(604,-10,cs),
(788,-10,o),
(968,64,o),
(968,271,cs),
(968,442,o),
(847,513,o),
(628,513,c),
(628,465,l),
(744,465,o),
(868,424,o),
(868,301,cs),
(868,180,o),
(747,133,o),
(595,133,cs),
(327,133,o),
(214,278,o),
(214,554,cs)
);
},
{
closed = 1;
nodes = (
(829,477,o),
(938,542,o),
(938,703,cs),
(938,860,o),
(833,920,o),
(705,920,cs),
(537,920,o),
(465,815,o),
(446,706,c),
(492,688,l),
(529,743,o),
(578,777,o),
(678,777,cs),
(774,777,o),
(838,746,o),
(838,663,cs),
(838,555,o),
(728,525,o),
(628,525,c),
(628,477,l)
);
},
{
closed = 1;
nodes = (
(1675,-10,o),
(1853,100,o),
(1853,467,cs),
(1853,590,o),
(1833,684,o),
(1802,761,c),
(1911,756,o),
(1952,661,o),
(1952,512,cs),
(1952,0,l),
(2032,0,l),
(2032,512,ls),
(2032,763,o),
(1982,940,o),
(1645,940,c),
(1727,791,o),
(1773,642,o),
(1773,464,cs),
(1773,253,o),
(1708,175,o),
(1459,175,cs),
(1280,175,o),
(1184,214,o),
(1122,337,c),
(1071,313,l),
(1128,106,o),
(1249,-10,o),
(1465,-10,cs)
);
},
{
closed = 1;
nodes = (
(1599,356,l),
(1552,459,o),
(1583,482,o),
(1645,482,cs),
(1763,482,o),
(1975,402,o),
(2162,239,c),
(2190,274,l),
(1986,452,o),
(1796,604,o),
(1648,604,cs),
(1516,604,o),
(1460,482,o),
(1561,340,c)
);
}
);
width = 2220;
}
);
unicode = 6917;
},
{
glyphname = "akaraTedung-bali";
lastChange = "2021-11-21 03:05:06 +0000";
layers = (
{
background = {
shapes = (
{
closed = 1;
nodes = (
(214,887,o),
(371,1058,o),
(717,1058,cs),
(985,1058,o),
(1152,955,o),
(1198,751,c),
(1258,766,l),
(1211,1059,o),
(1023,1201,o),
(726,1201,cs),
(291,1201,o),
(144,898,o),
(144,555,cs),
(144,263,o),
(251,-10,o),
(604,-10,cs),
(788,-10,o),
(968,64,o),
(968,271,cs),
(968,442,o),
(847,513,o),
(628,513,c),
(628,465,l),
(744,465,o),
(868,424,o),
(868,301,cs),
(868,180,o),
(747,133,o),
(597,133,cs),
(330,133,o),
(214,281,o),
(214,561,cs)
);
},
{
closed = 1;
nodes = (
(829,477,o),
(938,542,o),
(938,703,cs),
(938,860,o),
(833,920,o),
(705,920,cs),
(537,920,o),
(465,815,o),
(446,706,c),
(492,688,l),
(529,743,o),
(578,777,o),
(678,777,cs),
(774,777,o),
(838,746,o),
(838,663,cs),
(838,555,o),
(728,525,o),
(628,525,c),
(628,477,l)
);
},
{
closed = 1;
nodes = (
(1675,-10,o),
(1853,99,o),
(1853,464,cs),
(1853,676,o),
(1984,770,o),
(2224,770,cs),
(2473,770,o),
(2595,668,o),
(2595,431,cs),
(2595,300,o),
(2558,168,o),
(2403,168,cs),
(2297,168,o),
(2246,229,o),
(2228,354,c),
(2164,344,l),
(2164,131,o),
(2250,-12,o),
(2397,-12,cs),
(2590,-12,o),
(2675,237,o),
(2675,475,cs),
(2675,792,o),
(2524,950,o),
(2237,950,cs),
(1953,950,o),
(1773,795,o),
(1773,464,cs),
(1773,252,o),
(1708,175,o),
(1459,175,cs),
(1280,175,o),
(1184,214,o),
(1122,337,c),
(1071,313,l),
(1128,106,o),
(1249,-10,o),
(1465,-10,cs)
);
},
{
closed = 1;
nodes = (
(1599,356,l),
(1553,456,o),
(1583,482,o),
(1641,482,cs),
(1748,482,o),
(1887,392,o),
(2052,209,c),
(2090,234,l),
(1927,444,o),
(1780,604,o),
(1641,604,cs),
(1516,604,o),
(1462,475,o),
(1561,340,c)
);
}
);
};
layerId = m01;
shapes = (
{
closed = 1;
nodes = (
(2590,-12,o),
(2675,235,o),
(2675,480,cs),
(2675,795,o),
(2531,950,o),
(2245,950,cs),
(1603,950,o),
(1936,175,o),
(1421,175,cs),
(1287,175,o),
(1172,227,o),
(1122,337,c),
(1071,313,l),
(1127,106,o),
(1253,-10,o),
(1460,-10,cs),
(1998,-10,o),
(1626,770,o),
(2243,770,cs),
(2465,770,o),
(2595,669,o),
(2595,428,cs),
(2595,300,o),
(2558,167,o),
(2402,167,cs),
(2297,167,o),
(2246,228,o),
(2228,354,c),
(2164,344,l),
(2164,131,o),
(2250,-12,o),
(2397,-12,cs)
);
},
{
closed = 1;
nodes = (
(788,-10,o),
(968,64,o),
(968,271,cs),
(968,442,o),
(847,513,o),
(628,513,c),
(628,465,l),
(744,465,o),
(868,424,o),
(868,301,cs),
(868,180,o),
(747,133,o),
(597,133,cs),
(330,133,o),
(214,281,o),
(214,561,cs),
(214,887,o),
(371,1058,o),
(717,1058,cs),
(985,1058,o),
(1152,955,o),
(1198,751,c),
(1258,766,l),
(1211,1059,o),
(1023,1201,o),
(726,1201,cs),
(291,1201,o),
(144,898,o),
(144,555,cs),
(144,263,o),
(251,-10,o),
(604,-10,cs)
);
},
{
closed = 1;
nodes = (
(829,477,o),
(938,542,o),
(938,703,cs),
(938,860,o),
(833,920,o),
(705,920,cs),
(537,920,o),
(465,815,o),
(446,706,c),
(492,688,l),
(529,743,o),
(578,777,o),
(678,777,cs),
(774,777,o),
(838,746,o),
(838,663,cs),
(838,555,o),
(728,525,o),
(628,525,c),
(628,477,l)
);
},
{
closed = 1;
nodes = (
(2090,234,l),
(1927,444,o),
(1780,604,o),
(1641,604,cs),
(1516,604,o),
(1462,475,o),
(1561,340,c),
(1599,356,l),
(1553,456,o),
(1583,482,o),
(1641,482,cs),
(1748,482,o),
(1887,392,o),
(2052,209,c)
);
}
);
width = 2775;
}
);
metricRight = "tedung-bali";
unicode = 6918;
},
{
glyphname = "ikara-bali";
lastChange = "2021-11-21 03:05:06 +0000";
layers = (
{
layerId = m01;
shapes = (
{
ref = "nga-bali";
},
{
closed = 1;
nodes = (
(1410,-286,o),
(1005,-420,o),
(1005,-267,cs),
(1005,-207,o),
(1071,-190,o),
(1144,-190,cs),
(1228,-190,o),
(1270,-213,o),
(1302,-246,c),
(1351,-197,l),
(1308,-147,o),
(1247,-116,o),
(1146,-116,cs),
(1020,-116,o),
(930,-164,o),
(930,-269,cs),
(930,-493,o),
(1310,-390,o),
(1310,-508,cs),
(1310,-553,o),
(1256,-567,o),
(1158,-567,cs),
(1027,-567,o),
(949,-542,o),
(914,-458,c),
(874,-476,l),
(897,-624,o),
(983,-710,o),
(1159,-710,cs),
(1286,-710,o),
(1410,-665,o),
(1410,-528,cs)
);
}
);
width = 1902;
}
);
unicode = 6919;
},
{
glyphname = "ikaraTedung-bali";
lastChange = "2021-11-21 03:05:06 +0000";
layers = (
{
layerId = m01;
shapes = (
{
ref = "nga-bali";
},
{
alignment = -1;
pos = (1751,0);
ref = "tedung-bali";
},
{
closed = 1;
nodes = (
(1410,-286,o),
(1005,-420,o),
(1005,-267,cs),
(1005,-207,o),
(1071,-190,o),
(1144,-190,cs),
(1228,-190,o),
(1270,-213,o),
(1302,-246,c),
(1351,-197,l),
(1308,-147,o),
(1247,-116,o),
(1146,-116,cs),
(1020,-116,o),
(930,-164,o),
(930,-269,cs),
(930,-493,o),
(1310,-390,o),
(1310,-508,cs),
(1310,-553,o),
(1256,-567,o),
(1158,-567,cs),
(1027,-567,o),
(949,-542,o),
(914,-458,c),
(874,-476,l),
(897,-624,o),
(983,-710,o),
(1159,-710,cs),
(1286,-710,o),
(1410,-665,o),
(1410,-528,cs)
);
}
);
width = 2821;
}
);
metricRight = "tedung-bali";
unicode = 6920;
},
{
glyphname = "ukara-bali";
lastChange = "2021-11-21 03:05:06 +0000";
layers = (
{
anchors = (
{
name = _top;
pos = (-21,698);
}
);
background = {
shapes = (
{
closed = 1;
nodes = (
(280,-1788,o),
(304,-1401,o),
(781,-1401,cs),
(1114,-1401,o),
(1292,-1589,o),
(1292,-2000,c),
(1372,-2000,l),
(1372,-1474,o),
(1184,-1221,o),
(795,-1221,cs),
(291,-1221,o),
(212,-1645,o),
(201,-1898,c),
(232,-1881,l),
(145,-1802,o),
(-11,-1654,o),
(-11,-1294,cs),
(-11,-278,o),
(1232,-429,o),
(1232,495,cs),
(1232,794,o),
(1102,950,o),
(914,950,cs),
(525,950,o),
(310,746,o),
(310,241,c),
(370,241,l),
(370,616,o),
(569,770,o),
(917,770,cs),
(1074,770,o),
(1152,669,o),
(1152,497,cs),
(1152,-190,o),
(-100,-137,o),
(-100,-1258,cs),
(-100,-1599,o),
(16,-1850,o),
(280,-2001,c)
);
}
);
};
layerId = m01;
shapes = (
{
closed = 1;
nodes = (
(1172,-476,o),
(-150,-277,o),
(-150,-1284,cs),
(-150,-1603,o),
(-17,-1853,o),
(250,-2001,c),
(250,-1734,o),
(319,-1351,o),
(878,-1351,cs),
(1286,-1351,o),
(1492,-1556,o),
(1492,-2000,c),
(1572,-2000,l),
(1572,-1444,o),
(1361,-1171,o),
(894,-1171,cs),
(310,-1171,o),
(185,-1597,o),
(171,-1898,c),
(202,-1881,l),
(115,-1805,o),
(-61,-1657,o),
(-61,-1323,cs),
(-61,-410,o),
(1252,-694,o),
(1252,374,cs),
(1252,811,o),
(1032,950,o),
(776,950,cs),
(499,950,o),
(313,788,o),
(313,499,cs),
(313,405,o),
(333,340,o),
(376,280,c),
(363,317,l),
(298,378,o),
(234,440,o),
(158,557,c),
(86,500,l),
(201,342,o),
(335,226,o),
(501,109,c),
(551,158,l),
(454,243,o),
(394,332,o),
(394,466,cs),
(394,686,o),
(552,770,o),
(775,770,cs),
(1036,770,o),
(1172,655,o),
(1172,380,cs)
);
}
);
width = 1400;
}
);
unicode = 6921;
},
{
glyphname = "raRepa-bali";
lastChange = "2021-11-21 03:05:06 +0000";
layers = (
{
layerId = m01;
shapes = (
{
ref = "pa-bali";
},
{
closed = 1;
nodes = (
(990,-286,o),
(585,-420,o),
(585,-267,cs),
(585,-207,o),
(651,-190,o),
(724,-190,cs),
(808,-190,o),
(850,-213,o),
(882,-246,c),
(931,-197,l),
(888,-147,o),
(827,-116,o),
(726,-116,cs),
(600,-116,o),
(510,-164,o),
(510,-269,cs),
(510,-493,o),
(890,-390,o),
(890,-508,cs),
(890,-553,o),
(836,-567,o),
(738,-567,cs),
(607,-567,o),
(529,-542,o),
(494,-458,c),
(454,-476,l),
(477,-624,o),
(563,-710,o),
(739,-710,cs),
(866,-710,o),
(990,-665,o),
(990,-528,cs)
);
}
);
width = 1540;
}
);
unicode = 6923;
},
{
glyphname = "laLengaTedung-bali";
lastChange = "2021-11-21 03:05:06 +0000";
layers = (
{
anchors = (
{
name = bottom;
pos = (987,-2014);
}
);
layerId = m01;
shapes = (
{
closed = 1;
nodes = (
(1371,-1232,o),
(260,-1224,o),
(260,-677,cs),
(260,-463,o),
(431,-367,o),
(608,-367,cs),
(902,-367,o),
(1108,-631,o),
(1429,-631,cs),
(1692,-631,o),
(1771,-454,o),
(1935,-454,cs),
(2002,-454,o),
(2062,-483,o),
(2062,-660,cs),
(2062,-862,o),
(1984,-910,o),
(1895,-910,c),
(1895,-990,l),
(1994,-990,o),
(2164,-1077,o),
(2164,-1252,cs),
(2164,-1369,o),
(2088,-1451,o),
(1962,-1451,cs),
(1839,-1451,o),
(1734,-1373,o),
(1667,-1283,c),
(1630,-1307,l),
(1684,-1498,o),
(1813,-1630,o),
(1999,-1630,cs),
(2198,-1630,o),
(2337,-1479,o),
(2337,-1292,cs),
(2337,-1024,o),
(2051,-927,o),
(1910,-927,c),
(1910,-973,l),
(2079,-973,o),
(2239,-878,o),
(2239,-652,cs),
(2239,-468,o),
(2132,-353,o),
(1944,-353,cs),
(1766,-353,o),
(1660,-457,o),
(1474,-457,cs),
(1165,-457,o),
(982,-171,o),
(633,-171,cs),
(369,-171,o),
(154,-335,o),
(154,-646,cs),
(154,-1336,o),
(1214,-1237,o),
(765,-1960,c),
(798,-2014,l)
);
},
{
closed = 1;
nodes = (
(1432,-1687,o),
(1682,-1121,o),
(1682,-477,cs),
(1682,10,l),
(1602,11,l),
(1602,-477,ls),
(1602,-1062,o),
(1368,-1618,o),
(765,-1960,c),
(798,-2014,l)
);
},
{
closed = 1;
nodes = (
(788,0,l),
(695,132,o),
(678,277,o),
(678,407,cs),
(678,667,o),
(746,770,o),
(910,770,cs),
(1032,770,o),
(1100,713,o),
(1100,571,c),
(1160,571,l),
(1160,842,o),
(1073,950,o),
(915,950,cs),
(728,950,o),
(598,798,o),
(598,416,cs),
(598,349,o),
(602,257,o),
(628,175,c),
(451,177,o),
(377,229,o),
(377,379,cs),
(377,520,o),
(443,630,o),
(443,761,cs),
(443,862,o),
(404,950,o),
(282,950,cs),
(129,950,o),
(63,812,o),
(111,518,c),
(178,528,l),
(153,713,o),
(174,784,o),
(260,784,cs),
(326,784,o),
(343,742,o),
(343,680,cs),
(343,568,o),
(288,459,o),
(288,323,cs),
(288,150,o),
(378,0,o),
(697,0,cs)
);
},
{
closed = 1;
nodes = (
(1682,0,l),
(1682,431,ls),
(1682,804,o),
(1552,950,o),
(1365,950,cs),
(1207,950,o),
(1120,842,o),
(1120,571,c),
(1180,571,l),
(1180,713,o),
(1248,770,o),
(1369,770,cs),
(1524,770,o),
(1602,676,o),
(1602,431,cs),
(1602,0,l)
);
}
);
width = 1902;
}
);
unicode = 6926;
},
{
glyphname = "ekara-bali";
lastChange = "2021-11-21 03:05:06 +0000";
layers = (
{
layerId = m01;
shapes = (
{
closed = 1;
nodes = (
(310,120,l),
(262,164,o),
(187,233,o),
(187,427,cs),
(187,720,o),
(371,881,o),
(733,881,c),
(733,961,l),
(281,961,o),
(102,711,o),
(102,430,cs),
(102,241,o),
(182,87,o),
(358,0,c),
(358,134,o),
(376,370,o),
(728,370,cs),
(976,370,o),
(1110,253,o),
(1110,1,c),
(1190,1,l),
(1190,374,o),
(1047,550,o),
(743,550,cs),
(352,550,o),
(286,267,o),
(279,103,c)
);
}
);
width = 1380;
}
);
unicode = 6927;
},
{
glyphname = "aikara-bali";
lastChange = "2021-11-21 03:05:06 +0000";
layers = (
{
layerId = m01;
shapes = (
{
closed = 1;
nodes = (
(800,-2010,o),
(766,-1680,o),
(1044,-1680,cs),
(1322,-1680,o),
(1262,-2010,o),
(1599,-2010,cs),
(1930,-2010,o),
(2001,-1690,o),
(2001,-1451,cs),
(2001,1008,ls),
(2001,1310,o),
(1898,1412,o),
(1775,1412,cs),
(1676,1412,o),
(1594,1347,o),
(1594,1221,cs),
(1594,820,o),
(2433,527,o),
(2433,1293,c),
(2351,1293,l),
(2351,829,o),
(1676,989,o),
(1676,1240,cs),
(1676,1292,o),
(1705,1332,o),
(1767,1332,cs),
(1860,1332,o),
(1921,1240,o),
(1921,1045,cs),
(1921,-1443,ls),
(1921,-1601,o),
(1880,-1840,o),
(1580,-1840,cs),
(1222,-1840,o),
(1357,-1500,o),
(1056,-1500,cs),
(755,-1500,o),
(865,-1840,o),
(517,-1840,cs),
(305,-1840,o),
(179,-1713,o),
(179,-1433,cs),
(179,-464,o),
(1682,-868,o),
(1682,435,cs),
(1682,818,o),
(1552,950,o),
(1370,950,cs),
(1207,950,o),
(1120,844,o),
(1120,571,c),
(1180,571,l),
(1180,713,o),
(1248,770,o),
(1372,770,cs),
(1538,770,o),
(1602,669,o),
(1602,444,cs),
(1602,-650,o),
(91,-331,o),
(91,-1435,cs),
(91,-1778,o),
(237,-2010,o),
(494,-2010,cs)
);
},
{
closed = 1;
nodes = (
(788,0,l),
(695,132,o),
(678,277,o),
(678,407,cs),
(678,667,o),
(746,770,o),
(910,770,cs),
(1032,770,o),
(1100,713,o),
(1100,571,c),
(1160,571,l),
(1160,842,o),
(1073,950,o),
(915,950,cs),
(728,950,o),
(598,798,o),
(598,416,cs),
(598,349,o),
(602,257,o),
(628,175,c),
(451,177,o),
(377,229,o),
(377,379,cs),
(377,520,o),
(443,630,o),
(443,761,cs),
(443,862,o),
(404,950,o),
(282,950,cs),
(129,950,o),
(63,812,o),
(111,518,c),
(178,528,l),
(153,713,o),
(174,784,o),
(260,784,cs),
(326,784,o),
(343,742,o),
(343,680,cs),
(343,568,o),
(288,459,o),
(288,323,cs),
(288,150,o),
(378,0,o),
(697,0,cs)
);
}
);
width = 2410;
}
);
metricLeft = "jaJera-bali";
unicode = 6928;
},
{
glyphname = "okara-bali";
lastChange = "2021-11-21 03:05:06 +0000";
layers = (
{
layerId = m01;
shapes = (
{
closed = 1;
nodes = (
(500,-1734,o),
(569,-1351,o),
(1128,-1351,cs),
(1536,-1351,o),
(1742,-1556,o),
(1742,-2000,c),
(1822,-2000,l),
(1822,-1444,o),
(1611,-1171,o),
(1144,-1171,cs),
(560,-1171,o),
(435,-1597,o),
(421,-1898,c),
(452,-1881,l),
(362,-1805,o),
(179,-1656,o),
(179,-1326,cs),
(179,-381,o),
(1682,-714,o),
(1682,461,cs),
(1682,807,o),
(1552,950,o),
(1367,950,cs),
(1207,950,o),
(1120,843,o),
(1120,571,c),
(1180,571,l),
(1180,713,o),
(1248,770,o),
(1370,770,cs),
(1533,770,o),
(1602,669,o),
(1602,467,cs),
(1602,-476,o),
(90,-243,o),
(90,-1287,cs),
(90,-1602,o),
(228,-1855,o),
(500,-2001,c)
);
},
{
closed = 1;
nodes = (
(788,0,l),
(695,132,o),
(678,277,o),
(678,407,cs),
(678,667,o),
(746,770,o),
(910,770,cs),
(1032,770,o),
(1100,713,o),
(1100,571,c),
(1160,571,l),
(1160,842,o),
(1073,950,o),
(915,950,cs),
(728,950,o),
(598,798,o),
(598,416,cs),
(598,349,o),
(602,257,o),
(628,175,c),
(451,177,o),
(377,229,o),
(377,379,cs),
(377,520,o),
(443,630,o),
(443,761,cs),
(443,862,o),
(404,950,o),
(282,950,cs),
(129,950,o),
(63,812,o),
(111,518,c),
(178,528,l),
(153,713,o),
(174,784,o),
(260,784,cs),
(326,784,o),
(343,742,o),
(343,680,cs),
(343,568,o),
(288,459,o),
(288,323,cs),
(288,150,o),
(378,0,o),
(697,0,cs)
);
}
);
width = 1817;
}
);
unicode = 6929;
},
{
glyphname = "ha-bali";
lastChange = "2021-11-21 03:05:06 +0000";
layers = (
{
anchors = (
{
name = bottom;
pos = (2075,0);
},
{
name = top;
pos = (1130,940);
}
);
background = {
shapes = (
{
closed = 1;
nodes = (
(1094,-10,o),
(1245,147,o),
(1245,414,cs),
(1245,654,o),
(1123,770,o),
(896,804,c),
(948,697,l),
(1011,741,o),
(1076,761,o),
(1147,761,cs),
(1297,761,o),
(1345,672,o),
(1345,530,cs),
(1345,0,l),
(1425,0,l),
(1425,550,ls),
(1425,797,o),
(1366,940,o),
(1151,940,cs),
(997,940,o),
(878,866,o),
(795,720,c),
(815,680,l),
(1041,688,o),
(1165,596,o),
(1165,417,cs),
(1165,214,o),
(1004,175,o),
(772,175,cs),
(491,175,o),
(385,232,o),
(385,390,cs),
(385,514,o),
(451,629,o),
(451,765,cs),
(451,861,o),
(418,950,o),
(313,950,cs),
(197,950,o),
(94,842,o),
(186,498,c),
(249,515,l),
(191,721,o),
(228,784,o),
(289,784,cs),
(339,784,o),
(351,743,o),
(351,685,cs),
(351,562,o),
(296,466,o),
(296,340,cs),
(296,129,o),
(451,-10,o),
(763,-10,cs)
);
}
);
};
layerId = m01;
shapes = (
{
closed = 1;
nodes = (
(1585,312,o),
(1560,137,o),
(1475,0,c),
(1566,0,ls),
(1801,0,o),
(1866,211,o),
(1866,464,cs),
(1866,585,o),
(1852,671,o),
(1822,761,c),
(1947,756,o),
(1995,661,o),
(1995,512,cs),
(1995,0,l),
(2075,0,l),
(2075,512,ls),
(2075,763,o),
(2021,940,o),
(1658,940,c),
(1743,785,o),
(1786,643,o),
(1786,450,cs),
(1786,255,o),
(1742,177,o),
(1631,175,c),
(1659,271,o),
(1665,380,o),
(1665,447,cs),
(1665,661,o),
(1665,950,o),
(1352,950,cs),
(1123,950,o),
(1051,795,o),
(1051,532,cs),
(1051,398,ls),
(1051,253,o),
(978,175,o),
(712,175,cs),
(482,175,o),
(394,233,o),
(394,386,cs),
(394,518,o),
(460,628,o),
(460,765,cs),
(460,861,o),
(427,950,o),
(322,950,cs),
(206,950,o),
(103,842,o),
(195,498,c),
(259,515,l),
(200,721,o),
(237,784,o),
(298,784,cs),
(348,784,o),
(360,743,o),
(360,685,cs),
(360,561,o),
(305,464,o),
(305,321,cs),
(305,144,o),
(390,-10,o),
(701,-10,cs),
(1132,-10,o),
(1132,286,o),
(1132,428,cs),
(1132,532,ls),
(1132,689,o),
(1193,765,o),
(1352,765,cs),
(1540,765,o),
(1585,658,o),
(1585,460,cs)
);
}
);
width = 2260;
},
{
associatedMasterId = m01;
background = {
shapes = (
{
closed = 1;
nodes = (
(293,105,o),
(260,161,o),
(260,280,cs),
(260,620,ls),
(260,697,o),
(277,758,o),
(302,799,cs),
(327,839,o),
(363,860,o),
(400,860,cs),
(434.667,860,o),
(460,833.333,o),
(460,760,cs),
(460,220,ls),
(460,69.333,o),
(528,0,o),
(660,0,cs),
(960,0,ls),
(1104.584,0,o),
(1160,54.439,o),
(1160,220,cs),
(1160,800,ls),
(1160,848.979,o),
(1166.261,860,o),
(1220,860,cs),
(1320,860,ls),
(1398.667,860,o),
(1440,820,o),
(1440,700,cs),
(1440,140,ls),
(1440,44,o),
(1487.333,0,o),
(1570,0,cs),
(1670,0,ls),
(1735.806,0,o),
(1800,28.806,o),
(1800,140,cs),
(1800,800,ls),
(1800,848.979,o),
(1806.261,860,o),
(1860,860,cs),
(1960,860,ls),
(2038.667,860,o),
(2080,820,o),
(2080,700,cs),
(2080,0,l),
(2260,0,l),
(2260,700,ls),
(2260,878.125,o),
(2189.732,940,o),
(2060,940,cs),
(1860,940,ls),
(1754.61,940,o),
(1720,910.367,o),
(1720,800,cs),
(1720,140,ls),
(1720,104,o),
(1708.667,80,o),
(1670,80,cs),
(1630,80,o),
(1620,97.333,o),
(1620,140,cs),
(1620,700,ls),
(1620,878.125,o),
(1549.732,940,o),
(1420,940,cs),
(1220,940,ls),
(1114.61,940,o),
(1080,910.367,o),
(1080,800,cs),
(1080,220,ls),
(1080,117.957,o),
(1049.756,80,o),
(960,80,cs),
(760,80,ls),
(684,80,o),
(640,116,o),
(640,220,cs),
(640,760,ls),
(640,886.667,o),
(586.667,940,o),
(500,940,cs),
(400,940,ls),
(285,940,o),
(180,823,o),
(180,620,cs),
(180,280,ls),
(180,125,o),
(222,56,o),
(349,-18,c),
(389,49,l),
(389,49,l)
);
}
);
};
layerId = "C4D546AA-FA17-4CD1-A666-13E1186439F1";
name = "13 Jun 21 21.26";
shapes = (
{
closed = 1;
nodes = (
(1055,-10,o),
(1055,270,o),
(1055,428,cs),
(1055,532,ls),
(1055,700,o),
(1106,765,o),
(1258,765,cs),
(1427,765,o),
(1473,685,o),
(1473,532,cs),
(1473,277,ls),
(1473,78,o),
(1511,-10,o),
(1615,-10,cs),
(1719,-10,o),
(1785,78,o),
(1785,382,cs),
(1785,546,o),
(1765,663,o),
(1734,761,c),
(1843,756,o),
(1884,661,o),
(1884,512,cs),
(1884,0,l),
(1964,0,l),
(1964,512,ls),
(1964,763,o),
(1914,940,o),
(1577,940,c),
(1665,757,o),
(1705,600,o),
(1705,364,cs),
(1705,213,o),
(1689,98,o),
(1616,98,cs),
(1564,98,o),
(1554,156,o),
(1554,295,cs),
(1554,532,ls),
(1554,698,o),
(1554,950,o),
(1265,950,cs),
(1042,950,o),
(974,800,o),
(974,532,cs),
(974,398,ls),
(974,249,o),
(902,175,o),
(631,175,cs),
(414,175,o),
(317,222,o),
(317,339,cs),
(317,473,o),
(443,595,o),
(443,760,cs),
(443,863,o),
(394,950,o),
(277,950,cs),
(144,950,o),
(71,836,o),
(81,608,c),
(149,608,l),
(143,713,o),
(164,784,o),
(244,784,cs),
(307,784,o),
(323,741,o),
(323,685,cs),
(323,536,o),
(208,435,o),
(208,275,cs),
(208,128,o),
(306,-10,o),
(615,-10,cs)
);
},
{
closed = 1;
nodes = (
(1107,-10,o),
(1290,145,o),
(1290,406,cs),
(1290,579,o),
(1210,724,o),
(1011,724,c),
(1033,707,l),
(1092,744,o),
(1146,761,o),
(1207,761,cs),
(1347,761,o),
(1390,674,o),
(1390,530,cs),
(1390,0,l),
(1470,0,l),
(1470,550,ls),
(1470,802,o),
(1417,940,o),
(1219,940,cs),
(1088,940,o),
(966,878,o),
(880,730,c),
(900,690,l),
(1100,699,o),
(1210,601,o),
(1210,425,cs),
(1210,207,o),
(1040,175,o),
(760,175,cs),
(436,175,o),
(327,218,o),
(327,389,cs),
(327,540,o),
(413,611,o),
(413,759,cs),
(413,863,o),
(370,950,o),
(266,950,cs),
(147,950,o),
(81,836,o),
(91,608,c),
(159,608,l),
(153,713,o),
(170,784,o),
(233,784,cs),
(281,784,o),
(293,742,o),
(293,688,cs),
(293,553,o),
(218,478,o),
(218,331,cs),
(218,141,o),
(342,-10,o),
(722,-10,cs)
);
}
);
width = 2144;
},
{
associatedMasterId = m01;
background = {
shapes = (
{
closed = 1;
nodes = (
(1097,-10,o),
(1280,145,o),
(1280,406,cs),
(1280,579,o),
(1200,724,o),
(1001,724,c),
(1023,707,l),
(1082,744,o),
(1136,761,o),
(1197,761,cs),
(1337,761,o),
(1380,674,o),
(1380,530,cs),
(1380,0,l),
(1460,0,l),
(1460,550,ls),
(1460,802,o),
(1407,940,o),
(1209,940,cs),
(1078,940,o),
(956,878,o),
(870,730,c),
(890,690,l),
(1090,699,o),
(1200,601,o),
(1200,425,cs),
(1200,207,o),
(1030,175,o),
(750,175,cs),
(426,175,o),
(317,218,o),
(317,389,cs),
(317,540,o),
(403,611,o),
(403,759,cs),
(403,863,o),
(360,950,o),
(256,950,cs),
(137,950,o),
(71,836,o),
(81,608,c),
(149,608,l),
(143,713,o),
(160,784,o),
(223,784,cs),
(271,784,o),
(283,742,o),
(283,688,cs),
(283,553,o),
(208,478,o),
(208,331,cs),
(208,141,o),
(332,-10,o),
(712,-10,cs)
);
}
);
};
layerId = "6199F96B-065B-4C04-AD73-A592EA067CD6";
name = "11 Jul 21 10.38";
shapes = (
{
closed = 1;
nodes = (
(1021,-10,o),
(1021,277,o),
(1021,428,cs),
(1021,532,ls),
(1021,700,o),
(1077,765,o),
(1243,765,cs),
(1424,765,o),
(1473,685,o),
(1473,532,cs),
(1473,277,ls),
(1473,78,o),
(1511,-10,o),
(1615,-10,cs),
(1719,-10,o),
(1785,78,o),
(1785,382,cs),
(1785,546,o),
(1765,663,o),
(1734,761,c),
(1843,756,o),
(1884,661,o),
(1884,512,cs),
(1884,0,l),
(1964,0,l),
(1964,512,ls),
(1964,763,o),
(1914,940,o),
(1577,940,c),
(1665,757,o),
(1705,600,o),
(1705,364,cs),
(1705,213,o),
(1689,98,o),
(1616,98,cs),
(1564,98,o),
(1554,156,o),
(1554,295,cs),
(1554,532,ls),
(1554,698,o),
(1554,950,o),
(1250,950,cs),
(1012,950,o),
(940,800,o),
(940,532,cs),
(940,398,ls),
(940,252,o),
(872,175,o),
(624,175,cs),
(406,175,o),
(317,233,o),
(317,380,cs),
(317,522,o),
(403,627,o),
(403,765,cs),
(403,862,o),
(360,950,o),
(256,950,cs),
(137,950,o),
(71,836,o),
(81,608,c),
(149,608,l),
(143,713,o),
(160,784,o),
(224,784,cs),
(271,784,o),
(283,741,o),
(283,689,cs),
(283,558,o),
(208,470,o),
(208,318,cs),
(208,146,o),
(300,-10,o),
(607,-10,cs)
);
}
);
width = 2144;
},
{
associatedMasterId = m01;
background = {
shapes = (
{
pos = (-296,0);
ref = "ha-java";
}
);
};
layerId = "BECBFA54-7DD1-46E9-A7D9-DE574284B33E";
name = "11 Jul 21 11.50";
shapes = (
{
closed = 1;
nodes = (
(1021,-10,o),
(1021,283,o),
(1021,428,cs),
(1021,532,ls),
(1021,700,o),
(1077,765,o),
(1243,765,cs),
(1425,765,o),
(1474,685,o),
(1474,532,cs),
(1474,196,ls),
(1474,58,o),
(1512,0,o),
(1625,0,cs),
(1725,0,l),
(1725,761,l),
(1868,757,o),
(1884,689,o),
(1884,582,cs),
(1884,0,l),
(1964,0,l),
(1964,582,ls),
(1964,792,o),
(1925,940,o),
(1645,940,c),
(1645,108,l),
(1616,108,ls),
(1564,108,o),
(1554,135,o),
(1554,196,cs),
(1554,532,ls),
(1554,699,o),
(1554,950,o),
(1248,950,cs),
(1012,950,o),
(940,800,o),
(940,532,cs),
(940,398,ls),
(940,252,o),
(864,175,o),
(584,175,cs),
(341,175,o),
(247,233,o),
(247,387,cs),
(247,516,o),
(313,629,o),
(313,765,cs),
(313,861,o),
(280,950,o),
(175,950,cs),
(59,950,o),
(-44,842,o),
(48,498,c),
(113,508,l),
(53,721,o),
(90,784,o),
(151,784,cs),
(201,784,o),
(213,743,o),
(213,685,cs),
(213,562,o),
(158,462,o),
(158,323,cs),
(158,145,o),
(248,-10,o),
(573,-10,cs)
);
}
);
width = 2144;
},
{
associatedMasterId = m01;
layerId = "669D6032-6C3D-4B49-B650-49D7C2CE2BD2";
name = "11 Jul 21 12.03";
shapes = (
{
closed = 1;
nodes = (
(1057,-10,o),
(1057,286,o),
(1057,428,cs),
(1057,532,ls),
(1057,700,o),
(1113,765,o),
(1279,765,cs),
(1461,765,o),
(1510,685,o),
(1510,532,cs),
(1510,196,ls),
(1510,58,o),
(1548,0,o),
(1661,0,cs),
(1761,0,l),
(1761,761,l),
(1904,757,o),
(1920,689,o),
(1920,582,cs),
(1920,0,l),
(2000,0,l),
(2000,582,ls),
(2000,792,o),
(1961,940,o),
(1681,940,c),
(1681,108,l),
(1652,108,ls),
(1600,108,o),
(1590,135,o),
(1590,196,cs),
(1590,532,ls),
(1590,699,o),
(1590,950,o),
(1284,950,cs),
(1048,950,o),
(976,800,o),
(976,532,cs),
(976,398,ls),
(976,253,o),
(903,175,o),
(637,175,cs),
(407,175,o),
(319,233,o),
(319,386,cs),
(319,518,o),
(385,628,o),
(385,765,cs),
(385,861,o),
(352,950,o),
(247,950,cs),
(131,950,o),
(28,842,o),
(120,498,c),
(185,508,l),
(125,721,o),
(162,784,o),
(223,784,cs),
(273,784,o),
(285,743,o),
(285,685,cs),
(285,561,o),
(230,464,o),
(230,321,cs),
(230,144,o),
(315,-10,o),
(626,-10,cs)
);
}
);
width = 2180;
}
);
metricLeft = "ka-bali";
metricRight = "ka-bali";
unicode = 6963;
},
{
glyphname = "na-bali";
lastChange = "2021-11-21 03:05:06 +0000";
layers = (
{
anchors = (
{
name = bottom;
pos = (1670,0);
},
{
name = cerek;
pos = (1210,0);
},
{
name = top;
pos = (1670,940);
}
);
background = {
shapes = (
{
closed = 1;
nodes = (
(525,-20,o),
(569,263,o),
(569,468,cs),
(569,703,o),
(511,950,o),
(319,950,cs),
(210,950,o),
(145,871,o),
(145,751,cs),
(145,663,o),
(180,582,o),
(232,522,c),
(289,558,l),
(247,617,o),
(231,660,o),
(231,694,cs),
(231,739,o),
(262,770,o),
(322,770,cs),
(428,770,o),
(489,677,o),
(489,447,cs),
(489,223,o),
(430,60,o),
(318,60,cs),
(277,60,o),
(259,82,o),
(259,130,cs),
(259,291,o),
(458,350,o),
(671,350,cs),
(899,350,o),
(1160,282,o),
(1160,147,cs),
(1160,98,o),
(1125,60,o),
(1026,60,cs),
(837,60,o),
(748,200,o),
(748,416,cs),
(748,681,o),
(882,770,o),
(1143,770,cs),
(1431,770,o),
(1570,661,o),
(1570,431,cs),
(1570,0,l),
(1650,0,l),
(1650,431,ls),
(1650,781,o),
(1501,950,o),
(1164,950,cs),
(847,950,o),
(668,801,o),
(668,448,cs),
(668,188,o),
(765,-20,o),
(1024,-20,cs),
(1166,-20,o),
(1250,42,o),
(1250,159,cs),
(1250,355,o),
(1017,530,o),
(695,530,cs),
(396,530,o),
(179,379,o),
(179,144,cs),
(179,29,o),
(231,-20,o),
(317,-20,cs)
);
}
);
};
layerId = m01;
shapes = (
{
closed = 1;
nodes = (
(545,-20,o),
(589,263,o),
(589,468,cs),
(589,703,o),
(531,950,o),
(339,950,cs),
(230,950,o),
(165,871,o),
(165,751,cs),
(165,663,o),
(200,582,o),
(252,522,c),
(309,558,l),
(267,617,o),
(251,660,o),
(251,694,cs),
(251,739,o),
(282,770,o),
(342,770,cs),
(447,770,o),
(509,678,o),
(509,449,cs),
(509,223,o),
(449,60,o),
(342,60,cs),
(294,60,o),
(279,92,o),
(279,134,cs),
(279,289,o),
(489,350,o),
(716,350,cs),
(955,350,o),
(1230,282,o),
(1230,147,cs),
(1230,98,o),
(1193,60,o),
(1096,60,cs),
(921,60,o),
(768,182,o),
(768,436,cs),
(768,674,o),
(902,770,o),
(1167,770,cs),
(1451,770,o),
(1590,660,o),
(1590,431,cs),
(1590,0,l),
(1670,0,l),
(1670,431,ls),
(1670,779,o),
(1521,950,o),
(1188,950,cs),
(867,950,o),
(688,792,o),
(688,471,cs),
(688,178,o),
(838,-20,o),
(1093,-20,cs),
(1235,-20,o),
(1320,42,o),
(1320,158,cs),
(1320,355,o),
(1077,530,o),
(740,530,cs),
(428,530,o),
(199,380,o),
(199,142,cs),
(199,29,o),
(251,-20,o),
(337,-20,cs)
);
}
);
width = 1890;
},
{
anchors = (
{
name = cerek;
pos = (1146,0);
}
);
associatedMasterId = m01;
background = {
shapes = (
{
closed = 1;
nodes = (
(333,70,o),
(290,118,o),
(267,182,o),
(260,265,o),
(260,320,qs),
(260,660,ls),
(260,710,o),
(275,791,o),
(310,841,o),
(351,860,o),
(376,860,qs),
(394,860,o),
(415,852,o),
(431,830,o),
(440,791,o),
(440,760,qs),
(440,0,l),
(620,0,l),
(620,400,l),
(705,400,o),
(845,362,o),
(900,333,q),
(900,160,ls),
(900,61,o),
(981,-20,o),
(1060,-20,qs),
(1132,-20,o),
(1220,47,o),
(1220,110,qs),
(1220,148,o),
(1188,227,o),
(1126,304,o),
(1037,374,o),
(980,402,q),
(980,660,ls),
(980,716,o),
(1006,792,o),
(1053,839,o),
(1119,860,o),
(1160,860,qs),
(1320,860,ls),
(1357,860,o),
(1423,836,o),
(1472,779,o),
(1500,687,o),
(1500,620,qs),
(1500,140,ls),
(1500,68,o),
(1568,0,o),
(1630,0,qs),
(1730,0,ls),
(1754,0,o),
(1801,12,o),
(1837,43,o),
(1860,98,o),
(1860,140,qs),
(1860,580,ls),
(1860,684,o),
(1846,818,o),
(1834,860,q),
(1920,860,ls),
(1961,860,o),
(2021,837,o),
(2061,784,o),
(2080,700,o),
(2080,640,qs),
(2080,0,l),
(2260,0,l),
(2260,640,ls),
(2260,722,o),
(2233,836,o),
(2175,908,o),
(2084,940,o),
(2020,940,qs),
(1681,940,l),
(1710,916,o),
(1748,860,o),
(1771,779,o),
(1780,664,o),
(1780,580,qs),
(1780,140,ls),
(1780,113,o),
(1759,80,o),
(1730,80,qs),
(1700,80,o),
(1680,108,o),
(1680,140,qs),
(1680,620,ls),
(1680,710,o),
(1642,832,o),
(1573,907,o),
(1477,940,o),
(1420,940,qs),
(1160,940,ls),
(1105,940,o),
(1010,910,o),
(940,844,o),
(900,737,o),
(900,660,qs),
(900,435,l),
(839,456,o),
(699,480,o),
(620,480,q),
(620,760,ls),
(620,809,o),
(599,878,o),
(561,921,o),
(512,940,o),
(470,940,qs),
(400,940,ls),
(334,940,o),
(263,898,o),
(213,833,o),
(180,728,o),
(180,660,qs),
(180,320,ls),
(180,254,o),
(191,153,o),
(223,73,o),
(281,10,o),
(329,-18,q),
(369,49,l)
);
},
{
closed = 1;
nodes = (
(1080,152,o),
(1080,120,qs),
(1080,101,o),
(1063,80,o),
(1040,80,qs),
(1012,80,o),
(980,120,o),
(980,160,qs),
(980,279,l),
(1029,238,o)
);
}
);
};
layerId = "7AF252CD-D43B-41A7-AE4E-57CCB2CC86FD";
name = "13 Jun 21 15.36";
shapes = (
{
closed = 1;
nodes = (
(619,-20,o),
(669,254,o),
(669,467,cs),
(669,732,o),
(592,940,o),
(336,940,cs),
(162,940,o),
(65,843,o),
(65,678,cs),
(65,572,o),
(105,481,o),
(228,442,c),
(261,508,l),
(169,533,o),
(145,607,o),
(145,682,cs),
(145,805,o),
(209,860,o),
(310,860,cs),
(448,860,o),
(509,758,o),
(509,458,cs),
(509,212,o),
(468,80,o),
(367,80,cs),
(326,80,o),
(309,102,o),
(309,151,cs),
(309,325,o),
(528,400,o),
(721,400,cs),
(921,400,o),
(1148,319,o),
(1148,158,cs),
(1148,101,o),
(1120,80,o),
(1065,80,cs),
(929,80,o),
(848,208,o),
(848,458,cs),
(848,755,o),
(963,860,o),
(1210,860,cs),
(1394,860,o),
(1538,802,o),
(1538,542,cs),
(1538,0,l),
(1718,0,l),
(1718,536,ls),
(1718,802,o),
(1564,940,o),
(1240,940,cs),
(933,940,o),
(768,816,o),
(768,462,cs),
(768,181,o),
(872,-20,o),
(1092,-20,cs),
(1198,-20,o),
(1288,26,o),
(1288,137,cs),
(1288,327,o),
(1021,480,o),
(734,480,cs),
(474,480,o),
(229,354,o),
(229,138,cs),
(229,43,o),
(277,-20,o),
(388,-20,cs)
);
}
);
width = 1889;
},
{
anchors = (
{
name = cerek;
pos = (1150,0);
}
);
associatedMasterId = m01;
background = {
shapes = (
{
closed = 1;
nodes = (
(623,-20,o),
(673,254,o),
(673,467,cs),
(673,732,o),
(596,940,o),
(340,940,cs),
(166,940,o),
(69,843,o),
(69,678,cs),
(69,572,o),
(109,481,o),
(232,442,c),
(265,508,l),
(173,533,o),
(149,607,o),
(149,682,cs),
(149,805,o),
(213,860,o),
(314,860,cs),
(452,860,o),
(513,758,o),
(513,458,cs),
(513,212,o),
(472,80,o),
(371,80,cs),
(330,80,o),
(313,102,o),
(313,151,cs),
(313,325,o),
(532,400,o),
(725,400,cs),
(925,400,o),
(1152,319,o),
(1152,158,cs),
(1152,101,o),
(1124,80,o),
(1069,80,cs),
(933,80,o),
(852,208,o),
(852,458,cs),
(852,755,o),
(967,860,o),
(1214,860,cs),
(1398,860,o),
(1542,802,o),
(1542,542,cs),
(1542,0,l),
(1722,0,l),
(1722,536,ls),
(1722,802,o),
(1568,940,o),
(1244,940,cs),
(937,940,o),
(772,816,o),
(772,462,cs),
(772,181,o),
(876,-20,o),
(1096,-20,cs),
(1202,-20,o),
(1292,26,o),
(1292,137,cs),
(1292,327,o),
(1025,480,o),
(738,480,cs),
(478,480,o),
(233,354,o),
(233,138,cs),
(233,43,o),
(281,-20,o),
(392,-20,cs)
);
}
);
};
layerId = "D1C7AB36-496C-4CC7-8709-3C5F435BDB78";
name = "11 Jul 21 11.51";
shapes = (
{
closed = 1;
nodes = (
(465,-20,o),
(509,263,o),
(509,468,cs),
(509,703,o),
(451,950,o),
(259,950,cs),
(150,950,o),
(85,871,o),
(85,751,cs),
(85,663,o),
(120,582,o),
(172,522,c),
(229,558,l),
(187,617,o),
(171,660,o),
(171,694,cs),
(171,739,o),
(202,770,o),
(262,770,cs),
(368,770,o),
(429,677,o),
(429,447,cs),
(429,223,o),
(370,60,o),
(258,60,cs),
(217,60,o),
(199,82,o),
(199,130,cs),
(199,291,o),
(398,350,o),
(611,350,cs),
(839,350,o),
(1100,282,o),
(1100,147,cs),
(1100,98,o),
(1065,60,o),
(966,60,cs),
(777,60,o),
(688,200,o),
(688,416,cs),
(688,681,o),
(822,770,o),
(1083,770,cs),
(1371,770,o),
(1510,661,o),
(1510,431,cs),
(1510,0,l),
(1590,0,l),
(1590,431,ls),
(1590,781,o),
(1441,950,o),
(1104,950,cs),
(787,950,o),
(608,801,o),
(608,448,cs),
(608,188,o),
(705,-20,o),
(964,-20,cs),
(1106,-20,o),
(1190,42,o),
(1190,159,cs),
(1190,355,o),
(957,530,o),
(635,530,cs),
(336,530,o),
(119,379,o),
(119,144,cs),
(119,29,o),
(171,-20,o),
(257,-20,cs)
);
}
);
width = 1770;
}
);
note = uniA98F;
unicode = 6950;
},
{
glyphname = "naRambat-bali";
lastChange = "2021-11-22 07:35:04 +0000";
layers = (
{
anchors = (
{
name = bottom;
pos = (2001,0);
},
{
name = top;
pos = (2001,940);
}
);
background = {
shapes = (
{
closed = 1;
nodes = (
(728,0,l),
(635,138,o),
(618,291,o),
(618,430,cs),
(618,673,o),
(674,770,o),
(830,770,cs),
(949,770,o),
(1025,713,o),
(1025,571,c),
(1085,571,l),
(1085,842,o),
(990,950,o),
(836,950,cs),
(654,950,o),
(538,804,o),
(538,433,cs),
(538,364,o),
(542,264,o),
(568,175,c),
(433,176,o),
(377,233,o),
(377,373,cs),
(377,526,o),
(443,628,o),
(443,760,cs),
(443,862,o),
(404,950,o),
(282,950,cs),
(129,950,o),
(63,812,o),
(111,518,c),
(178,528,l),
(153,713,o),
(174,784,o),
(260,784,cs),
(326,784,o),
(343,742,o),
(343,680,cs),
(343,567,o),
(288,462,o),
(288,320,cs),
(288,151,o),
(365,0,o),
(637,0,cs)
);
},
{
closed = 1;
nodes = (
(1491,0,ls),
(1726,0,o),
(1791,211,o),
(1791,464,cs),
(1791,585,o),
(1776,671,o),
(1746,761,c),
(1872,756,o),
(1920,661,o),
(1920,512,cs),
(1920,0,l),
(2000,0,l),
(2000,512,ls),
(2000,763,o),
(1946,940,o),
(1583,940,c),
(1668,785,o),
(1711,643,o),
(1711,450,cs),
(1711,255,o),
(1668,177,o),
(1560,175,c),
(1586,271,o),
(1590,380,o),
(1590,448,cs),
(1590,814,o),
(1471,950,o),
(1294,950,cs),
(1139,950,o),
(1045,845,o),
(1045,571,c),
(1105,571,l),
(1105,714,o),
(1179,770,o),
(1298,770,cs),
(1448,770,o),
(1510,681,o),
(1510,443,cs),
(1510,318,o),
(1493,144,o),
(1400,0,c)
);
}
);
};
layerId = m01;
shapes = (
{
closed = 1;
nodes = (
(450,738,o),
(511,787,o),
(621,787,cs),
(838,787,o),
(775,597,o),
(955,597,cs),
(1135,597,o),
(1079,787,o),
(1285,787,cs),
(1482,787,o),
(1511,612,o),
(1511,455,cs),
(1511,335,o),
(1494,151,o),
(1401,0,c),
(1492,0,ls),
(1727,0,o),
(1792,211,o),
(1792,464,cs),
(1792,585,o),
(1777,671,o),
(1747,761,c),
(1873,756,o),
(1921,661,o),
(1921,512,cs),
(1921,0,l),
(2001,0,l),
(2001,512,ls),
(2001,763,o),
(1947,940,o),
(1584,940,c),
(1669,785,o),
(1712,643,o),
(1712,450,cs),
(1712,255,o),
(1669,177,o),
(1561,175,c),
(1587,278,o),
(1591,396,o),
(1591,466,cs),
(1591,704,o),
(1545,957,o),
(1284,957,cs),
(1063,957,o),
(1122,777,o),
(948,777,cs),
(774,777,o),
(834,957,o),
(621,957,cs),
(454,957,o),
(381,847,o),
(381,684,cs),
(381,628,o),
(358,584,o),
(267,584,cs),
(157,584,o),
(127,648,o),
(180,873,c),
(116,888,l),
(16,531,o),
(122,418,o),
(270,418,cs),
(407,418,o),
(450,517,o),
(450,624,cs)
);
}
);
width = 2186;
}
);
metricRight = "ha-bali";
unicode = 6945;
},
{
glyphname = "ca-bali";
lastChange = "2021-11-21 03:05:06 +0000";
layers = (
{
anchors = (
{
name = bottom;
pos = (1440,0);
},
{
name = top;
pos = (830,940);
}
);
background = {
shapes = (
{
closed = 1;
nodes = (
(1174,-10,o),
(1260,156,o),
(1260,391,cs),
(1260,659,o),
(1149,765,o),
(911,804,c),
(963,697,l),
(1026,741,o),
(1091,761,o),
(1162,761,cs),
(1312,761,o),
(1360,672,o),
(1360,530,cs),
(1360,0,l),
(1440,0,l),
(1440,550,ls),
(1440,797,o),
(1381,940,o),
(1166,940,cs),
(1012,940,o),
(893,866,o),
(810,720,c),
(830,680,l),
(1062,685,o),
(1180,605,o),
(1180,399,cs),
(1180,214,o),
(1084,175,o),
(1012,175,cs),
(812,175,o),
(794,480,o),
(529,480,cs),
(355,480,o),
(199,348,o),
(199,149,cs),
(199,38,o),
(248,-20,o),
(340,-20,cs),
(544,-20,o),
(589,263,o),
(589,469,cs),
(589,703,o),
(531,950,o),
(339,950,cs),
(230,950,o),
(165,871,o),
(165,751,cs),
(165,663,o),
(200,582,o),
(252,522,c),
(309,558,l),
(267,617,o),
(251,660,o),
(251,694,cs),
(251,739,o),
(282,770,o),
(342,770,cs),
(447,770,o),
(509,678,o),
(509,449,cs),
(509,224,o),
(449,60,o),
(343,60,cs),
(297,60,o),
(279,91,o),
(279,135,cs),
(279,251,o),
(405,300,o),
(486,300,cs),
(690,300,o),
(693,-10,o),
(971,-10,cs)
);
}
);
};
layerId = m01;
shapes = (
{
closed = 1;
nodes = (
(544,-20,o),
(589,263,o),
(589,469,cs),
(589,703,o),
(531,950,o),
(339,950,cs),
(230,950,o),
(165,871,o),
(165,751,cs),
(165,663,o),
(200,582,o),
(252,522,c),
(309,558,l),
(267,617,o),
(251,660,o),
(251,694,cs),
(251,739,o),
(282,770,o),
(342,770,cs),
(447,770,o),
(509,678,o),
(509,449,cs),
(509,224,o),
(449,60,o),
(343,60,cs),
(297,60,o),
(279,91,o),
(279,135,cs),
(279,251,o),
(405,300,o),
(486,300,cs),
(690,300,o),
(694,-10,o),
(970,-10,cs),
(1174,-10,o),
(1260,160,o),
(1260,393,cs),
(1260,656,o),
(1151,765,o),
(911,804,c),
(963,697,l),
(1026,741,o),
(1090,761,o),
(1162,761,cs),
(1312,761,o),
(1360,673,o),
(1360,540,cs),
(1360,0,l),
(1440,0,l),
(1440,610,ls),
(1440,792,o),
(1391,940,o),
(1173,940,cs),
(1011,940,o),
(876,858,o),
(810,690,c),
(1055,695,o),
(1180,612,o),
(1180,399,cs),
(1180,213,o),
(1084,175,o),
(1013,175,cs),
(811,175,o),
(796,480,o),
(530,480,cs),
(355,480,o),
(199,348,o),
(199,149,cs),
(199,38,o),
(248,-20,o),
(340,-20,cs)
);
}
);
width = 1660;
},
{
anchors = (
{
name = bottom;
pos = (1380,0);
},
{
name = top;
pos = (770,940);
}
);
associatedMasterId = m01;
layerId = "97F7F28E-9F6B-484B-B941-42C4213524D3";
name = "2 Aug 21 09.23";
shapes = (
{
closed = 1;
nodes = (
(1114,-10,o),
(1200,156,o),
(1200,391,cs),
(1200,659,o),
(1089,765,o),
(851,804,c),
(903,697,l),
(966,741,o),
(1031,761,o),
(1102,761,cs),
(1252,761,o),
(1300,672,o),
(1300,530,cs),
(1300,0,l),
(1380,0,l),
(1380,550,ls),
(1380,797,o),
(1321,940,o),
(1106,940,cs),
(952,940,o),
(833,866,o),
(750,720,c),
(770,680,l),
(1002,685,o),
(1120,605,o),
(1120,399,cs),
(1120,214,o),
(1024,175,o),
(952,175,cs),
(752,175,o),
(734,480,o),
(469,480,cs),
(295,480,o),
(139,348,o),
(139,149,cs),
(139,38,o),
(188,-20,o),
(280,-20,cs),
(484,-20,o),
(529,263,o),
(529,469,cs),
(529,703,o),
(471,950,o),
(279,950,cs),
(170,950,o),
(105,871,o),
(105,751,cs),
(105,663,o),
(140,582,o),
(192,522,c),
(249,558,l),
(207,617,o),
(191,660,o),
(191,694,cs),
(191,739,o),
(222,770,o),
(282,770,cs),
(387,770,o),
(449,678,o),
(449,449,cs),
(449,224,o),
(389,60,o),
(283,60,cs),
(237,60,o),
(219,91,o),
(219,135,cs),
(219,251,o),
(345,300,o),
(426,300,cs),
(630,300,o),
(633,-10,o),
(911,-10,cs)
);
}
);
width = 1540;
}
);
metricLeft = "na-bali";
metricRight = "na-bali";
unicode = 6936;
},
{
glyphname = "caLaca-bali";
lastChange = "2021-11-21 03:05:06 +0000";
layers = (
{
background = {
shapes = (
{
pos = (18,0);
ref = "nga-bali";
}
);
};
layerId = m01;
shapes = (
{
closed = 1;
nodes = (
(177,275,o),
(195,175,o),
(300,175,cs),
(382,175,o),
(424,237,o),
(394,341,c),
(458,357,l),
(513,176,o),
(450,-10,o),
(294,-10,cs),
(151,-10,o),
(96,145,o),
(96,433,cs),
(96,462,ls),
(96,776,o),
(184,950,o),
(477,950,cs),
(830,950,o),
(830,697,o),
(830,532,cs),
(830,398,ls),
(830,252,o),
(882,175,o),
(1103,175,cs),
(1327,175,o),
(1381,254,o),
(1381,398,cs),
(1381,940,l),
(1661,940,o),
(1700,792,o),
(1700,582,cs),
(1700,0,l),
(1620,0,l),
(1620,582,ls),
(1620,689,o),
(1604,757,o),
(1461,761,c),
(1461,428,ls),
(1461,248,o),
(1461,-10,o),
(1104,-10,cs),
(750,-10,o),
(750,244,o),
(750,428,cs),
(750,532,ls),
(750,684,o),
(690,765,o),
(472,765,cs),
(251,765,o),
(177,681,o),
(177,462,cs),
(177,433,ls)
);
}
);
width = 1849;
}
);
metricRight = "la-bali";
unicode = 6937;
},
{
glyphname = "ra-bali";
lastChange = "2021-11-21 03:05:06 +0000";
layers = (
{
anchors = (
{
name = bottom;
pos = (1590,0);
},
{
name = top;
pos = (885,940);
}
);
background = {
shapes = (
{
ref = "na-bali";
}
);
};
layerId = m01;
shapes = (
{
closed = 1;
nodes = (
(788,0,l),
(693,133,o),
(678,292,o),
(678,389,cs),
(678,676,o),
(808,770,o),
(1089,770,cs),
(1375,770,o),
(1510,672,o),
(1510,431,cs),
(1510,0,l),
(1590,0,l),
(1590,431,ls),
(1590,789,o),
(1448,950,o),
(1114,950,cs),
(790,950,o),
(598,800,o),
(598,408,cs),
(598,351,o),
(602,257,o),
(628,175,c),
(451,177,o),
(377,229,o),
(377,379,cs),
(377,520,o),
(443,630,o),
(443,761,cs),
(443,862,o),
(404,950,o),
(282,950,cs),
(129,950,o),
(63,812,o),
(111,518,c),
(178,528,l),
(153,713,o),
(174,784,o),
(260,784,cs),
(326,784,o),
(343,742,o),
(343,680,cs),
(343,568,o),
(288,459,o),
(288,323,cs),
(288,150,o),
(378,0,o),
(697,0,cs)
);
}
);
width = 1770;
}
);
metricRight = "na-java";
unicode = 6957;
},
{
glyphname = "ka-bali";
lastChange = "2021-11-21 03:05:06 +0000";
layers = (
{
anchors = (
{
name = bottom;
pos = (2075,0);
},
{
name = top;
pos = (1148,940);
}
);
background = {
shapes = (
{
closed = 1;
nodes = (
(505,-20,o),
(549,263,o),
(549,468,cs),
(549,703,o),
(491,950,o),
(299,950,cs),
(190,950,o),
(125,871,o),
(125,751,cs),
(125,663,o),
(160,582,o),
(212,522,c),
(269,558,l),
(227,617,o),
(211,660,o),
(211,694,cs),
(211,739,o),
(242,770,o),
(302,770,cs),
(408,770,o),
(469,677,o),
(469,447,cs),
(469,223,o),
(410,60,o),
(298,60,cs),
(257,60,o),
(239,82,o),
(239,129,cs),
(239,291,o),
(449,350,o),
(674,350,cs),
(916,350,o),
(1190,282,o),
(1190,147,cs),
(1190,98,o),
(1153,60,o),
(1056,60,cs),
(881,60,o),
(728,182,o),
(728,436,cs),
(728,674,o),
(862,770,o),
(1127,770,cs),
(1411,770,o),
(1550,660,o),
(1550,431,cs),
(1550,196,ls),
(1550,58,o),
(1588,0,o),
(1701,0,cs),
(1801,0,l),
(1801,761,l),
(1944,757,o),
(1960,689,o),
(1960,582,cs),
(1960,0,l),
(2040,0,l),
(2040,582,ls),
(2040,792,o),
(2001,940,o),
(1721,940,c),
(1721,108,l),
(1692,108,ls),
(1640,108,o),
(1630,135,o),
(1630,196,cs),
(1630,431,ls),
(1630,779,o),
(1481,950,o),
(1148,950,cs),
(827,950,o),
(648,792,o),
(648,471,cs),
(648,178,o),
(798,-20,o),
(1053,-20,cs),
(1195,-20,o),
(1280,42,o),
(1280,158,cs),
(1280,355,o),
(1037,530,o),
(700,530,cs),
(388,530,o),
(159,380,o),
(159,142,cs),
(159,29,o),
(211,-20,o),
(297,-20,cs)
);
}
);
};
layerId = m01;
shapes = (
{
closed = 1;
nodes = (
(540,-20,o),
(584,263,o),
(584,468,cs),
(584,703,o),
(526,950,o),
(334,950,cs),
(225,950,o),
(160,871,o),
(160,751,cs),
(160,663,o),
(195,582,o),
(247,522,c),
(304,558,l),
(262,617,o),
(246,660,o),
(246,694,cs),
(246,739,o),
(277,770,o),
(337,770,cs),
(443,770,o),
(504,677,o),
(504,447,cs),
(504,223,o),
(445,60,o),
(333,60,cs),
(292,60,o),
(274,82,o),
(274,129,cs),
(274,291,o),
(484,350,o),
(709,350,cs),
(951,350,o),
(1225,282,o),
(1225,147,cs),
(1225,98,o),
(1188,60,o),
(1091,60,cs),
(916,60,o),
(763,182,o),
(763,436,cs),
(763,674,o),
(897,770,o),
(1163,770,cs),
(1451,770,o),
(1585,658,o),
(1585,415,cs),
(1585,301,o),
(1556,121,o),
(1475,0,c),
(1566,0,ls),
(1801,0,o),
(1866,211,o),
(1866,464,cs),
(1866,585,o),
(1852,671,o),
(1822,761,c),
(1947,756,o),
(1995,661,o),
(1995,512,cs),
(1995,0,l),
(2075,0,l),
(2075,512,ls),
(2075,763,o),
(2021,940,o),
(1658,940,c),
(1743,785,o),
(1786,643,o),
(1786,450,cs),
(1786,255,o),
(1742,177,o),
(1631,175,c),
(1659,271,o),
(1665,380,o),
(1665,447,cs),
(1665,783,o),
(1515,950,o),
(1184,950,cs),
(862,950,o),
(683,792,o),
(683,471,cs),
(683,178,o),
(833,-20,o),
(1088,-20,cs),
(1230,-20,o),
(1315,42,o),
(1315,158,cs),
(1315,355,o),
(1072,530,o),
(735,530,cs),
(423,530,o),
(194,380,o),
(194,142,cs),
(194,29,o),
(246,-20,o),
(332,-20,cs)
);
}
);
width = 2260;
},
{
anchors = (
{
name = cerek;
pos = (1146,0);
}
);
associatedMasterId = m01;
background = {
shapes = (
{
closed = 1;
nodes = (
(2122,-1333,o),
(2240,-892,o),
(2240,-260,cs),
(2240,5,l),
(2060,5,l),
(2060,-260,ls),
(2060,-1271,o),
(1610,-1539,o),
(659,-1989,c),
(689,-2056,l),
(1168,-1814,ls)
);
},
{
closed = 0;
nodes = (
(1040,-1633,ls),
(1554,-1404,o),
(1760,-1266,o),
(1760,-760,cs),
(1760,-360,l),
(1680,-360,l),
(1680,-760,ls),
(1680,-1232,o),
(1489,-1353,o),
(1010,-1566,cs)
);
}
);
};
layerId = "55AB0169-558E-4AE7-A1E0-21B418893310";
name = "14 May 21 19.25";
shapes = (
{
closed = 1;
nodes = (
(622,-20,o),
(669,254,o),
(669,464,cs),
(669,733,o),
(592,940,o),
(335,940,cs),
(159,940,o),
(65,843,o),
(65,679,cs),
(65,572,o),
(105,481,o),
(228,442,c),
(261,508,l),
(169,533,o),
(145,607,o),
(145,682,cs),
(145,805,o),
(209,860,o),
(310,860,cs),
(448,860,o),
(509,758,o),
(509,458,cs),
(509,212,o),
(468,80,o),
(367,80,cs),
(326,80,o),
(309,102,o),
(309,149,cs),
(309,326,o),
(551,400,o),
(742,400,cs),
(940,400,o),
(1139,320,o),
(1139,153,cs),
(1139,101,o),
(1120,80,o),
(1083,80,cs),
(994,80,o),
(939,202,o),
(939,433,cs),
(939,764,o),
(1052,860,o),
(1247,860,cs),
(1419,860,o),
(1529,784,o),
(1529,452,cs),
(1529,224,o),
(1479,88,o),
(1379,0,c),
(1519,0,ls),
(1801,0,o),
(1889,135,o),
(1889,488,cs),
(1889,664,o),
(1867,795,o),
(1828,860,c),
(1909,860,ls),
(2013,860,o),
(2059,818,o),
(2059,694,cs),
(2059,0,l),
(2239,0,l),
(2239,694,ls),
(2239,867,o),
(2149,940,o),
(1909,940,cs),
(1680,940,l),
(1771,851,o),
(1809,727,o),
(1809,483,cs),
(1809,233,o),
(1765,76,o),
(1586,76,c),
(1657,134,o),
(1709,243,o),
(1709,446,cs),
(1709,777,o),
(1585,940,o),
(1280,940,cs),
(1019,940,o),
(859,820,o),
(859,448,cs),
(859,184,o),
(941,-20,o),
(1117,-20,cs),
(1201,-20,o),
(1279,26,o),
(1279,135,cs),
(1279,327,o),
(1040,480,o),
(752,480,cs),
(493,480,o),
(219,357,o),
(219,132,cs),
(219,31,o),
(275,-20,o),
(379,-20,cs)
);
}
);
width = 2429;
},
{
anchors = (
{
name = cerek;
pos = (1146,0);
}
);
associatedMasterId = m01;
background = {
shapes = (
{
closed = 1;
nodes = (
(622,-20,o),
(669,254,o),
(669,464,cs),
(669,733,o),
(592,940,o),
(335,940,cs),
(159,940,o),
(65,843,o),
(65,679,cs),
(65,572,o),
(105,481,o),
(228,442,c),
(261,508,l),
(169,533,o),
(145,607,o),
(145,682,cs),
(145,805,o),
(209,860,o),
(310,860,cs),
(448,860,o),
(509,758,o),
(509,458,cs),
(509,212,o),
(468,80,o),
(367,80,cs),
(326,80,o),
(309,102,o),
(309,149,cs),
(309,326,o),
(551,400,o),
(742,400,cs),
(940,400,o),
(1139,320,o),
(1139,153,cs),
(1139,101,o),
(1120,80,o),
(1083,80,cs),
(994,80,o),
(939,202,o),
(939,433,cs),
(939,764,o),
(1052,860,o),
(1247,860,cs),
(1419,860,o),
(1529,784,o),
(1529,452,cs),
(1529,224,o),
(1479,88,o),
(1379,0,c),
(1519,0,ls),
(1801,0,o),
(1889,135,o),
(1889,488,cs),
(1889,664,o),
(1867,795,o),
(1828,860,c),
(1909,860,ls),
(2013,860,o),
(2059,818,o),
(2059,694,cs),
(2059,0,l),
(2239,0,l),
(2239,694,ls),
(2239,867,o),
(2149,940,o),
(1909,940,cs),
(1680,940,l),
(1771,851,o),
(1809,727,o),
(1809,483,cs),
(1809,233,o),
(1765,76,o),
(1586,76,c),
(1657,134,o),
(1709,243,o),
(1709,446,cs),
(1709,777,o),
(1585,940,o),
(1280,940,cs),
(1019,940,o),
(859,820,o),
(859,448,cs),
(859,184,o),
(941,-20,o),
(1117,-20,cs),
(1201,-20,o),
(1279,26,o),
(1279,135,cs),
(1279,327,o),
(1040,480,o),
(752,480,cs),
(493,480,o),
(219,357,o),
(219,132,cs),
(219,31,o),
(275,-20,o),
(379,-20,cs)
);
}
);
};
layerId = "75BBC503-F3AB-4380-B96C-21D4ADCDAA5A";
name = "3 Jun 21 03.17";
shapes = (
{
closed = 1;
nodes = (
(619,-20,o),
(669,254,o),
(669,467,cs),
(669,738,o),
(592,950,o),
(335,950,cs),
(159,950,o),
(65,849,o),
(65,679,cs),
(65,572,o),
(105,481,o),
(228,442,c),
(261,508,l),
(169,533,o),
(145,607,o),
(145,682,cs),
(145,812,o),
(209,870,o),
(310,870,cs),
(448,870,o),
(509,765,o),
(509,460,cs),
(509,212,o),
(467,80,o),
(370,80,cs),
(330,80,o),
(309,102,o),
(309,152,cs),
(309,318,o),
(540,400,o),
(743,400,cs),
(954,400,o),
(1140,312,o),
(1140,164,cs),
(1140,105,o),
(1111,80,o),
(1053,80,cs),
(926,80,o),
(848,199,o),
(848,443,cs),
(848,767,o),
(979,870,o),
(1206,870,cs),
(1404,870,o),
(1530,792,o),
(1530,443,cs),
(1530,226,o),
(1478,85,o),
(1380,0,c),
(1520,0,ls),
(1802,0,o),
(1890,135,o),
(1890,488,cs),
(1890,664,o),
(1868,795,o),
(1829,860,c),
(1910,860,ls),
(2014,860,o),
(2060,818,o),
(2060,694,cs),
(2060,0,l),
(2240,0,l),
(2240,694,ls),
(2240,867,o),
(2150,940,o),
(1910,940,cs),
(1681,940,l),
(1772,851,o),
(1810,726,o),
(1810,487,cs),
(1810,233,o),
(1766,76,o),
(1587,76,c),
(1658,134,o),
(1710,243,o),
(1710,446,cs),
(1710,784,o),
(1572,950,o),
(1237,950,cs),
(945,950,o),
(768,824,o),
(768,456,cs),
(768,185,o),
(868,-20,o),
(1085,-20,cs),
(1208,-20,o),
(1280,46,o),
(1280,146,cs),
(1280,331,o),
(1031,480,o),
(746,480,cs),
(486,480,o),
(229,356,o),
(229,136,cs),
(229,30,o),
(288,-20,o),
(387,-20,cs)
);
}
);
width = 2420;
},
{
anchors = (
{
name = cerek;
pos = (1176,0);
}
);
associatedMasterId = m01;
background = {
shapes = (
{
closed = 1;
nodes = (
(649,-20,o),
(699,254,o),
(699,467,cs),
(699,738,o),
(622,950,o),
(365,950,cs),
(189,950,o),
(95,849,o),
(95,679,cs),
(95,572,o),
(135,481,o),
(258,442,c),
(291,508,l),
(199,533,o),
(175,607,o),
(175,682,cs),
(175,812,o),
(239,870,o),
(340,870,cs),
(478,870,o),
(539,765,o),
(539,460,cs),
(539,212,o),
(497,80,o),
(400,80,cs),
(360,80,o),
(339,102,o),
(339,152,cs),
(339,318,o),
(570,400,o),
(773,400,cs),
(984,400,o),
(1170,312,o),
(1170,164,cs),
(1170,105,o),
(1141,80,o),
(1083,80,cs),
(956,80,o),
(878,199,o),
(878,443,cs),
(878,767,o),
(1009,870,o),
(1236,870,cs),
(1434,870,o),
(1560,792,o),
(1560,443,cs),
(1560,226,o),
(1508,85,o),
(1410,0,c),
(1550,0,ls),
(1832,0,o),
(1920,135,o),
(1920,488,cs),
(1920,664,o),
(1898,795,o),
(1859,860,c),
(1940,860,ls),
(2044,860,o),
(2090,818,o),
(2090,694,cs),
(2090,0,l),
(2270,0,l),
(2270,694,ls),
(2270,867,o),
(2180,940,o),
(1940,940,cs),
(1711,940,l),
(1802,851,o),
(1840,726,o),
(1840,487,cs),
(1840,233,o),
(1796,76,o),
(1617,76,c),
(1688,134,o),
(1740,243,o),
(1740,446,cs),
(1740,784,o),
(1602,950,o),
(1267,950,cs),
(975,950,o),
(798,824,o),
(798,456,cs),
(798,185,o),
(898,-20,o),
(1115,-20,cs),
(1238,-20,o),
(1310,46,o),
(1310,146,cs),
(1310,331,o),
(1061,480,o),
(776,480,cs),
(516,480,o),
(259,356,o),
(259,136,cs),
(259,30,o),
(318,-20,o),
(417,-20,cs)
);
}
);
};
layerId = "9F60A35F-7BA4-4FAD-8584-311E6F3C322C";
name = "13 Jun 21 14.49";
shapes = (
{
closed = 1;
nodes = (
(1719,-10,o),
(1785,78,o),
(1785,382,cs),
(1785,546,o),
(1765,663,o),
(1734,761,c),
(1848,756,o),
(1884,652,o),
(1884,472,cs),
(1884,0,l),
(1964,0,l),
(1964,472,ls),
(1964,754,o),
(1924,940,o),
(1577,940,c),
(1665,757,o),
(1705,600,o),
(1705,364,cs),
(1705,213,o),
(1689,98,o),
(1616,98,cs),
(1564,98,o),
(1554,156,o),
(1554,295,cs),
(1554,472,ls),
(1554,658,o),
(1554,950,o),
(1101,950,cs),
(744,950,o),
(617,767,o),
(617,500,cs),
(617,125,o),
(866,-10,o),
(1058,-10,cs),
(1191,-10,o),
(1272,54,o),
(1272,177,cs),
(1272,415,o),
(967,533,o),
(691,533,cs),
(359,533,o),
(168,363,o),
(168,151,cs),
(168,44,o),
(216,-10,o),
(298,-10,cs),
(431,-10,o),
(489,134,o),
(492,468,cs),
(495,803,o),
(438,950,o),
(288,950,cs),
(153,950,o),
(80,836,o),
(80,608,c),
(148,608,l),
(152,713,o),
(175,784,o),
(265,784,cs),
(378,784,o),
(412,674,o),
(412,422,cs),
(412,145,o),
(370,65,o),
(301,65,cs),
(265,65,o),
(246,87,o),
(246,137,cs),
(246,303,o),
(455,368,o),
(673,368,cs),
(933,368,o),
(1178,275,o),
(1178,141,cs),
(1178,83,o),
(1132,66,o),
(1065,66,cs),
(867,66,o),
(696,216,o),
(696,479,cs),
(696,673,o),
(789,765,o),
(1079,765,cs),
(1386,765,o),
(1473,662,o),
(1473,472,cs),
(1473,277,ls),
(1473,78,o),
(1511,-10,o),
(1615,-10,cs)
);
}
);
width = 2144;
},
{
associatedMasterId = m01;
background = {
shapes = (
{
closed = 1;
nodes = (
(461,-20,o),
(505,263,o),
(505,468,cs),
(505,703,o),
(447,950,o),
(255,950,cs),
(146,950,o),
(81,871,o),
(81,751,cs),
(81,663,o),
(116,582,o),
(168,522,c),
(225,558,l),
(183,617,o),
(167,660,o),
(167,694,cs),
(167,739,o),
(198,770,o),
(258,770,cs),
(364,770,o),
(425,677,o),
(425,447,cs),
(425,223,o),
(366,60,o),
(254,60,cs),
(213,60,o),
(195,82,o),
(195,130,cs),
(195,291,o),
(394,350,o),
(607,350,cs),
(835,350,o),
(1096,282,o),
(1096,147,cs),
(1096,98,o),
(1061,60,o),
(962,60,cs),
(773,60,o),
(684,200,o),
(684,416,cs),
(684,681,o),
(818,770,o),
(1079,770,cs),
(1367,770,o),
(1506,661,o),
(1506,417,cs),
(1506,240,o),
(1433,83,o),
(1326,0,c),
(1406,0,ls),
(1682,0,o),
(1766,144,o),
(1766,477,cs),
(1766,611,o),
(1753,700,o),
(1732,760,c),
(1766,760,ls),
(1856,760,o),
(1896,729,o),
(1896,524,cs),
(1896,0,l),
(1976,0,l),
(1976,544,ls),
(1976,823,o),
(1912,940,o),
(1666,940,cs),
(1557,940,l),
(1641,844,o),
(1686,704,o),
(1686,467,cs),
(1686,232,o),
(1642,76,o),
(1493,76,c),
(1541,149,o),
(1586,264,o),
(1586,441,cs),
(1586,764,o),
(1437,950,o),
(1093,950,cs),
(783,950,o),
(604,799,o),
(604,447,cs),
(604,188,o),
(701,-20,o),
(960,-20,cs),
(1102,-20,o),
(1186,42,o),
(1186,159,cs),
(1186,355,o),
(953,530,o),
(631,530,cs),
(332,530,o),
(115,379,o),
(115,144,cs),
(115,29,o),
(167,-20,o),
(253,-20,cs)
);
}
);
};
layerId = "6DFDB8D6-C181-4836-B7B7-BC9E285A4656";
name = "11 Jul 21 19.18";
shapes = (
{
closed = 1;
nodes = (
(465,-20,o),
(509,263,o),
(509,468,cs),
(509,703,o),
(451,950,o),
(259,950,cs),
(150,950,o),
(85,871,o),
(85,751,cs),
(85,663,o),
(120,582,o),
(172,522,c),
(229,558,l),
(187,617,o),
(171,660,o),
(171,694,cs),
(171,739,o),
(202,770,o),
(262,770,cs),
(368,770,o),
(429,677,o),
(429,447,cs),
(429,223,o),
(370,60,o),
(258,60,cs),
(217,60,o),
(199,82,o),
(199,129,cs),
(199,291,o),
(409,350,o),
(634,350,cs),
(876,350,o),
(1150,282,o),
(1150,147,cs),
(1150,98,o),
(1113,60,o),
(1016,60,cs),
(841,60,o),
(688,182,o),
(688,436,cs),
(688,674,o),
(822,770,o),
(1087,770,cs),
(1371,770,o),
(1510,660,o),
(1510,431,cs),
(1510,196,ls),
(1510,58,o),
(1548,0,o),
(1661,0,cs),
(1761,0,l),
(1761,761,l),
(1904,757,o),
(1920,689,o),
(1920,582,cs),
(1920,0,l),
(2000,0,l),
(2000,582,ls),
(2000,792,o),
(1961,940,o),
(1681,940,c),
(1681,108,l),
(1652,108,ls),
(1600,108,o),
(1590,135,o),
(1590,196,cs),
(1590,431,ls),
(1590,779,o),
(1441,950,o),
(1108,950,cs),
(787,950,o),
(608,792,o),
(608,471,cs),
(608,178,o),
(758,-20,o),
(1013,-20,cs),
(1155,-20,o),
(1240,42,o),
(1240,158,cs),
(1240,355,o),
(997,530,o),
(660,530,cs),
(348,530,o),
(119,380,o),
(119,142,cs),
(119,29,o),
(171,-20,o),
(257,-20,cs)
);
}
);
width = 2180;
}
);
note = uniA98F;
unicode = 6931;
},
{
glyphname = "kaMahaprana-bali";
lastChange = "2021-11-21 03:05:06 +0000";
layers = (
{
anchors = (
{
name = cerek;
pos = (1225,0);
}
);
background = {
shapes = (
{
pos = (75,0);
ref = "ka-bali";
}
);
};
layerId = m01;
shapes = (
{
closed = 1;
nodes = (
(540,-20,o),
(584,263,o),
(584,468,cs),
(584,703,o),
(526,950,o),
(334,950,cs),
(225,950,o),
(160,871,o),
(160,751,cs),
(160,663,o),
(195,582,o),
(247,522,c),
(304,558,l),
(262,617,o),
(246,660,o),
(246,694,cs),
(246,739,o),
(277,770,o),
(337,770,cs),
(443,770,o),
(504,677,o),
(504,447,cs),
(504,223,o),
(445,60,o),
(333,60,cs),
(292,60,o),
(274,82,o),
(274,129,cs),
(274,291,o),
(484,350,o),
(709,350,cs),
(951,350,o),
(1225,282,o),
(1225,147,cs),
(1225,98,o),
(1188,60,o),
(1091,60,cs),
(916,60,o),
(763,182,o),
(763,436,cs),
(763,674,o),
(897,770,o),
(1162,770,cs),
(1446,770,o),
(1585,660,o),
(1585,431,cs),
(1585,269,l),
(1665,269,l),
(1665,431,ls),
(1665,779,o),
(1516,950,o),
(1183,950,cs),
(862,950,o),
(683,792,o),
(683,471,cs),
(683,178,o),
(833,-20,o),
(1088,-20,cs),
(1230,-20,o),
(1315,42,o),
(1315,158,cs),
(1315,355,o),
(1072,530,o),
(735,530,cs),
(423,530,o),
(194,380,o),
(194,142,cs),
(194,29,o),
(246,-20,o),
(332,-20,cs)
);
},
{
closed = 1;
nodes = (
(1665,151,o),
(1709,95,o),
(1907,93,cs),
(2086,91,o),
(2245,86,o),
(2280,-216,c),
(2200,-236,l),
(2143,-109,o),
(2086,-87,o),
(1906,-87,cs),
(1614,-87,o),
(1585,67,o),
(1585,269,c),
(1665,269,l)
);
}
);
width = 2255;
}
);
metricLeft = "ka-bali";
unicode = 6932;
},
{
glyphname = "kafSasak-bali";
lastChange = "2021-11-21 03:05:06 +0000";
layers = (
{
layerId = m01;
shapes = (
{
closed = 1;
nodes = (
(525,-20,o),
(564,263,o),
(564,468,cs),
(564,703,o),
(513,950,o),
(330,950,cs),
(226,950,o),
(160,871,o),
(160,751,cs),
(160,663,o),
(195,582,o),
(247,522,c),
(304,558,l),
(262,617,o),
(246,660,o),
(246,693,cs),
(246,739,o),
(278,770,o),
(334,770,cs),
(430,770,o),
(484,679,o),
(484,447,cs),
(484,222,o),
(433,60,o),
(330,60,cs),
(292,60,o),
(274,82,o),
(274,129,cs),
(274,291,o),
(480,350,o),
(719,350,cs),
(975,350,o),
(1285,282,o),
(1285,147,cs),
(1285,98,o),
(1245,60,o),
(1159,60,cs),
(1005,60,o),
(883,182,o),
(883,436,cs),
(883,676,o),
(993,770,o),
(1218,770,cs),
(1464,770,o),
(1585,658,o),
(1585,418,cs),
(1585,300,o),
(1556,121,o),
(1475,0,c),
(1566,0,ls),
(1801,0,o),
(1866,211,o),
(1866,464,cs),
(1866,585,o),
(1852,671,o),
(1822,761,c),
(1947,756,o),
(1995,661,o),
(1995,512,cs),
(1995,0,l),
(2075,0,l),
(2075,512,ls),
(2075,763,o),
(2021,940,o),
(1658,940,c),
(1743,785,o),
(1786,643,o),
(1786,450,cs),
(1786,255,o),
(1742,177,o),
(1631,175,c),
(1659,271,o),
(1665,379,o),
(1665,449,cs),
(1665,783,o),
(1529,950,o),
(1238,950,cs),
(955,950,o),
(803,792,o),
(803,470,cs),
(803,179,o),
(927,-20,o),
(1157,-20,cs),
(1285,-20,o),
(1375,42,o),
(1375,156,cs),
(1375,355,o),
(1103,530,o),
(747,530,cs),
(418,530,o),
(194,380,o),
(194,144,cs),
(194,29,o),
(247,-20,o),
(329,-20,cs)
);
},
{
closed = 1;
nodes = (
(1123,-470,o),
(1206,-335,o),
(1204,-104,c),
(1144,-104,l),
(1144,-280,o),
(1065,-315,o),
(960,-315,cs),
(754,-315,o),
(688,-182,o),
(688,121,cs),
(688,326,o),
(718,568,o),
(762,788,c),
(700,797,l),
(653,572,o),
(620,316,o),
(620,107,cs),
(620,-274,o),
(729,-470,o),
(944,-470,cs)
);
}
);
width = 2260;
}
);
metricLeft = "ka-bali";
metricRight = "ka-bali";
unicode = 6981;
},
{
glyphname = "khotSasak-bali";
lastChange = "2021-11-21 03:05:06 +0000";
layers = (
{
anchors = (
{
name = cerek;
pos = (1205,0);
}
);
layerId = m01;
shapes = (
{
closed = 1;
nodes = (
(540,-20,o),
(584,263,o),
(584,468,cs),
(584,703,o),
(526,950,o),
(334,950,cs),
(225,950,o),
(160,871,o),
(160,751,cs),
(160,663,o),
(195,582,o),
(247,522,c),
(304,558,l),
(262,617,o),
(246,660,o),
(246,694,cs),
(246,739,o),
(277,770,o),
(337,770,cs),
(442,770,o),
(504,678,o),
(504,449,cs),
(504,223,o),
(444,60,o),
(337,60,cs),
(289,60,o),
(274,92,o),
(274,134,cs),
(274,289,o),
(484,350,o),
(711,350,cs),
(950,350,o),
(1225,282,o),
(1225,147,cs),
(1225,98,o),
(1188,60,o),
(1091,60,cs),
(916,60,o),
(763,182,o),
(763,436,cs),
(763,674,o),
(897,770,o),
(1162,770,cs),
(1446,770,o),
(1585,660,o),
(1585,431,cs),
(1585,321,l),
(1665,386,l),
(1665,431,ls),
(1665,779,o),
(1516,950,o),
(1183,950,cs),
(862,950,o),
(683,792,o),
(683,471,cs),
(683,178,o),
(833,-20,o),
(1088,-20,cs),
(1230,-20,o),
(1315,42,o),
(1315,158,cs),
(1315,355,o),
(1072,530,o),
(735,530,cs),
(423,530,o),
(194,380,o),
(194,142,cs),
(194,29,o),
(246,-20,o),
(332,-20,cs)
);
},
{
closed = 1;
nodes = (
(2857,312,o),
(2832,137,o),
(2747,0,c),
(2838,0,ls),
(3073,0,o),
(3138,211,o),
(3138,464,cs),
(3138,585,o),
(3124,671,o),
(3094,761,c),
(3219,756,o),
(3267,661,o),
(3267,512,cs),
(3267,0,l),
(3347,0,l),
(3347,512,ls),
(3347,763,o),
(3293,940,o),
(2930,940,c),
(3015,785,o),
(3058,643,o),
(3058,450,cs),
(3058,255,o),
(3014,177,o),
(2903,175,c),
(2931,271,o),
(2937,380,o),
(2937,447,cs),
(2937,661,o),
(2937,950,o),
(2624,950,cs),
(2395,950,o),
(2323,795,o),
(2323,532,cs),
(2323,398,ls),
(2323,253,o),
(2250,175,o),
(1984,175,cs),
(1753,175,o),
(1665,233,o),
(1665,386,c),
(1585,321,l),
(1585,144,o),
(1668,-10,o),
(1973,-10,cs),
(2404,-10,o),
(2404,286,o),
(2404,428,cs),
(2404,532,ls),
(2404,689,o),
(2465,765,o),
(2624,765,cs),
(2812,765,o),
(2857,658,o),
(2857,460,cs)
);
}
);
width = 3532;
}
);
metricLeft = "ka-bali";
metricRight = "ka-bali";
unicode = 6982;
},
{
glyphname = "da-bali";
lastChange = "2021-11-21 03:05:06 +0000";
layers = (
{
anchors = (
{
name = bottom;
pos = (1988,1100);
},
{
name = top;
pos = (1078,2050);
}
);
background = {
shapes = (
{
pos = (-31,0);
ref = "sa-bali";
}
);
};
layerId = m01;
shapes = (
{
closed = 1;
nodes = (
(286,175,o),
(256,207,o),
(256,252,cs),
(256,381,o),
(512,513,o),
(512,762,cs),
(512,855,o),
(476,950,o),
(355,950,cs),
(219,950,o),
(143,829,o),
(157,504,c),
(221,505,l),
(225,729,o),
(266,784,o),
(338,784,cs),
(400,784,o),
(412,743,o),
(412,702,cs),
(412,517,o),
(167,410,o),
(167,178,cs),
(167,83,o),
(208,-10,o),
(350,-10,cs),
(604,-10,o),
(666,290,o),
(900,290,cs),
(993,290,o),
(1139,242,o),
(1139,134,cs),
(1139,94,o),
(1119,60,o),
(1063,60,cs),
(957,60,o),
(857,184,o),
(857,428,cs),
(857,674,o),
(958,770,o),
(1166,770,cs),
(1390,770,o),
(1499,660,o),
(1499,431,cs),
(1499,0,l),
(1579,0,l),
(1579,431,ls),
(1579,780,o),
(1458,950,o),
(1185,950,cs),
(924,950,o),
(777,795,o),
(777,463,cs),
(777,181,o),
(883,-20,o),
(1066,-20,cs),
(1166,-20,o),
(1229,40,o),
(1229,147,cs),
(1229,320,o),
(1066,470,o),
(878,470,cs),
(615,470,o),
(554,175,o),
(352,175,cs)
);
}
);
width = 1799;
}
);
metricRight = "na-bali";
unicode = 6948;
},
{
glyphname = "daMadu-bali";
lastChange = "2021-11-21 03:05:06 +0000";
layers = (
{
background = {
shapes = (
{
closed = 0;
nodes = (
(1489,761,l),
(1598,756,o),
(1639,661,o),
(1639,512,cs),
(1639,0,l),
(1719,0,l),
(1719,512,ls),
(1719,763,o),
(1669,940,o),
(1332,940,c)
);
}
);
};
layerId = m01;
shapes = (
{
closed = 1;
nodes = (
(1460,294,o),
(1432,150,o),
(1268,150,cs),
(1035,150,o),
(1088,440,o),
(904,440,cs),
(719,440,o),
(776,150,o),
(539,150,cs),
(424,150,o),
(359,219,o),
(359,373,cs),
(359,528,o),
(425,625,o),
(425,763,cs),
(425,861,o),
(392,950,o),
(287,950,cs),
(171,950,o),
(68,842,o),
(160,498,c),
(225,508,l),
(165,721,o),
(202,784,o),
(263,784,cs),
(313,784,o),
(325,743,o),
(325,684,cs),
(325,558,o),
(270,472,o),
(270,313,cs),
(270,113,o),
(357,-20,o),
(516,-20,cs),
(746,-20,o),
(724,260,o),
(893,260,cs),
(1063,260,o),
(1044,-20,o),
(1282,-20,cs),
(1497,-20,o),
(1540,210,o),
(1540,379,cs),
(1540,648,o),
(1432,764,o),
(1190,804,c),
(1242,697,l),
(1305,741,o),
(1370,761,o),
(1441,761,cs),
(1591,761,o),
(1639,672,o),
(1639,530,cs),
(1639,0,l),
(1719,0,l),
(1719,550,ls),
(1719,794,o),
(1660,940,o),
(1449,940,cs),
(1291,940,o),
(1174,859,o),
(1089,690,c),
(1342,697,o),
(1460,594,o),
(1460,392,cs)
);
}
);
width = 1939;
}
);
metricRight = "nga-bali";
unicode = 6949;
},
{
glyphname = "daMurdaAlpaprana-bali";
lastChange = "2021-11-21 03:05:06 +0000";
layers = (
{
background = {
shapes = (
{
closed = 1;
nodes = (
(828,0,l),
(735,132,o),
(718,277,o),
(718,407,cs),
(718,667,o),
(786,770,o),
(950,770,cs),
(1072,770,o),
(1140,713,o),
(1140,571,c),
(1200,571,l),
(1200,842,o),
(1113,950,o),
(955,950,cs),
(768,950,o),
(638,798,o),
(638,416,cs),
(638,349,o),
(642,257,o),
(668,175,c),
(491,177,o),
(417,229,o),
(417,379,cs),
(417,520,o),
(483,630,o),
(483,761,cs),
(483,862,o),
(444,950,o),
(322,950,cs),
(169,950,o),
(103,812,o),
(151,518,c),
(218,528,l),
(193,713,o),
(214,784,o),
(300,784,cs),
(366,784,o),
(383,742,o),
(383,680,cs),
(383,568,o),
(328,459,o),
(328,323,cs),
(328,150,o),
(418,0,o),
(737,0,cs)
);
},
{
closed = 1;
nodes = (
(1642,0,l),
(1722,0,l),
(1722,431,ls),
(1722,804,o),
(1592,950,o),
(1405,950,cs),
(1247,950,o),
(1160,842,o),
(1160,571,c),
(1220,571,l),
(1220,713,o),
(1288,770,o),
(1409,770,cs),
(1564,770,o),
(1642,676,o),
(1642,431,cs)
);
}
);
};
layerId = m01;
shapes = (
{
closed = 1;
nodes = (
(746,-20,o),
(725,260,o),
(894,260,cs),
(1063,260,o),
(1048,-20,o),
(1280,-20,cs),
(1501,-20,o),
(1541,232,o),
(1541,449,cs),
(1541,606,o),
(1520,683,o),
(1490,761,c),
(1609,756,o),
(1640,661,o),
(1640,512,cs),
(1640,0,l),
(1720,0,l),
(1720,512,ls),
(1720,763,o),
(1670,940,o),
(1333,940,c),
(1415,790,o),
(1461,647,o),
(1461,457,cs),
(1461,324,o),
(1438,150,o),
(1264,150,cs),
(1040,150,o),
(1089,440,o),
(905,440,cs),
(720,440,o),
(777,150,o),
(540,150,cs),
(425,150,o),
(360,219,o),
(360,373,cs),
(360,528,o),
(426,625,o),
(426,763,cs),
(426,861,o),
(393,950,o),
(288,950,cs),
(172,950,o),
(69,842,o),
(161,498,c),
(226,508,l),
(166,721,o),
(203,784,o),
(264,784,cs),
(314,784,o),
(326,743,o),
(326,684,cs),
(326,558,o),
(271,472,o),
(271,313,cs),
(271,113,o),
(358,-20,o),
(517,-20,cs)
);
}
);
width = 1940;
}
);
metricRight = "nga-bali";
unicode = 6943;
},
{
glyphname = "daMurdaMahaprana-bali";
lastChange = "2021-11-21 03:05:06 +0000";
layers = (
{
layerId = m01;
shapes = (
{
closed = 1;
nodes = (
(746,-20,o),
(725,260,o),
(894,260,cs),
(1063,260,o),
(1047,-20,o),
(1280,-20,cs),
(1503,-20,o),
(1544,235,o),
(1544,435,cs),
(1544,658,o),
(1491,810,o),
(1409,953,c),
(1336,910,l),
(1417,769,o),
(1461,636,o),
(1461,455,cs),
(1461,324,o),
(1438,150,o),
(1264,150,cs),
(1040,150,o),
(1089,440,o),
(905,440,cs),
(720,440,o),
(777,150,o),
(540,150,cs),
(425,150,o),
(360,219,o),
(360,373,cs),
(360,528,o),
(426,625,o),
(426,763,cs),
(426,861,o),
(393,950,o),
(288,950,cs),
(172,950,o),
(69,842,o),
(161,498,c),
(226,508,l),
(166,721,o),
(203,784,o),
(264,784,cs),
(314,784,o),
(326,743,o),
(326,684,cs),
(326,558,o),
(271,472,o),
(271,313,cs),
(271,113,o),
(358,-20,o),
(517,-20,cs)
);
}
);
width = 1764;
}
);
metricRight = "nga-bali";
unicode = 6944;
},
{
glyphname = "ta-bali";
lastChange = "2021-11-21 03:05:06 +0000";
layers = (
{
anchors = (
{
name = bottom;
pos = (2035,0);
},
{
name = top;
pos = (1090,940);
}
);
background = {
shapes = (
{
ref = "ka-bali";
}
);
};
layerId = m01;
shapes = (
{
closed = 1;
nodes = (
(1152,-10,o),
(1242,172,o),
(1242,309,cs),
(1242,621,o),
(772,502,o),
(772,652,cs),
(772,724,o),
(880,765,o),
(1109,765,cs),
(1471,765,o),
(1545,662,o),
(1545,445,cs),
(1545,302,o),
(1513,123,o),
(1435,0,c),
(1526,0,ls),
(1761,0,o),
(1826,211,o),
(1826,464,cs),
(1826,585,o),
(1812,671,o),
(1782,761,c),
(1907,756,o),
(1955,661,o),
(1955,512,cs),
(1955,0,l),
(2035,0,l),
(2035,512,ls),
(2035,763,o),
(1981,940,o),
(1618,940,c),
(1703,785,o),
(1746,643,o),
(1746,450,cs),
(1746,255,o),
(1702,177,o),
(1591,175,c),
(1619,271,o),
(1625,380,o),
(1625,447,cs),
(1625,656,o),
(1624,950,o),
(1129,950,cs),
(807,950,o),
(691,825,o),
(691,661,cs),
(691,331,o),
(1161,450,o),
(1161,290,cs),
(1161,224,o),
(1082,175,o),
(805,175,cs),
(555,175,o),
(354,215,o),
(354,418,cs),
(354,535,o),
(420,636,o),
(420,767,cs),
(420,860,o),
(387,950,o),
(282,950,cs),
(166,950,o),
(63,842,o),
(155,498,c),
(219,515,l),
(160,721,o),
(197,784,o),
(258,784,cs),
(307,784,o),
(320,744,o),
(320,687,cs),
(320,570,o),
(265,478,o),
(265,356,cs),
(265,126,o),
(462,-10,o),
(782,-10,cs)
);
}
);
width = 2220;
}
);
metricRight = "ha-bali";
unicode = 6946;
},
{
glyphname = "taMurdaMahaprana-bali";
lastChange = "2021-11-21 03:05:06 +0000";
layers = (
{
layerId = m01;
shapes = (
{
closed = 1;
nodes = (
(1632,0,l),
(1712,0,l),
(1712,481,ls),
(1712,819,o),
(1589,950,o),
(1421,950,cs),
(1271,950,o),
(1190,845,o),
(1190,571,c),
(1250,571,l),
(1250,714,o),
(1312,770,o),
(1425,770,cs),
(1561,770,o),
(1632,688,o),
(1632,481,cs)
);
},
{
closed = 1;
nodes = (
(788,512,l),
(788,702,o),
(845,770,o),
(980,770,cs),
(1103,770,o),
(1170,714,o),
(1170,571,c),
(1230,571,l),
(1230,843,o),
(1144,950,o),
(987,950,cs),
(824,950,o),
(708,834,o),
(708,512,c)
);
},
{
closed = 1;
nodes = (
(934,363,l),
(934,205,o),
(874,125,o),
(662,125,cs),
(476,125,o),
(407,187,o),
(407,349,cs),
(407,507,o),
(473,622,o),
(473,758,cs),
(473,863,o),
(434,950,o),
(312,950,cs),
(159,950,o),
(93,812,o),
(141,518,c),
(208,528,l),
(183,713,o),
(204,784,o),
(290,784,cs),
(356,784,o),
(373,742,o),
(373,677,cs),
(373,559,o),
(318,451,o),
(318,287,cs),
(318,103,o),
(388,-60,o),
(653,-60,cs),
(1015,-60,o),
(1015,246,o),
(1015,363,c)
);
}
);
width = 1932;
}
);
metricRight = "nga-bali";
unicode = 6942;
},
{
glyphname = "taLatik-bali";
lastChange = "2021-11-21 03:05:06 +0000";
layers = (
{
layerId = m01;
shapes = (
{
closed = 1;
nodes = (
(1097,-503,o),
(1184,-383,o),
(1255,-215,c),
(1185,-179,l),
(1133,-283,o),
(1043,-317,o),
(942,-317,cs),
(761,-317,o),
(671,-214,o),
(671,21,cs),
(671,228,o),
(741,304,o),
(826,304,cs),
(873,304,o),
(905,281,o),
(905,240,cs),
(905,180,o),
(837,125,o),
(644,125,cs),
(446,125,o),
(377,183,o),
(377,348,cs),
(377,509,o),
(443,621,o),
(443,758,cs),
(443,863,o),
(404,950,o),
(282,950,cs),
(129,950,o),
(63,812,o),
(111,518,c),
(178,528,l),
(153,713,o),
(174,784,o),
(260,784,cs),
(326,784,o),
(343,742,o),
(343,677,cs),
(343,559,o),
(288,451,o),
(288,287,cs),
(288,102,o),
(358,-60,o),
(625,-60,cs),
(925,-60,o),
(985,144,o),
(985,237,cs),
(985,337,o),
(915,384,o),
(833,384,cs),
(694,384,o),
(584,249,o),
(584,-22,cs),
(584,-261,o),
(670,-503,o),
(921,-503,cs)
);
},
{
closed = 1;
nodes = (
(758,512,l),
(758,702,o),
(815,770,o),
(950,770,cs),
(1073,770,o),
(1140,714,o),
(1140,571,c),
(1200,571,l),
(1200,843,o),
(1114,950,o),
(957,950,cs),
(794,950,o),
(678,834,o),
(678,512,c)
);
},
{
closed = 1;
nodes = (
(1682,0,l),
(1682,481,ls),
(1682,819,o),
(1559,950,o),
(1391,950,cs),
(1241,950,o),
(1160,845,o),
(1160,571,c),
(1220,571,l),
(1220,714,o),
(1282,770,o),
(1395,770,cs),
(1531,770,o),
(1602,688,o),
(1602,481,cs),
(1602,0,l)
);
}
);
width = 1902;
}
);
metricLeft = "nga-bali";
metricRight = "nga-bali";
unicode = 6941;
},
{
glyphname = "taTawa-bali";
lastChange = "2021-11-21 03:05:06 +0000";
layers = (
{
layerId = m01;
shapes = (
{
ref = "wa-bali";
},
{
closed = 1;
nodes = (
(543,317,l),
(581,426,o),
(619,452,o),
(657,452,cs),
(780,452,o),
(828,165,o),
(908,-269,c),
(978,-256,l),
(906,188,o),
(852,604,o),
(683,604,cs),
(593,604,o),
(529,496,o),
(489,327,c)
);
}
);
width = 1540;
}
);
unicode = 6947;
},
{
glyphname = "tzirSasak-bali";
lastChange = "2021-11-21 03:05:06 +0000";
layers = (
{
layerId = m01;
shapes = (
{
closed = 1;
nodes = (
(1545,301,o),
(1513,123,o),
(1435,0,c),
(1526,0,ls),
(1761,0,o),
(1826,211,o),
(1826,464,cs),
(1826,585,o),
(1812,671,o),
(1782,761,c),
(1907,756,o),
(1955,661,o),
(1955,512,cs),
(1955,0,l),
(2035,0,l),
(2035,512,ls),
(2035,763,o),
(1981,940,o),
(1618,940,c),
(1703,785,o),
(1746,643,o),
(1746,450,cs),
(1746,255,o),
(1702,177,o),
(1591,175,c),
(1619,271,o),
(1625,380,o),
(1625,447,cs),
(1625,656,o),
(1624,950,o),
(1154,950,cs),
(850,950,o),
(741,825,o),
(741,659,cs),
(741,334,o),
(1161,445,o),
(1161,293,cs),
(1161,223,o),
(1072,175,o),
(774,175,cs),
(469,175,o),
(354,225,o),
(354,389,cs),
(354,514,o),
(420,628,o),
(420,765,cs),
(420,861,o),
(387,950,o),
(282,950,cs),
(166,950,o),
(63,842,o),
(155,498,c),
(219,515,l),
(160,721,o),
(197,784,o),
(258,784,cs),
(308,784,o),
(320,743,o),
(320,685,cs),
(320,562,o),
(265,459,o),
(265,325,cs),
(265,133,o),
(378,-10,o),
(740,-10,cs),
(1147,-10,o),
(1242,171,o),
(1242,313,cs),
(1242,613,o),
(822,505,o),
(822,651,cs),
(822,724,o),
(926,765,o),
(1139,765,cs),
(1477,765,o),
(1545,662,o),
(1545,448,cs)
);
},
{
closed = 1;
nodes = (
(1013,-470,o),
(1096,-335,o),
(1094,-104,c),
(1034,-104,l),
(1034,-280,o),
(955,-315,o),
(850,-315,cs),
(644,-315,o),
(578,-182,o),
(578,121,cs),
(578,326,o),
(608,568,o),
(652,788,c),
(590,797,l),
(543,572,o),
(510,316,o),
(510,107,cs),
(510,-274,o),
(619,-470,o),
(834,-470,cs)
);
}
);
width = 2180;
}
);
unicode = 6983;
},
{
glyphname = "sa-bali";
lastChange = "2021-11-21 03:05:06 +0000";
layers = (
{
layerId = m01;
shapes = (
{
closed = 1;
nodes = (
(484,-20,o),
(529,263,o),
(529,469,cs),
(529,703,o),
(471,950,o),
(279,950,cs),
(170,950,o),
(105,871,o),
(105,751,cs),
(105,663,o),
(140,582,o),
(192,522,c),
(249,558,l),
(207,617,o),
(191,660,o),
(191,694,cs),
(191,739,o),
(222,770,o),
(282,770,cs),
(387,770,o),
(449,678,o),
(449,449,cs),
(449,224,o),
(389,60,o),
(283,60,cs),
(237,60,o),
(219,91,o),
(219,137,cs),
(219,247,o),
(325,300,o),
(414,300,cs),
(629,300,o),
(628,-10,o),
(904,-10,cs),
(1063,-10,o),
(1181,93,o),
(1181,455,cs),
(1181,588,o),
(1165,671,o),
(1130,761,c),
(1239,756,o),
(1280,661,o),
(1280,512,cs),
(1280,0,l),
(1360,0,l),
(1360,512,ls),
(1360,763,o),
(1310,940,o),
(973,940,c),
(1058,785,o),
(1101,641,o),
(1101,455,cs),
(1101,283,o),
(1064,175,o),
(945,175,cs),
(744,175,o),
(731,480,o),
(460,480,cs),
(282,480,o),
(139,348,o),
(139,152,cs),
(139,37,o),
(188,-20,o),
(280,-20,cs)
);
}
);
width = 1540;
}
);
metricRight = "pa-bali";
unicode = 6962;
},
{
glyphname = "saSapa-bali";
lastChange = "2021-11-21 03:05:06 +0000";
layers = (
{
layerId = m01;
shapes = (
{
ref = "pa-bali";
},
{
closed = 1;
nodes = (
(543,317,l),
(581,426,o),
(619,452,o),
(657,452,cs),
(780,452,o),
(828,165,o),
(908,-269,c),
(978,-256,l),
(906,188,o),
(852,604,o),
(683,604,cs),
(593,604,o),
(529,496,o),
(489,327,c)
);
}
);
width = 1540;
}
);
unicode = 6961;
},
{
glyphname = "saSaga-bali";
lastChange = "2021-11-21 03:05:06 +0000";
layers = (
{
layerId = m01;
shapes = (
{
ref = "ga-bali";
},
{
closed = 1;
nodes = (
(813,317,l),
(851,426,o),
(889,452,o),
(927,452,cs),
(1035,452,o),
(1078,225,o),
(1128,-119,c),
(1198,-106,l),
(1153,261,o),
(1105,604,o),
(953,604,cs),
(863,604,o),
(799,496,o),
(759,327,c)
);
}
);
width = 2147;
}
);
unicode = 6960;
},
{
glyphname = "zalSasak-bali";
lastChange = "2021-11-21 03:05:06 +0000";
layers = (
{
layerId = m01;
shapes = (
{
ref = "sa-bali";
},
{
closed = 1;
nodes = (
(1165,-104,l),
(1165,-281,o),
(1069,-315,o),
(937,-315,cs),
(772,-315,o),
(709,-237,o),
(709,-44,cs),
(709,143,o),
(754,329,o),
(833,518,c),
(771,540,l),
(688,337,o),
(641,138,o),
(641,-64,cs),
(641,-324,o),
(737,-470,o),
(928,-470,cs),
(1130,-470,o),
(1227,-335,o),
(1225,-104,c)
);
}
);
width = 1540;
}
);
unicode = 6986;
},
{
glyphname = "asyuraSasak-bali";
lastChange = "2021-11-21 03:05:06 +0000";
layers = (
{
layerId = m01;
shapes = (
{
closed = 1;
nodes = (
(484,-20,o),
(529,263,o),
(529,469,cs),
(529,703,o),
(471,950,o),
(279,950,cs),
(170,950,o),
(105,871,o),
(105,751,cs),
(105,663,o),
(140,582,o),
(192,522,c),
(249,558,l),
(207,617,o),
(191,660,o),
(191,694,cs),
(191,739,o),
(222,770,o),
(282,770,cs),
(387,770,o),
(449,678,o),
(449,449,cs),
(449,224,o),
(389,60,o),
(283,60,cs),
(237,60,o),
(219,91,o),
(219,137,cs),
(219,247,o),
(325,300,o),
(414,300,cs),
(629,300,o),
(628,-10,o),
(904,-10,cs),
(1063,-10,o),
(1181,93,o),
(1181,455,cs),
(1181,588,o),
(1165,671,o),
(1130,761,c),
(1239,756,o),
(1280,661,o),
(1280,512,cs),
(1280,302,ls),
(1280,140,o),
(1359,-10,o),
(1537,-10,cs),
(1777,-10,o),
(1925,263,o),
(1925,861,c),
(1864,861,l),
(1864,388,o),
(1763,175,o),
(1540,175,cs),
(1415,175,o),
(1360,243,o),
(1360,335,cs),
(1360,512,ls),
(1360,763,o),
(1310,940,o),
(973,940,c),
(1058,785,o),
(1101,641,o),
(1101,455,cs),
(1101,283,o),
(1064,175,o),
(945,175,cs),
(744,175,o),
(731,480,o),
(460,480,cs),
(282,480,o),
(139,348,o),
(139,152,cs),
(139,37,o),
(188,-20,o),
(280,-20,cs)
);
},
{
closed = 1;
nodes = (
(2492,-10,o),
(2523,245,o),
(2523,443,cs),
(2523,567,o),
(2511,658,o),
(2479,761,c),
(2604,756,o),
(2652,661,o),
(2652,512,cs),
(2652,0,l),
(2732,0,l),
(2732,512,ls),
(2732,763,o),
(2678,940,o),
(2315,940,c),
(2393,796,o),
(2443,629,o),
(2443,447,cs),
(2443,266,o),
(2394,175,o),
(2269,175,cs),
(2052,175,o),
(1945,450,o),
(1945,861,c),
(1885,861,l),
(1885,560,o),
(1926,-10,o),
(2265,-10,cs)
);
}
);
width = 2917;
}
);
metricLeft = "sa-bali";
metricRight = "ya-bali";
unicode = 6987;
},
{
glyphname = "wa-bali";
lastChange = "2021-11-21 03:05:06 +0000";
layers = (
{
anchors = (
{
name = bottom;
pos = (1399,0);
},
{
name = top;
pos = (809,940);
}
);
background = {
shapes = (
{
closed = 1;
nodes = (
(1122,-10,o),
(1219,147,o),
(1219,414,cs),
(1219,654,o),
(1097,770,o),
(870,804,c),
(922,697,l),
(985,741,o),
(1050,761,o),
(1121,761,cs),
(1271,761,o),
(1319,672,o),
(1319,530,cs),
(1319,0,l),
(1399,0,l),
(1399,550,ls),
(1399,797,o),
(1340,940,o),
(1125,940,cs),
(971,940,o),
(852,866,o),
(769,720,c),
(789,680,l),
(1015,688,o),
(1139,596,o),
(1139,417,cs),
(1139,214,o),
(1048,175,o),
(916,175,cs),
(646,175,o),
(778,530,o),
(539,530,cs),
(323,530,o),
(158,380,o),
(158,142,cs),
(158,29,o),
(210,-20,o),
(296,-20,cs),
(504,-20,o),
(548,263,o),
(548,468,cs),
(548,703,o),
(490,950,o),
(298,950,cs),
(189,950,o),
(124,871,o),
(124,751,cs),
(124,663,o),
(159,582,o),
(211,522,c),
(268,558,l),
(226,617,o),
(210,660,o),
(210,694,cs),
(210,739,o),
(241,770,o),
(301,770,cs),
(407,770,o),
(468,677,o),
(468,447,cs),
(468,223,o),
(409,60,o),
(297,60,cs),
(256,60,o),
(238,82,o),
(238,129,cs),
(238,291,o),
(374,350,o),
(513,350,cs),
(753,350,o),
(636,-10,o),
(907,-10,cs)
);
}
);
};
layerId = m01;
shapes = (
{
closed = 1;
nodes = (
(1068,-10,o),
(1219,147,o),
(1219,414,cs),
(1219,654,o),
(1097,770,o),
(870,804,c),
(922,697,l),
(985,741,o),
(1049,761,o),
(1121,761,cs),
(1271,761,o),
(1319,673,o),
(1319,540,cs),
(1319,0,l),
(1399,0,l),
(1399,610,ls),
(1399,792,o),
(1350,940,o),
(1132,940,cs),
(970,940,o),
(835,858,o),
(769,690,c),
(1008,698,o),
(1139,603,o),
(1139,417,cs),
(1139,214,o),
(978,175,o),
(746,175,cs),
(465,175,o),
(359,232,o),
(359,390,cs),
(359,514,o),
(425,629,o),
(425,765,cs),
(425,861,o),
(392,950,o),
(287,950,cs),
(171,950,o),
(68,842,o),
(160,498,c),
(223,515,l),
(165,721,o),
(202,784,o),
(263,784,cs),
(313,784,o),
(325,743,o),
(325,685,cs),
(325,562,o),
(270,466,o),
(270,340,cs),
(270,129,o),
(425,-10,o),
(737,-10,cs)
);
}
);
width = 1579;
},
{
associatedMasterId = m01;
background = {
shapes = (
{
closed = 1;
nodes = (
(1136,-6,o),
(1308,78,o),
(1309,361,cs),
(1310,580,ls),
(1311,722,o),
(1265,843,o),
(1081,834,c),
(1053,817,l),
(1130,844,o),
(1203,860,o),
(1273,860,cs),
(1433,860,o),
(1480,776,o),
(1480,630,cs),
(1480,0,l),
(1660,0,l),
(1660,630,ls),
(1660,830,o),
(1565,940,o),
(1310,940,cs),
(1174,940,o),
(1039,909,o),
(940,840,c),
(970,770,l),
(1112,816,o),
(1231,795,o),
(1230,580,cs),
(1229,361,ls),
(1228,165,o),
(1126,96,o),
(906,96,cs),
(655,96,o),
(599,185,o),
(599,361,cs),
(599,607,ls),
(599,801,o),
(572,940,o),
(357,940,cs),
(178,940,o),
(85,843,o),
(85,679,cs),
(85,572,o),
(125,481,o),
(248,442,c),
(281,508,l),
(199,531,o),
(165,590,o),
(165,686,cs),
(165,804,o),
(216,860,o),
(311,860,cs),
(414,860,o),
(439,793,o),
(439,607,cs),
(439,361,ls),
(439,87,o),
(582,-6,o),
(868,-6,cs)
);
}
);
};
layerId = "61A81B87-C894-4791-9C9B-7E5CC5152A02";
name = "13 Jun 21 21.23";
shapes = (
{
closed = 1;
nodes = (
(1231,620,o),
(1142,699,o),
(970,700,c),
(950,740,l),
(1036,878,o),
(1158,940,o),
(1290,940,cs),
(1502,940,o),
(1560,802,o),
(1560,550,cs),
(1560,0,l),
(1480,0,l),
(1480,530,ls),
(1480,677,o),
(1433,760,o),
(1273,760,cs),
(1203,760,o),
(1130,744,o),
(1053,717,c),
(1081,734,l),
(1265,743,o),
(1310,581,o),
(1310,390,cs),
(1310,152,o),
(1121,-10,o),
(725,-10,cs),
(343,-10,o),
(218,120,o),
(218,297,cs),
(218,466,o),
(333,534,o),
(333,685,cs),
(333,741,o),
(317,784,o),
(254,784,cs),
(174,784,o),
(153,713,o),
(159,608,c),
(91,608,l),
(81,836,o),
(154,950,o),
(287,950,cs),
(404,950,o),
(453,862,o),
(453,761,cs),
(453,599,o),
(327,500,o),
(327,360,cs),
(327,221,o),
(452,175,o),
(727,175,cs),
(1070,175,o),
(1229,217,o),
(1230,390,cs)
);
},
{
closed = 1;
nodes = (
(1047,-10,o),
(1290,82,o),
(1290,474,cs),
(1290,588,o),
(1270,684,o),
(1239,761,c),
(1348,756,o),
(1389,661,o),
(1389,512,cs),
(1389,0,l),
(1469,0,l),
(1469,512,ls),
(1469,763,o),
(1419,940,o),
(1082,940,c),
(1163,795,o),
(1210,634,o),
(1210,480,cs),
(1210,265,o),
(1111,175,o),
(727,175,cs),
(452,175,o),
(327,221,o),
(327,361,cs),
(327,499,o),
(453,599,o),
(453,761,cs),
(453,862,o),
(404,950,o),
(287,950,cs),
(154,950,o),
(81,836,o),
(91,608,c),
(159,608,l),
(153,713,o),
(174,784,o),
(254,784,cs),
(317,784,o),
(333,741,o),
(333,685,cs),
(333,534,o),
(218,465,o),
(218,298,cs),
(218,120,o),
(343,-10,o),
(725,-10,cs)
);
}
);
width = 1840;
},
{
associatedMasterId = m01;
background = {
shapes = (
{
closed = 1;
nodes = (
(937,-10,o),
(1180,82,o),
(1180,474,cs),
(1180,588,o),
(1160,684,o),
(1129,761,c),
(1238,756,o),
(1279,661,o),
(1279,512,cs),
(1279,0,l),
(1359,0,l),
(1359,512,ls),
(1359,763,o),
(1309,940,o),
(972,940,c),
(1053,795,o),
(1100,634,o),
(1100,480,cs),
(1100,265,o),
(1001,175,o),
(617,175,cs),
(342,175,o),
(217,221,o),
(217,361,cs),
(217,499,o),
(343,599,o),
(343,761,cs),
(343,862,o),
(294,950,o),
(177,950,cs),
(44,950,o),
(-29,836,o),
(-19,608,c),
(49,608,l),
(43,713,o),
(64,784,o),
(144,784,cs),
(207,784,o),
(223,741,o),
(223,685,cs),
(223,534,o),
(108,465,o),
(108,298,cs),
(108,120,o),
(233,-10,o),
(615,-10,cs)
);
}
);
};
layerId = "94016DB3-E875-441F-9E06-E3D9D2A90B6D";
name = "11 Jul 21 10.58";
shapes = (
{
closed = 1;
nodes = (
(1022,-10,o),
(1180,147,o),
(1180,417,cs),
(1180,654,o),
(1058,770,o),
(831,804,c),
(883,697,l),
(946,741,o),
(1011,761,o),
(1082,761,cs),
(1232,761,o),
(1280,672,o),
(1280,530,cs),
(1280,0,l),
(1360,0,l),
(1360,550,ls),
(1360,797,o),
(1301,940,o),
(1086,940,cs),
(932,940,o),
(813,866,o),
(730,720,c),
(750,680,l),
(976,688,o),
(1100,596,o),
(1100,416,cs),
(1100,214,o),
(943,175,o),
(709,175,cs),
(445,175,o),
(317,225,o),
(317,369,cs),
(317,494,o),
(413,595,o),
(413,755,cs),
(413,876,o),
(358,950,o),
(259,950,cs),
(136,950,o),
(71,836,o),
(81,608,c),
(149,608,l),
(143,713,o),
(159,784,o),
(227,784,cs),
(279,784,o),
(293,742,o),
(293,680,cs),
(293,558,o),
(238,462,o),
(238,328,cs),
(238,127,o),
(361,-10,o),
(680,-10,cs)
);
}
);
width = 1540;
},
{
associatedMasterId = m01;
background = {
shapes = (
{
closed = 1;
nodes = (
(1022,-10,o),
(1180,147,o),
(1180,417,cs),
(1180,654,o),
(1058,770,o),
(831,804,c),
(883,697,l),
(946,741,o),
(1011,761,o),
(1082,761,cs),
(1232,761,o),
(1280,672,o),
(1280,530,cs),
(1280,0,l),
(1360,0,l),
(1360,550,ls),
(1360,797,o),
(1301,940,o),
(1086,940,cs),
(932,940,o),
(813,866,o),
(730,720,c),
(750,680,l),
(976,688,o),
(1100,596,o),
(1100,416,cs),
(1100,214,o),
(943,175,o),
(709,175,cs),
(445,175,o),
(317,225,o),
(317,369,cs),
(317,494,o),
(413,595,o),
(413,755,cs),
(413,876,o),
(358,950,o),
(259,950,cs),
(136,950,o),
(71,836,o),
(81,608,c),
(149,608,l),
(143,713,o),
(159,784,o),
(227,784,cs),
(279,784,o),
(293,742,o),
(293,680,cs),
(293,558,o),
(238,462,o),
(238,328,cs),
(238,127,o),
(361,-10,o),
(680,-10,cs)
);
}
);
};
layerId = "930FA0BF-A4EF-4016-90D6-CE3B70324FFB";
name = "11 Jul 21 11.43";
shapes = (
{
closed = 1;
nodes = (
(1016,-10,o),
(1180,147,o),
(1180,417,cs),
(1180,654,o),
(1058,770,o),
(831,804,c),
(883,697,l),
(946,741,o),
(1011,761,o),
(1082,761,cs),
(1232,761,o),
(1280,672,o),
(1280,530,cs),
(1280,0,l),
(1360,0,l),
(1360,550,ls),
(1360,797,o),
(1301,940,o),
(1086,940,cs),
(932,940,o),
(813,866,o),
(730,720,c),
(750,680,l),
(976,688,o),
(1100,596,o),
(1100,416,cs),
(1100,214,o),
(943,175,o),
(709,175,cs),
(445,175,o),
(317,228,o),
(317,390,c),
(208,320,l),
(208,123,o),
(334,-10,o),
(660,-10,cs)
);
},
{
closed = 1;
nodes = (
(317,390,l),
(317,523,o),
(403,626,o),
(403,765,cs),
(403,861,o),
(362,950,o),
(252,950,cs),
(128,950,o),
(46,836,o),
(108,538,c),
(173,548,l),
(143,713,o),
(160,784,o),
(223,784,cs),
(271,784,o),
(283,742,o),
(283,689,cs),
(283,557,o),
(208,471,o),
(208,319,c)
);
}
);
width = 1540;
}
);
metricRight = "pa-java";
unicode = 6959;
},
{
glyphname = "veSasak-bali";
lastChange = "2021-11-21 03:05:06 +0000";
layers = (
{
layerId = m01;
shapes = (
{
pos = (39,0);
ref = "wa-bali";
},
{
closed = 1;
nodes = (
(1034,-104,l),
(1034,-281,o),
(938,-315,o),
(806,-315,cs),
(641,-315,o),
(578,-237,o),
(578,-44,cs),
(578,143,o),
(623,329,o),
(702,518,c),
(640,540,l),
(557,337,o),
(510,138,o),
(510,-64,cs),
(510,-324,o),
(606,-470,o),
(797,-470,cs),
(999,-470,o),
(1096,-335,o),
(1094,-104,c)
);
}
);
width = 1579;
}
);
unicode = 6985;
},
{
glyphname = "la-bali";
lastChange = "2021-11-21 03:05:06 +0000";
layers = (
{
anchors = (
{
name = bottom;
pos = (2031,0);
},
{
name = top;
pos = (1121,950);
}
);
background = {
shapes = (
{
closed = 1;
nodes = (
(1653,175,o),
(1711,253,o),
(1711,398,cs),
(1711,940,l),
(1991,940,o),
(2030,792,o),
(2030,582,cs),
(2030,0,l),
(1950,0,l),
(1950,582,ls),
(1950,689,o),
(1934,757,o),
(1791,761,c),
(1791,428,ls),
(1791,246,o),
(1791,-10,o),
(1411,-10,cs),
(1030,-10,o),
(1030,246,o),
(1030,428,cs),
(1030,532,ls),
(1030,685,o),
(981,765,o),
(799,765,cs),
(633,765,o),
(577,700,o),
(577,532,cs),
(577,333,ls),
(577,104,o),
(527,-10,o),
(392,-10,cs),
(251,-10,o),
(210,114,o),
(210,217,cs),
(210,382,o),
(315,491,o),
(315,680,cs),
(315,741,o),
(304,784,o),
(253,784,cs),
(192,784,o),
(155,722,o),
(214,515,c),
(150,498,l),
(58,842,o),
(161,950,o),
(277,950,cs),
(384,950,o),
(415,859,o),
(415,757,cs),
(415,559,o),
(299,428,o),
(299,287,cs),
(299,214,o),
(330,175,o),
(396,175,cs),
(481,175,o),
(496,238,o),
(496,333,cs),
(496,532,ls),
(496,800,o),
(568,950,o),
(804,950,cs),
(1110,950,o),
(1110,699,o),
(1110,532,cs),
(1110,398,ls),
(1110,253,o),
(1168,175,o),
(1411,175,cs)
);
}
);
};
layerId = m01;
shapes = (
{
closed = 1;
nodes = (
(527,-10,o),
(577,104,o),
(577,333,cs),
(577,532,ls),
(577,700,o),
(633,765,o),
(799,765,cs),
(981,765,o),
(1030,685,o),
(1030,532,cs),
(1030,428,ls),
(1030,240,o),
(1030,-10,o),
(1418,-10,cs),
(1821,-10,o),
(1822,260,o),
(1822,444,cs),
(1822,573,o),
(1808,665,o),
(1778,761,c),
(1903,756,o),
(1951,661,o),
(1951,512,cs),
(1951,0,l),
(2031,0,l),
(2031,512,ls),
(2031,763,o),
(1977,940,o),
(1614,940,c),
(1690,799,o),
(1742,632,o),
(1742,452,cs),
(1742,264,o),
(1685,175,o),
(1416,175,cs),
(1168,175,o),
(1110,251,o),
(1110,398,cs),
(1110,532,ls),
(1110,699,o),
(1110,950,o),
(804,950,cs),
(568,950,o),
(496,800,o),
(496,532,cs),
(496,333,ls),
(496,238,o),
(481,175,o),
(396,175,cs),
(330,175,o),
(299,214,o),
(299,287,cs),
(299,428,o),
(415,559,o),
(415,757,cs),
(415,859,o),
(384,950,o),
(277,950,cs),
(161,950,o),
(58,842,o),
(150,498,c),
(214,515,l),
(155,722,o),
(192,784,o),
(253,784,cs),
(304,784,o),
(315,741,o),
(315,680,cs),
(315,491,o),
(210,382,o),
(210,217,cs),
(210,114,o),
(251,-10,o),
(392,-10,cs)
);
}
);
width = 2180;
},
{
associatedMasterId = m01;
background = {
shapes = (
{
closed = 1;
nodes = (
(1057,-10,o),
(1057,286,o),
(1057,428,cs),
(1057,532,ls),
(1057,700,o),
(1113,765,o),
(1279,765,cs),
(1461,765,o),
(1510,685,o),
(1510,532,cs),
(1510,196,ls),
(1510,58,o),
(1548,0,o),
(1661,0,cs),
(1761,0,l),
(1761,761,l),
(1904,757,o),
(1920,689,o),
(1920,582,cs),
(1920,0,l),
(2000,0,l),
(2000,582,ls),
(2000,792,o),
(1961,940,o),
(1681,940,c),
(1681,108,l),
(1652,108,ls),
(1600,108,o),
(1590,135,o),
(1590,196,cs),
(1590,532,ls),
(1590,699,o),
(1590,950,o),
(1284,950,cs),
(1048,950,o),
(976,800,o),
(976,532,cs),
(976,398,ls),
(976,253,o),
(903,175,o),
(637,175,cs),
(407,175,o),
(319,233,o),
(319,386,cs),
(319,518,o),
(385,628,o),
(385,765,cs),
(385,861,o),
(352,950,o),
(247,950,cs),
(131,950,o),
(28,842,o),
(120,498,c),
(184,515,l),
(125,721,o),
(162,784,o),
(223,784,cs),
(273,784,o),
(285,743,o),
(285,685,cs),
(285,561,o),
(230,464,o),
(230,321,cs),
(230,144,o),
(315,-10,o),
(626,-10,cs)
);
}
);
};
layerId = "92739971-833A-40CC-A053-BED60D8CC833";
name = "11 Jul 21 18.14";
shapes = (
{
closed = 1;
nodes = (
(1653,175,o),
(1711,253,o),
(1711,398,cs),
(1711,940,l),
(1991,940,o),
(2030,792,o),
(2030,582,cs),
(2030,0,l),
(1950,0,l),
(1950,582,ls),
(1950,689,o),
(1934,757,o),
(1791,761,c),
(1791,428,ls),
(1791,246,o),
(1791,-10,o),
(1411,-10,cs),
(1030,-10,o),
(1030,246,o),
(1030,428,cs),
(1030,532,ls),
(1030,685,o),
(981,765,o),
(799,765,cs),
(633,765,o),
(577,700,o),
(577,532,cs),
(577,333,ls),
(577,104,o),
(527,-10,o),
(392,-10,cs),
(251,-10,o),
(210,114,o),
(210,217,cs),
(210,382,o),
(315,491,o),
(315,680,cs),
(315,741,o),
(304,784,o),
(253,784,cs),
(192,784,o),
(155,722,o),
(214,515,c),
(150,498,l),
(58,842,o),
(161,950,o),
(277,950,cs),
(384,950,o),
(415,859,o),
(415,757,cs),
(415,559,o),
(299,428,o),
(299,287,cs),
(299,214,o),
(330,175,o),
(396,175,cs),
(481,175,o),
(496,238,o),
(496,333,cs),
(496,532,ls),
(496,800,o),
(568,950,o),
(804,950,cs),
(1110,950,o),
(1110,699,o),
(1110,532,cs),
(1110,398,ls),
(1110,253,o),
(1168,175,o),
(1411,175,cs)
);
}
);
width = 2180;
}
);
unicode = 6958;
},
{
glyphname = "ma-bali";
lastChange = "2021-11-21 03:05:06 +0000";
layers = (
{
background = {
shapes = (
{
pos = (10,0);
ref = "na-bali";
}
);
};
layerId = m01;
shapes = (
{
closed = 1;
nodes = (
(1157,-10,o),
(1361,96,o),
(1361,423,cs),
(1361,761,l),
(1504,757,o),
(1520,689,o),
(1520,582,cs),
(1520,0,l),
(1600,0,l),
(1600,582,ls),
(1600,792,o),
(1561,940,o),
(1281,940,c),
(1281,423,ls),
(1281,231,o),
(1165,175,o),
(804,175,cs),
(488,175,o),
(380,218,o),
(380,305,cs),
(380,390,o),
(481,440,o),
(655,440,cs),
(870,440,l),
(870,520,l),
(655,520,ls),
(521,520,o),
(430,553,o),
(430,636,cs),
(430,713,o),
(507,760,o),
(685,760,cs),
(880,760,l),
(880,940,l),
(362,940,ls),
(175,940,o),
(95,832,o),
(95,675,cs),
(95,564,o),
(135,479,o),
(248,422,c),
(281,485,l),
(217,525,o),
(175,572,o),
(175,644,cs),
(175,736,o),
(243,760,o),
(344,760,cs),
(483,760,l),
(496,830,l),
(376,794,o),
(340,720,o),
(340,646,cs),
(340,546,o),
(403,468,o),
(548,466,c),
(549,490,l),
(387,466,o),
(300,396,o),
(300,265,cs),
(300,101,o),
(436,-10,o),
(801,-10,cs)
);
}
);
width = 1800;
}
);
unicode = 6955;
},
{
glyphname = "ga-bali";
lastChange = "2021-11-21 03:05:06 +0000";
layers = (
{
background = {
shapes = (
{
pos = (-35,0);
ref = "ha-bali";
}
);
};
layerId = m01;
shapes = (
{
closed = 1;
nodes = (
(497,-10,o),
(547,104,o),
(547,333,cs),
(547,437,ls),
(547,676,o),
(719,765,o),
(1027,765,cs),
(1377,765,o),
(1512,650,o),
(1512,401,cs),
(1512,300,o),
(1490,128,o),
(1402,0,c),
(1493,0,ls),
(1728,0,o),
(1793,211,o),
(1793,464,cs),
(1793,585,o),
(1779,671,o),
(1749,761,c),
(1874,756,o),
(1922,661,o),
(1922,512,cs),
(1922,0,l),
(2002,0,l),
(2002,512,ls),
(2002,763,o),
(1948,940,o),
(1585,940,c),
(1670,785,o),
(1713,643,o),
(1713,450,cs),
(1713,255,o),
(1670,177,o),
(1562,175,c),
(1588,264,o),
(1592,366,o),
(1592,422,cs),
(1592,774,o),
(1434,950,o),
(1024,950,cs),
(609,950,o),
(466,769,o),
(466,437,cs),
(466,333,ls),
(466,238,o),
(451,175,o),
(366,175,cs),
(300,175,o),
(269,214,o),
(269,287,cs),
(269,428,o),
(385,559,o),
(385,757,cs),
(385,859,o),
(354,950,o),
(247,950,cs),
(131,950,o),
(28,842,o),
(120,498,c),
(184,515,l),
(125,722,o),
(162,784,o),
(223,784,cs),
(274,784,o),
(285,741,o),
(285,680,cs),
(285,491,o),
(180,382,o),
(180,217,cs),
(180,114,o),
(221,-10,o),
(362,-10,cs)
);
}
);
width = 2187;
},
{
associatedMasterId = m01;
background = {
shapes = (
{
ref = "nga-bali";
}
);
};
layerId = "893CEE8F-DDA3-496B-B0CD-B2110FBC667D";
name = "11 Jul 21 18.14";
shapes = (
{
closed = 1;
nodes = (
(1443,0,l),
(1443,761,l),
(1586,757,o),
(1602,689,o),
(1602,582,cs),
(1602,0,l),
(1682,0,l),
(1682,582,ls),
(1682,792,o),
(1643,940,o),
(1363,940,c),
(1363,108,l),
(1334,108,ls),
(1282,108,o),
(1272,135,o),
(1272,196,cs),
(1272,487,ls),
(1272,792,o),
(1159,950,o),
(865,950,cs),
(568,950,o),
(466,788,o),
(466,487,cs),
(466,333,ls),
(466,238,o),
(451,175,o),
(366,175,cs),
(300,175,o),
(269,214,o),
(269,287,cs),
(269,428,o),
(385,559,o),
(385,757,cs),
(385,859,o),
(354,950,o),
(247,950,cs),
(131,950,o),
(28,842,o),
(120,498,c),
(184,515,l),
(125,722,o),
(162,784,o),
(223,784,cs),
(274,784,o),
(285,741,o),
(285,680,cs),
(285,491,o),
(180,382,o),
(180,217,cs),
(180,114,o),
(221,-10,o),
(362,-10,cs),
(497,-10,o),
(547,104,o),
(547,333,cs),
(547,487,ls),
(547,690,o),
(661,765,o),
(865,765,cs),
(1092,765,o),
(1192,670,o),
(1192,487,cs),
(1192,196,ls),
(1192,58,o),
(1230,0,o),
(1343,0,cs)
);
}
);
width = 1862;
}
);
metricRight = "ha-bali";
unicode = 6933;
},
{
glyphname = "gaGora-bali";
lastChange = "2021-11-21 03:05:06 +0000";
layers = (
{
background = {
shapes = (
{
closed = 1;
nodes = (
(757,0,l),
(664,138,o),
(647,291,o),
(647,430,cs),
(647,673,o),
(703,770,o),
(859,770,cs),
(978,770,o),
(1054,713,o),
(1054,571,c),
(1114,571,l),
(1114,842,o),
(1019,950,o),
(865,950,cs),
(683,950,o),
(567,804,o),
(567,433,cs),
(567,364,o),
(571,264,o),
(597,175,c),
(462,176,o),
(406,233,o),
(406,373,cs),
(406,526,o),
(472,628,o),
(472,760,cs),
(472,862,o),
(433,950,o),
(311,950,cs),
(158,950,o),
(92,812,o),
(140,518,c),
(207,528,l),
(182,713,o),
(203,784,o),
(289,784,cs),
(355,784,o),
(372,742,o),
(372,680,cs),
(372,567,o),
(317,462,o),
(317,320,cs),
(317,151,o),
(394,0,o),
(666,0,cs)
);
},
{
closed = 1;
nodes = (
(1520,0,ls),
(1755,0,o),
(1820,211,o),
(1820,464,cs),
(1820,585,o),
(1805,671,o),
(1775,761,c),
(1901,756,o),
(1949,661,o),
(1949,512,cs),
(1949,0,l),
(2029,0,l),
(2029,512,ls),
(2029,763,o),
(1975,940,o),
(1612,940,c),
(1697,785,o),
(1740,643,o),
(1740,450,cs),
(1740,255,o),
(1697,177,o),
(1589,175,c),
(1615,271,o),
(1619,380,o),
(1619,448,cs),
(1619,814,o),
(1500,950,o),
(1323,950,cs),
(1168,950,o),
(1074,845,o),
(1074,571,c),
(1134,571,l),
(1134,714,o),
(1208,770,o),
(1327,770,cs),
(1477,770,o),
(1539,681,o),
(1539,443,cs),
(1539,318,o),
(1522,144,o),
(1429,0,c)
);
}
);
};
layerId = m01;
shapes = (
{
closed = 1;
nodes = (
(698,154,o),
(784,-20,o),
(942,-20,cs),
(1142,-20,o),
(1122,260,o),
(1273,260,cs),
(1423,260,o),
(1409,-20,o),
(1621,-20,cs),
(1814,-20,o),
(1851,211,o),
(1851,373,cs),
(1851,650,o),
(1743,764,o),
(1501,804,c),
(1553,697,l),
(1616,741,o),
(1681,761,o),
(1752,761,cs),
(1902,761,o),
(1950,672,o),
(1950,530,cs),
(1950,0,l),
(2030,0,l),
(2030,550,ls),
(2030,794,o),
(1971,940,o),
(1760,940,cs),
(1602,940,o),
(1485,859,o),
(1400,690,c),
(1649,696,o),
(1771,601,o),
(1771,386,cs),
(1771,293,o),
(1748,150,o),
(1605,150,cs),
(1401,150,o),
(1452,440,o),
(1273,440,cs),
(1093,440,o),
(1166,150,o),
(957,150,cs),
(840,150,o),
(778,241,o),
(778,470,cs),
(778,597,o),
(797,794,o),
(888,950,c),
(797,950,ls),
(570,950,o),
(506,799,o),
(506,600,cs),
(506,333,ls),
(506,238,o),
(491,175,o),
(406,175,cs),
(340,175,o),
(309,214,o),
(309,287,cs),
(309,428,o),
(425,559,o),
(425,757,cs),
(425,859,o),
(394,950,o),
(287,950,cs),
(171,950,o),
(68,842,o),
(160,498,c),
(224,515,l),
(165,722,o),
(202,784,o),
(263,784,cs),
(314,784,o),
(325,741,o),
(325,680,cs),
(325,491,o),
(220,382,o),
(220,217,cs),
(220,114,o),
(261,-10,o),
(402,-10,cs),
(537,-10,o),
(587,104,o),
(587,333,cs),
(587,577,ls),
(587,717,o),
(628,774,o),
(728,775,c),
(705,674,o),
(698,541,o),
(698,454,cs)
);
}
);
width = 2215;
}
);
metricRight = "ba-bali";
unicode = 6934;
},
{
glyphname = "ba-bali";
lastChange = "2021-11-21 03:05:06 +0000";
layers = (
{
background = {
shapes = (
{
closed = 1;
nodes = (
(728,0,l),
(635,138,o),
(618,291,o),
(618,430,cs),
(618,673,o),
(674,770,o),
(830,770,cs),
(949,770,o),
(1025,713,o),
(1025,571,c),
(1085,571,l),
(1085,842,o),
(990,950,o),
(836,950,cs),
(654,950,o),
(538,804,o),
(538,436,cs),
(538,363,o),
(542,264,o),
(568,175,c),
(433,177,o),
(377,229,o),
(377,379,cs),
(377,520,o),
(443,630,o),
(443,761,cs),
(443,862,o),
(404,950,o),
(282,950,cs),
(129,950,o),
(63,812,o),
(111,518,c),
(178,528,l),
(153,713,o),
(174,784,o),
(260,784,cs),
(326,784,o),
(343,742,o),
(343,680,cs),
(343,568,o),
(288,459,o),
(288,323,cs),
(288,150,o),
(365,0,o),
(637,0,cs)
);
},
{
closed = 1;
nodes = (
(1510,196,ls),
(1510,58,o),
(1548,0,o),
(1661,0,cs),
(1761,0,l),
(1761,761,l),
(1904,757,o),
(1920,689,o),
(1920,582,cs),
(1920,0,l),
(2000,0,l),
(2000,582,ls),
(2000,792,o),
(1961,940,o),
(1681,940,c),
(1681,108,l),
(1652,108,ls),
(1600,108,o),
(1590,135,o),
(1590,196,cs),
(1590,481,ls),
(1590,818,o),
(1471,950,o),
(1293,950,cs),
(1139,950,o),
(1045,845,o),
(1045,571,c),
(1105,571,l),
(1105,714,o),
(1179,770,o),
(1296,770,cs),
(1445,770,o),
(1510,688,o),
(1510,481,cs)
);
}
);
};
layerId = m01;
shapes = (
{
closed = 1;
nodes = (
(728,0,l),
(635,138,o),
(618,291,o),
(618,430,cs),
(618,673,o),
(674,770,o),
(830,770,cs),
(949,770,o),
(1025,713,o),
(1025,571,c),
(1085,571,l),
(1085,842,o),
(990,950,o),
(836,950,cs),
(654,950,o),
(538,804,o),
(538,433,cs),
(538,364,o),
(542,264,o),
(568,175,c),
(433,176,o),
(377,233,o),
(377,373,cs),
(377,526,o),
(443,628,o),
(443,760,cs),
(443,862,o),
(404,950,o),
(282,950,cs),
(129,950,o),
(63,812,o),
(111,518,c),
(178,528,l),
(153,713,o),
(174,784,o),
(260,784,cs),
(326,784,o),
(343,742,o),
(343,680,cs),
(343,567,o),
(288,462,o),
(288,320,cs),
(288,151,o),
(365,0,o),
(637,0,cs)
);
},
{
closed = 1;
nodes = (
(1491,0,ls),
(1726,0,o),
(1791,211,o),
(1791,464,cs),
(1791,585,o),
(1776,671,o),
(1746,761,c),
(1872,756,o),
(1920,661,o),
(1920,512,cs),
(1920,0,l),
(2000,0,l),
(2000,512,ls),
(2000,763,o),
(1946,940,o),
(1583,940,c),
(1668,785,o),
(1711,643,o),
(1711,450,cs),
(1711,255,o),
(1668,177,o),
(1560,175,c),
(1586,271,o),
(1590,380,o),
(1590,448,cs),
(1590,814,o),
(1471,950,o),
(1294,950,cs),
(1139,950,o),
(1045,845,o),
(1045,571,c),
(1105,571,l),
(1105,714,o),
(1179,770,o),
(1298,770,cs),
(1448,770,o),
(1510,681,o),
(1510,443,cs),
(1510,318,o),
(1493,144,o),
(1400,0,c)
);
}
);
width = 2185;
},
{
associatedMasterId = m01;
background = {
shapes = (
{
ref = "ka-bali";
}
);
};
layerId = "F19039FE-DEC4-4F65-AB9D-F52E130B7EE1";
name = "11 Jul 21 13.00";
shapes = (
{
closed = 1;
nodes = (
(728,0,l),
(635,138,o),
(618,291,o),
(618,430,cs),
(618,673,o),
(674,770,o),
(830,770,cs),
(949,770,o),
(1025,713,o),
(1025,571,c),
(1085,571,l),
(1085,842,o),
(990,950,o),
(836,950,cs),
(654,950,o),
(538,804,o),
(538,436,cs),
(538,363,o),
(542,264,o),
(568,175,c),
(433,177,o),
(377,229,o),
(377,379,cs),
(377,520,o),
(443,630,o),
(443,761,cs),
(443,862,o),
(404,950,o),
(282,950,cs),
(129,950,o),
(63,812,o),
(111,518,c),
(178,528,l),
(153,713,o),
(174,784,o),
(260,784,cs),
(326,784,o),
(343,742,o),
(343,680,cs),
(343,568,o),
(288,459,o),
(288,323,cs),
(288,150,o),
(365,0,o),
(637,0,cs)
);
},
{
closed = 1;
nodes = (
(1510,196,ls),
(1510,58,o),
(1548,0,o),
(1661,0,cs),
(1761,0,l),
(1761,761,l),
(1904,757,o),
(1920,689,o),
(1920,582,cs),
(1920,0,l),
(2000,0,l),
(2000,582,ls),
(2000,792,o),
(1961,940,o),
(1681,940,c),
(1681,108,l),
(1652,108,ls),
(1600,108,o),
(1590,135,o),
(1590,196,cs),
(1590,481,ls),
(1590,818,o),
(1471,950,o),
(1293,950,cs),
(1139,950,o),
(1045,845,o),
(1045,571,c),
(1105,571,l),
(1105,714,o),
(1179,770,o),
(1296,770,cs),
(1445,770,o),
(1510,688,o),
(1510,481,cs)
);
}
);
width = 2180;
}
);
metricRight = "ha-bali";
unicode = 6953;
},
{
glyphname = "baKembang-bali";
lastChange = "2021-11-21 03:05:06 +0000";
layers = (
{
layerId = m01;
shapes = (
{
closed = 1;
nodes = (
(395,419,l),
(444,485,o),
(510,610,o),
(510,755,cs),
(510,851,o),
(481,950,o),
(348,950,cs),
(218,950,o),
(141,856,o),
(155,604,c),
(219,605,l),
(223,749,o),
(265,784,o),
(331,784,cs),
(404,784,o),
(410,740,o),
(410,691,cs),
(410,612,o),
(395,532,o),
(358,434,c)
);
},
{
closed = 1;
nodes = (
(145,238,l),
(145,103,o),
(190,-10,o),
(347,-10,cs),
(603,-10,o),
(664,290,o),
(898,290,cs),
(991,290,o),
(1137,242,o),
(1137,134,cs),
(1137,94,o),
(1117,60,o),
(1061,60,cs),
(955,60,o),
(855,184,o),
(855,428,cs),
(855,674,o),
(956,770,o),
(1164,770,cs),
(1388,770,o),
(1497,660,o),
(1497,431,cs),
(1497,0,l),
(1577,0,l),
(1577,431,ls),
(1577,780,o),
(1456,950,o),
(1183,950,cs),
(922,950,o),
(775,795,o),
(775,463,cs),
(775,181,o),
(881,-20,o),
(1064,-20,cs),
(1164,-20,o),
(1227,40,o),
(1227,147,cs),
(1227,320,o),
(1064,470,o),
(874,470,cs),
(607,470,o),
(570,175,o),
(334,175,cs),
(245,175,o),
(203,217,o),
(195,252,c)
);
}
);
width = 1762;
}
);
metricRight = "ba-bali";
unicode = 6954;
},
{
glyphname = "nga-bali";
lastChange = "2021-11-21 03:05:06 +0000";
layers = (
{
background = {
shapes = (
{
ref = "ka-bali";
}
);
};
layerId = m01;
shapes = (
{
closed = 1;
nodes = (
(788,0,l),
(695,132,o),
(678,277,o),
(678,407,cs),
(678,667,o),
(746,770,o),
(910,770,cs),
(1032,770,o),
(1100,713,o),
(1100,571,c),
(1160,571,l),
(1160,842,o),
(1073,950,o),
(915,950,cs),
(728,950,o),
(598,798,o),
(598,416,cs),
(598,349,o),
(602,257,o),
(628,175,c),
(451,177,o),
(377,229,o),
(377,379,cs),
(377,520,o),
(443,630,o),
(443,761,cs),
(443,862,o),
(404,950,o),
(282,950,cs),
(129,950,o),
(63,812,o),
(111,518,c),
(178,528,l),
(153,713,o),
(174,784,o),
(260,784,cs),
(326,784,o),
(343,742,o),
(343,680,cs),
(343,568,o),
(288,459,o),
(288,323,cs),
(288,150,o),
(378,0,o),
(697,0,cs)
);
},
{
closed = 1;
nodes = (
(1602,0,l),
(1682,0,l),
(1682,431,ls),
(1682,804,o),
(1552,950,o),
(1365,950,cs),
(1207,950,o),
(1120,842,o),
(1120,571,c),
(1180,571,l),
(1180,713,o),
(1248,770,o),
(1369,770,cs),
(1524,770,o),
(1602,676,o),
(1602,431,cs)
);
}
);
width = 1902;
}
);
metricRight = "na-bali";
unicode = 6935;
},
{
glyphname = "pa-bali";
lastChange = "2021-11-21 03:05:06 +0000";
layers = (
{
background = {
shapes = (
{
closed = 1;
nodes = (
(965,-10,o),
(1181,87,o),
(1181,471,cs),
(1181,588,o),
(1161,684,o),
(1130,761,c),
(1239,756,o),
(1280,661,o),
(1280,512,cs),
(1280,0,l),
(1360,0,l),
(1360,512,ls),
(1360,763,o),
(1310,940,o),
(973,940,c),
(1054,795,o),
(1101,636,o),
(1101,472,cs),
(1101,253,o),
(1017,175,o),
(696,175,cs),
(444,175,o),
(317,223,o),
(317,381,cs),
(317,518,o),
(413,629,o),
(413,765,cs),
(413,860,o),
(366,950,o),
(258,950,cs),
(136,950,o),
(71,836,o),
(81,608,c),
(149,608,l),
(143,713,o),
(159,784,o),
(227,784,cs),
(279,784,o),
(293,742,o),
(293,680,cs),
(293,557,o),
(238,463,o),
(238,328,cs),
(238,72,o),
(434,-10,o),
(688,-10,cs)
);
}
);
};
layerId = m01;
shapes = (
{
closed = 1;
nodes = (
(965,-10,o),
(1181,87,o),
(1181,471,cs),
(1181,588,o),
(1161,684,o),
(1130,761,c),
(1239,756,o),
(1280,661,o),
(1280,512,cs),
(1280,0,l),
(1360,0,l),
(1360,512,ls),
(1360,763,o),
(1310,940,o),
(973,940,c),
(1054,795,o),
(1101,636,o),
(1101,472,cs),
(1101,253,o),
(1017,175,o),
(696,175,cs),
(428,175,o),
(320,233,o),
(320,385,cs),
(320,517,o),
(386,629,o),
(386,765,cs),
(386,861,o),
(353,950,o),
(248,950,cs),
(132,950,o),
(29,842,o),
(121,498,c),
(186,508,l),
(126,721,o),
(163,784,o),
(224,784,cs),
(274,784,o),
(286,743,o),
(286,685,cs),
(286,562,o),
(231,464,o),
(231,321,cs),
(231,146,o),
(330,-10,o),
(688,-10,cs)
);
}
);
width = 1540;
},
{
associatedMasterId = m01;
background = {
shapes = (
{
closed = 1;
nodes = (
(945,-10,o),
(1109,89,o),
(1109,398,cs),
(1109,860,l),
(1129,860,ls),
(1233,860,o),
(1279,818,o),
(1279,694,cs),
(1279,0,l),
(1459,0,l),
(1459,694,ls),
(1459,867,o),
(1369,940,o),
(1129,940,cs),
(1029,940,l),
(1029,397,ls),
(1029,195,o),
(966,75,o),
(708,75,cs),
(456,75,o),
(399,191,o),
(399,391,cs),
(399,647,ls),
(399,816,o),
(363,940,o),
(152,940,cs),
(-35,940,o),
(-115,843,o),
(-115,682,cs),
(-115,571,o),
(-75,481,o),
(48,442,c),
(81,508,l),
(-11,533,o),
(-35,606,o),
(-35,685,cs),
(-35,804,o),
(18,860,o),
(114,860,cs),
(209,860,o),
(239,806,o),
(239,647,cs),
(239,391,ls),
(239,145,o),
(345,-10,o),
(678,-10,cs)
);
}
);
};
layerId = "BCBC4CDA-5BDA-405B-A741-3F28514E6555";
name = "13 Jun 21 21.26";
shapes = (
{
closed = 1;
nodes = (
(1037,-10,o),
(1280,82,o),
(1280,474,cs),
(1280,588,o),
(1260,684,o),
(1229,761,c),
(1338,756,o),
(1379,661,o),
(1379,512,cs),
(1379,0,l),
(1459,0,l),
(1459,512,ls),
(1459,763,o),
(1409,940,o),
(1072,940,c),
(1153,795,o),
(1200,634,o),
(1200,480,cs),
(1200,265,o),
(1101,175,o),
(717,175,cs),
(442,175,o),
(317,221,o),
(317,361,cs),
(317,499,o),
(443,599,o),
(443,761,cs),
(443,862,o),
(394,950,o),
(277,950,cs),
(144,950,o),
(71,836,o),
(81,608,c),
(149,608,l),
(143,713,o),
(164,784,o),
(244,784,cs),
(307,784,o),
(323,741,o),
(323,685,cs),
(323,534,o),
(208,465,o),
(208,298,cs),
(208,120,o),
(333,-10,o),
(715,-10,cs)
);
},
{
closed = 1;
nodes = (
(1097,-10,o),
(1280,145,o),
(1280,406,cs),
(1280,579,o),
(1200,724,o),
(1001,724,c),
(1023,707,l),
(1082,744,o),
(1136,761,o),
(1197,761,cs),
(1337,761,o),
(1380,674,o),
(1380,530,cs),
(1380,0,l),
(1460,0,l),
(1460,550,ls),
(1460,802,o),
(1407,940,o),
(1209,940,cs),
(1078,940,o),
(956,878,o),
(870,730,c),
(890,690,l),
(1090,699,o),
(1200,601,o),
(1200,425,cs),
(1200,207,o),
(1030,175,o),
(750,175,cs),
(426,175,o),
(317,218,o),
(317,389,cs),
(317,540,o),
(403,611,o),
(403,759,cs),
(403,863,o),
(360,950,o),
(256,950,cs),
(137,950,o),
(71,836,o),
(81,608,c),
(149,608,l),
(143,713,o),
(160,784,o),
(223,784,cs),
(271,784,o),
(283,742,o),
(283,688,cs),
(283,553,o),
(208,478,o),
(208,331,cs),
(208,141,o),
(332,-10,o),
(712,-10,cs)
);
}
);
width = 1639;
},
{
associatedMasterId = m01;
background = {
shapes = (
{
closed = 1;
nodes = (
(1057,-10,o),
(1240,145,o),
(1240,406,cs),
(1240,579,o),
(1160,724,o),
(961,724,c),
(983,707,l),
(1042,744,o),
(1096,761,o),
(1157,761,cs),
(1297,761,o),
(1340,674,o),
(1340,530,cs),
(1340,0,l),
(1420,0,l),
(1420,550,ls),
(1420,802,o),
(1367,940,o),
(1169,940,cs),
(1038,940,o),
(916,878,o),
(830,730,c),
(850,690,l),
(1050,699,o),
(1160,601,o),
(1160,425,cs),
(1160,207,o),
(990,175,o),
(710,175,cs),
(386,175,o),
(277,218,o),
(277,389,cs),
(277,540,o),
(363,611,o),
(363,759,cs),
(363,863,o),
(320,950,o),
(216,950,cs),
(97,950,o),
(31,836,o),
(41,608,c),
(109,608,l),
(103,713,o),
(120,784,o),
(183,784,cs),
(231,784,o),
(243,742,o),
(243,688,cs),
(243,553,o),
(168,478,o),
(168,331,cs),
(168,141,o),
(292,-10,o),
(672,-10,cs)
);
}
);
};
layerId = "2EBEE277-082E-4CC7-9B0D-A610BC7B0438";
name = "18 Jun 21 01.16";
shapes = (
{
closed = 1;
nodes = (
(1010,-10,o),
(1240,84,o),
(1240,473,cs),
(1240,588,o),
(1220,684,o),
(1189,761,c),
(1298,756,o),
(1339,661,o),
(1339,512,cs),
(1339,0,l),
(1419,0,l),
(1419,512,ls),
(1419,763,o),
(1369,940,o),
(1032,940,c),
(1113,795,o),
(1160,635,o),
(1160,475,cs),
(1160,253,o),
(1070,175,o),
(727,175,cs),
(495,175,o),
(367,231,o),
(367,402,cs),
(367,527,o),
(453,613,o),
(453,759,cs),
(453,863,o),
(410,950,o),
(306,950,cs),
(187,950,o),
(121,836,o),
(131,608,c),
(199,608,l),
(193,713,o),
(210,784,o),
(273,784,cs),
(321,784,o),
(333,742,o),
(333,688,cs),
(333,553,o),
(258,472,o),
(258,338,cs),
(258,141,o),
(393,-10,o),
(710,-10,cs)
);
},
{
closed = 1;
nodes = (
(1081,-10,o),
(1240,144,o),
(1240,426,cs),
(1240,656,o),
(1135,781,o),
(931,814,c),
(983,707,l),
(1042,744,o),
(1096,761,o),
(1157,761,cs),
(1297,761,o),
(1340,674,o),
(1340,530,cs),
(1340,0,l),
(1420,0,l),
(1420,550,ls),
(1420,802,o),
(1367,940,o),
(1169,940,cs),
(1038,940,o),
(916,878,o),
(830,730,c),
(850,690,l),
(1050,699,o),
(1160,602,o),
(1160,423,cs),
(1160,207,o),
(1000,175,o),
(763,175,cs),
(492,175,o),
(377,217,o),
(377,390,cs),
(377,539,o),
(463,612,o),
(463,759,cs),
(463,863,o),
(420,950,o),
(316,950,cs),
(197,950,o),
(131,836,o),
(141,608,c),
(209,608,l),
(203,713,o),
(220,784,o),
(283,784,cs),
(331,784,o),
(343,742,o),
(343,688,cs),
(343,552,o),
(268,475,o),
(268,335,cs),
(268,141,o),
(411,-10,o),
(744,-10,cs)
);
}
);
width = 1599;
},
{
associatedMasterId = m01;
background = {
shapes = (
{
closed = 1;
nodes = (
(1022,-10,o),
(1181,144,o),
(1181,426,cs),
(1181,656,o),
(1076,781,o),
(872,814,c),
(924,707,l),
(983,744,o),
(1037,761,o),
(1098,761,cs),
(1238,761,o),
(1281,674,o),
(1281,530,cs),
(1281,0,l),
(1361,0,l),
(1361,550,ls),
(1361,802,o),
(1308,940,o),
(1110,940,cs),
(979,940,o),
(857,878,o),
(771,730,c),
(791,690,l),
(991,699,o),
(1101,602,o),
(1101,423,cs),
(1101,207,o),
(941,175,o),
(704,175,cs),
(433,175,o),
(318,217,o),
(318,390,cs),
(318,539,o),
(404,612,o),
(404,759,cs),
(404,863,o),
(361,950,o),
(257,950,cs),
(138,950,o),
(72,836,o),
(82,608,c),
(150,608,l),
(144,713,o),
(161,784,o),
(224,784,cs),
(272,784,o),
(284,742,o),
(284,688,cs),
(284,552,o),
(209,475,o),
(209,335,cs),
(209,141,o),
(352,-10,o),
(685,-10,cs)
);
}
);
};
layerId = "73064DEF-3E74-441A-ACF0-76FB2DC25CAF";
name = "11 Jul 21 11.43";
shapes = (
{
closed = 1;
nodes = (
(965,-10,o),
(1181,87,o),
(1181,471,cs),
(1181,588,o),
(1161,684,o),
(1130,761,c),
(1239,756,o),
(1280,661,o),
(1280,512,cs),
(1280,0,l),
(1360,0,l),
(1360,512,ls),
(1360,763,o),
(1310,940,o),
(973,940,c),
(1054,795,o),
(1101,636,o),
(1101,472,cs),
(1101,253,o),
(1017,175,o),
(696,175,cs),
(444,175,o),
(317,223,o),
(317,381,cs),
(317,518,o),
(413,629,o),
(413,765,cs),
(413,860,o),
(366,950,o),
(258,950,cs),
(136,950,o),
(71,836,o),
(81,608,c),
(149,608,l),
(143,713,o),
(159,784,o),
(227,784,cs),
(279,784,o),
(293,742,o),
(293,680,cs),
(293,557,o),
(238,463,o),
(238,328,cs),
(238,72,o),
(434,-10,o),
(688,-10,cs)
);
}
);
width = 1540;
}
);
metricRight = "pa-java";
unicode = 6951;
},
{
glyphname = "paKapal-bali";
lastChange = "2021-11-21 03:05:06 +0000";
layers = (
{
background = {
shapes = (
{
closed = 1;
nodes = (
(951,347,o),
(911,175,o),
(596,175,cs),
(411,175,o),
(320,234,o),
(320,387,cs),
(320,517,o),
(386,628,o),
(386,765,cs),
(386,861,o),
(353,950,o),
(248,950,cs),
(132,950,o),
(29,842,o),
(121,498,c),
(186,508,l),
(126,721,o),
(163,784,o),
(224,784,cs),
(274,784,o),
(286,743,o),
(286,685,cs),
(286,561,o),
(231,462,o),
(231,323,cs),
(231,148,o),
(319,-10,o),
(592,-10,cs),
(888,-10,o),
(1031,175,o),
(1031,724,cs),
(1031,1205,o),
(921,1352,o),
(785,1352,cs),
(695,1352,o),
(623,1287,o),
(623,1167,cs),
(623,754,o),
(1345,614,o),
(1345,1293,c),
(1260,1293,l),
(1260,829,o),
(705,964,o),
(705,1185,cs),
(705,1232,o),
(730,1272,o),
(785,1272,cs),
(890,1272,o),
(951,1124,o),
(951,695,cs)
);
}
);
};
layerId = m01;
shapes = (
{
closed = 1;
nodes = (
(706,-20,o),
(685,260,o),
(854,260,cs),
(1023,260,o),
(1007,-20,o),
(1240,-20,cs),
(1461,-20,o),
(1501,232,o),
(1501,596,cs),
(1501,1203,o),
(1391,1352,o),
(1254,1352,cs),
(1165,1352,o),
(1093,1289,o),
(1093,1161,cs),
(1093,757,o),
(1815,614,o),
(1815,1293,c),
(1730,1293,l),
(1730,829,o),
(1175,964,o),
(1175,1185,cs),
(1175,1232,o),
(1200,1272,o),
(1254,1272,cs),
(1360,1272,o),
(1421,1114,o),
(1421,613,cs),
(1421,324,o),
(1400,150,o),
(1225,150,cs),
(999,150,o),
(1050,440,o),
(865,440,cs),
(680,440,o),
(737,150,o),
(500,150,cs),
(385,150,o),
(320,219,o),
(320,373,cs),
(320,528,o),
(386,625,o),
(386,763,cs),
(386,861,o),
(353,950,o),
(248,950,cs),
(132,950,o),
(29,842,o),
(121,498,c),
(186,508,l),
(126,721,o),
(163,784,o),
(224,784,cs),
(274,784,o),
(286,743,o),
(286,684,cs),
(286,558,o),
(231,472,o),
(231,313,cs),
(231,113,o),
(318,-20,o),
(477,-20,cs)
);
}
);
width = 1735;
},
{
associatedMasterId = m01;
layerId = "CB94E1F6-5961-4B88-ABDE-2FE730AE891B";
name = "2 Aug 21 09.08";
shapes = (
{
closed = 1;
nodes = (
(951,347,o),
(911,175,o),
(596,175,cs),
(411,175,o),
(320,234,o),
(320,387,cs),
(320,517,o),
(386,628,o),
(386,765,cs),
(386,861,o),
(353,950,o),
(248,950,cs),
(132,950,o),
(29,842,o),
(121,498,c),
(186,508,l),
(126,721,o),
(163,784,o),
(224,784,cs),
(274,784,o),
(286,743,o),
(286,685,cs),
(286,561,o),
(231,462,o),
(231,323,cs),
(231,148,o),
(319,-10,o),
(592,-10,cs),
(888,-10,o),
(1031,175,o),
(1031,724,cs),
(1031,1205,o),
(921,1352,o),
(785,1352,cs),
(695,1352,o),
(623,1287,o),
(623,1167,cs),
(623,754,o),
(1345,614,o),
(1345,1293,c),
(1260,1293,l),
(1260,829,o),
(705,964,o),
(705,1185,cs),
(705,1232,o),
(730,1272,o),
(785,1272,cs),
(890,1272,o),
(951,1124,o),
(951,695,cs)
);
}
);
width = 1355;
}
);
metricLeft = "pa-bali";
unicode = 6952;
},
{
glyphname = "efSasak-bali";
lastChange = "2021-11-21 03:05:06 +0000";
layers = (
{
layerId = m01;
shapes = (
{
ref = "pa-bali";
},
{
closed = 1;
nodes = (
(995,-104,l),
(995,-281,o),
(899,-315,o),
(767,-315,cs),
(602,-315,o),
(539,-237,o),
(539,-44,cs),
(539,143,o),
(584,329,o),
(663,518,c),
(601,540,l),
(518,337,o),
(471,138,o),
(471,-64,cs),
(471,-324,o),
(567,-470,o),
(758,-470,cs),
(960,-470,o),
(1057,-335,o),
(1055,-104,c)
);
}
);
width = 1540;
}
);
unicode = 6984;
},
{
glyphname = "ja-bali";
lastChange = "2021-11-21 03:05:06 +0000";
layers = (
{
anchors = (
{
name = bottom;
pos = (1590,0);
},
{
name = top;
pos = (885,940);
}
);
layerId = m01;
shapes = (
{
closed = 1;
nodes = (
(788,0,l),
(693,133,o),
(678,292,o),
(678,389,cs),
(678,684,o),
(817,770,o),
(1143,770,cs),
(1382,770,o),
(1510,724,o),
(1510,605,cs),
(1510,467,o),
(1339,450,o),
(1100,450,c),
(1100,400,l),
(1418,400,o),
(1590,436,o),
(1590,645,cs),
(1590,842,o),
(1438,950,o),
(1145,950,cs),
(800,950,o),
(598,800,o),
(598,406,cs),
(598,351,o),
(602,257,o),
(628,175,c),
(451,177,o),
(377,229,o),
(377,379,cs),
(377,520,o),
(443,630,o),
(443,761,cs),
(443,862,o),
(404,950,o),
(282,950,cs),
(129,950,o),
(63,812,o),
(111,518,c),
(178,528,l),
(153,713,o),
(174,784,o),
(260,784,cs),
(326,784,o),
(343,742,o),
(343,680,cs),
(343,568,o),
(288,459,o),
(288,323,cs),
(288,150,o),
(378,0,o),
(697,0,cs)
);
},
{
closed = 1;
nodes = (
(1590,384,o),
(1400,420,o),
(1100,420,c),
(1100,370,l),
(1299,370,o),
(1510,352,o),
(1510,227,cs),
(1510,154,o),
(1439,133,o),
(1308,133,cs),
(1181,133,o),
(1101,160,o),
(1054,202,c),
(1028,184,l),
(1073,85,o),
(1131,-10,o),
(1342,-10,cs),
(1480,-10,o),
(1590,42,o),
(1590,190,cs)
);
}
);
width = 1770;
}
);
unicode = 6938;
},
{
glyphname = "jaJera-bali";
lastChange = "2021-11-21 03:05:06 +0000";
layers = (
{
layerId = m01;
shapes = (
{
closed = 1;
nodes = (
(800,-2010,o),
(766,-1680,o),
(1044,-1680,cs),
(1323,-1680,o),
(1259,-2010,o),
(1601,-2010,cs),
(1929,-2010,o),
(2001,-1690,o),
(2001,-1451,cs),
(2001,1008,ls),
(2001,1310,o),
(1898,1412,o),
(1775,1412,cs),
(1686,1412,o),
(1594,1361,o),
(1594,1215,cs),
(1594,825,o),
(2251,893,o),
(2251,463,c),
(2333,463,l),
(2333,1118,o),
(1676,990,o),
(1676,1239,cs),
(1676,1291,o),
(1704,1332,o),
(1766,1332,cs),
(1860,1332,o),
(1921,1240,o),
(1921,1045,cs),
(1921,-1443,ls),
(1921,-1601,o),
(1880,-1840,o),
(1580,-1840,cs),
(1222,-1840,o),
(1357,-1500,o),
(1056,-1500,cs),
(755,-1500,o),
(865,-1840,o),
(517,-1840,cs),
(305,-1840,o),
(179,-1713,o),
(179,-1433,cs),
(179,-464,o),
(1682,-868,o),
(1682,435,cs),
(1682,818,o),
(1552,950,o),
(1370,950,cs),
(1207,950,o),
(1120,844,o),
(1120,571,c),
(1180,571,l),
(1180,713,o),
(1248,770,o),
(1372,770,cs),
(1538,770,o),
(1602,669,o),
(1602,444,cs),
(1602,-650,o),
(91,-331,o),
(91,-1435,cs),
(91,-1778,o),
(237,-2010,o),
(494,-2010,cs)
);
},
{
closed = 1;
nodes = (
(788,0,l),
(695,132,o),
(678,277,o),
(678,407,cs),
(678,667,o),
(746,770,o),
(910,770,cs),
(1032,770,o),
(1100,713,o),
(1100,571,c),
(1160,571,l),
(1160,842,o),
(1073,950,o),
(915,950,cs),
(728,950,o),
(598,798,o),
(598,416,cs),
(598,349,o),
(602,257,o),
(628,175,c),
(451,177,o),
(377,229,o),
(377,379,cs),
(377,520,o),
(443,630,o),
(443,761,cs),
(443,862,o),
(404,950,o),
(282,950,cs),
(129,950,o),
(63,812,o),
(111,518,c),
(178,528,l),
(153,713,o),
(174,784,o),
(260,784,cs),
(326,784,o),
(343,742,o),
(343,680,cs),
(343,568,o),
(288,459,o),
(288,323,cs),
(288,150,o),
(378,0,o),
(697,0,cs)
);
}
);
width = 2410;
}
);
unicode = 6939;
},
{
glyphname = "ya-bali";
lastChange = "2021-11-21 03:05:06 +0000";
layers = (
{
background = {
shapes = (
{
closed = 1;
nodes = (
(816,781,l),
(816,671,ls),
(816,377,o),
(682,175,o),
(463,175,cs),
(350,175,o),
(309,229,o),
(309,330,cs),
(309,467,o),
(385,573,o),
(385,749,cs),
(385,858,o),
(356,950,o),
(248,950,cs),
(131,950,o),
(28,842,o),
(120,498,c),
(184,515,l),
(125,723,o),
(162,784,o),
(223,784,cs),
(274,784,o),
(285,741,o),
(285,676,cs),
(285,516,o),
(220,417,o),
(220,266,cs),
(220,134,o),
(269,-10,o),
(451,-10,cs),
(689,-10,o),
(877,237,o),
(877,671,cs),
(877,781,l)
);
},
{
closed = 1;
nodes = (
(827,781,l),
(827,671,ls),
(827,504,o),
(884,-10,o),
(1222,-10,cs),
(1463,-10,o),
(1472,252,o),
(1472,411,cs),
(1472,576,o),
(1462,649,o),
(1428,761,c),
(1553,756,o),
(1601,661,o),
(1601,512,cs),
(1601,0,l),
(1681,0,l),
(1681,512,ls),
(1681,763,o),
(1627,940,o),
(1264,940,c),
(1341,796,o),
(1392,639,o),
(1392,436,cs),
(1392,266,o),
(1356,175,o),
(1229,175,cs),
(1022,175,o),
(897,417,o),
(897,671,cs),
(897,781,l)
);
}
);
};
layerId = m01;
shapes = (
{
closed = 1;
nodes = (
(813,861,l),
(813,404,o),
(702,175,o),
(474,175,cs),
(364,175,o),
(309,229,o),
(309,336,cs),
(309,462,o),
(385,573,o),
(385,749,cs),
(385,858,o),
(356,950,o),
(248,950,cs),
(131,950,o),
(28,842,o),
(120,498,c),
(184,515,l),
(125,723,o),
(162,784,o),
(223,784,cs),
(274,784,o),
(285,741,o),
(285,675,cs),
(285,516,o),
(220,412,o),
(220,272,cs),
(220,134,o),
(283,-10,o),
(463,-10,cs),
(711,-10,o),
(874,263,o),
(874,861,c)
);
},
{
closed = 1;
nodes = (
(834,861,l),
(834,560,o),
(875,-10,o),
(1214,-10,cs),
(1441,-10,o),
(1472,245,o),
(1472,443,cs),
(1472,567,o),
(1460,658,o),
(1428,761,c),
(1553,756,o),
(1601,661,o),
(1601,512,cs),
(1601,0,l),
(1681,0,l),
(1681,512,ls),
(1681,763,o),
(1627,940,o),
(1264,940,c),
(1342,796,o),
(1392,629,o),
(1392,447,cs),
(1392,266,o),
(1343,175,o),
(1218,175,cs),
(1001,175,o),
(894,450,o),
(894,861,c)
);
}
);
width = 1866;
},
{
associatedMasterId = m01;
background = {
shapes = (
{
ref = "ga-bali";
}
);
};
layerId = "29E0E9FF-1C83-4730-9E7E-92A07AD9EEB6";
name = "13 Jul 21 17.04";
shapes = (
{
closed = 1;
nodes = (
(816,781,l),
(816,671,ls),
(816,377,o),
(682,175,o),
(463,175,cs),
(350,175,o),
(309,229,o),
(309,330,cs),
(309,467,o),
(385,573,o),
(385,749,cs),
(385,858,o),
(356,950,o),
(248,950,cs),
(131,950,o),
(28,842,o),
(120,498,c),
(184,515,l),
(125,723,o),
(162,784,o),
(223,784,cs),
(274,784,o),
(285,741,o),
(285,676,cs),
(285,516,o),
(220,417,o),
(220,266,cs),
(220,134,o),
(269,-10,o),
(451,-10,cs),
(689,-10,o),
(877,237,o),
(877,671,cs),
(877,781,l)
);
},
{
closed = 1;
nodes = (
(827,781,l),
(827,671,ls),
(827,504,o),
(884,-10,o),
(1222,-10,cs),
(1463,-10,o),
(1472,252,o),
(1472,411,cs),
(1472,576,o),
(1462,649,o),
(1428,761,c),
(1553,756,o),
(1601,661,o),
(1601,512,cs),
(1601,0,l),
(1681,0,l),
(1681,512,ls),
(1681,763,o),
(1627,940,o),
(1264,940,c),
(1341,796,o),
(1392,639,o),
(1392,436,cs),
(1392,266,o),
(1356,175,o),
(1229,175,cs),
(1022,175,o),
(897,417,o),
(897,671,cs),
(897,781,l)
);
}
);
width = 1826;
}
);
metricLeft = "ga-bali";
metricRight = "ga-bali";
unicode = 6956;
},
{
glyphname = "nya-bali";
lastChange = "2021-11-21 03:05:06 +0000";
layers = (
{
layerId = m01;
shapes = (
{
closed = 1;
nodes = (
(728,0,l),
(635,138,o),
(618,291,o),
(618,430,cs),
(618,673,o),
(674,770,o),
(830,770,cs),
(949,770,o),
(1025,713,o),
(1025,571,c),
(1085,571,l),
(1085,842,o),
(990,950,o),
(836,950,cs),
(654,950,o),
(538,804,o),
(538,433,cs),
(538,364,o),
(542,264,o),
(568,175,c),
(433,176,o),
(377,233,o),
(377,373,cs),
(377,526,o),
(443,628,o),
(443,760,cs),
(443,862,o),
(404,950,o),
(282,950,cs),
(129,950,o),
(63,812,o),
(111,518,c),
(178,528,l),
(153,713,o),
(174,784,o),
(260,784,cs),
(326,784,o),
(343,742,o),
(343,680,cs),
(343,567,o),
(288,462,o),
(288,320,cs),
(288,151,o),
(365,0,o),
(637,0,cs)
);
},
{
closed = 1;
nodes = (
(1491,0,ls),
(1726,0,o),
(1791,211,o),
(1791,464,c),
(1711,450,l),
(1711,255,o),
(1668,177,o),
(1560,175,c),
(1586,271,o),
(1590,380,o),
(1590,448,cs),
(1590,814,o),
(1471,950,o),
(1294,950,cs),
(1139,950,o),
(1045,845,o),
(1045,571,c),
(1105,571,l),
(1105,714,o),
(1179,770,o),
(1298,770,cs),
(1448,770,o),
(1510,681,o),
(1510,443,cs),
(1510,318,o),
(1493,144,o),
(1400,0,c)
);
},
{
closed = 1;
nodes = (
(1791,464,l),
(1791,676,o),
(1922,770,o),
(2163,770,cs),
(2411,770,o),
(2533,671,o),
(2533,423,cs),
(2533,290,o),
(2498,147,o),
(2335,147,cs),
(2235,147,o),
(2182,200,o),
(2166,294,c),
(2102,282,l),
(2102,105,o),
(2191,-12,o),
(2329,-12,cs),
(2530,-12,o),
(2613,237,o),
(2613,473,cs),
(2613,792,o),
(2462,950,o),
(2175,950,cs),
(1891,950,o),
(1711,795,o),
(1711,450,c)
);
}
);
width = 2713;
}
);
metricRight = "tedung-bali";
unicode = 6940;
},
{
glyphname = "ka_tedung-bali";
lastChange = "2021-11-21 03:05:06 +0000";
layers = (
{
anchors = (
{
name = bottom;
pos = (2075,0);
},
{
name = top;
pos = (1148,940);
}
);
layerId = m01;
shapes = (
{
closed = 1;
nodes = (
(1786,255,o),
(1742,177,o),
(1631,175,c),
(1659,271,o),
(1665,380,o),
(1665,447,cs),
(1665,783,o),
(1515,950,o),
(1184,950,cs),
(862,950,o),
(683,792,o),
(683,471,cs),
(683,178,o),
(833,-20,o),
(1088,-20,cs),
(1230,-20,o),
(1315,42,o),
(1315,158,cs),
(1315,355,o),
(1072,530,o),
(735,530,cs),
(423,530,o),
(194,380,o),
(194,142,cs),
(194,29,o),
(246,-20,o),
(332,-20,cs),
(540,-20,o),
(584,263,o),
(584,468,cs),
(584,703,o),
(526,950,o),
(334,950,cs),
(225,950,o),
(160,871,o),
(160,751,cs),
(160,663,o),
(195,582,o),
(247,522,c),
(304,558,l),
(262,617,o),
(246,660,o),
(246,694,cs),
(246,739,o),
(277,770,o),
(337,770,cs),
(443,770,o),
(504,677,o),
(504,447,cs),
(504,223,o),
(445,60,o),
(333,60,cs),
(292,60,o),
(274,82,o),
(274,129,cs),
(274,291,o),
(484,350,o),
(709,350,cs),
(951,350,o),
(1225,282,o),
(1225,147,cs),
(1225,98,o),
(1188,60,o),
(1091,60,cs),
(916,60,o),
(763,182,o),
(763,436,cs),
(763,674,o),
(897,770,o),
(1163,770,cs),
(1451,770,o),
(1585,658,o),
(1585,415,cs),
(1585,301,o),
(1556,121,o),
(1475,0,c),
(1566,0,ls),
(1801,0,o),
(1866,211,o),
(1866,464,cs),
(1866,676,o),
(1997,770,o),
(2237,770,cs),
(2486,770,o),
(2608,668,o),
(2608,431,cs),
(2608,300,o),
(2571,168,o),
(2416,168,cs),
(2310,168,o),
(2259,229,o),
(2241,354,c),
(2177,344,l),
(2177,131,o),
(2263,-12,o),
(2410,-12,cs),
(2603,-12,o),
(2688,237,o),
(2688,475,cs),
(2688,792,o),
(2537,950,o),
(2250,950,cs),
(1966,950,o),
(1786,795,o),
(1786,460,cs)
);
}
);
width = 2788;
}
);
metricLeft = "ka-bali";
metricRight = "tedung-bali";
},
{
glyphname = "sa_tedung-bali";
lastChange = "2021-11-21 03:05:06 +0000";
layers = (
{
background = {
shapes = (
{
pos = (1033,0);
ref = "tedung-bali";
}
);
};
layerId = m01;
shapes = (
{
closed = 1;
nodes = (
(919,950,o),
(1250,175,o),
(945,175,cs),
(744,175,o),
(731,480,o),
(460,480,cs),
(282,480,o),
(139,348,o),
(139,152,cs),
(139,37,o),
(188,-20,o),
(280,-20,cs),
(484,-20,o),
(529,263,o),
(529,469,cs),
(529,703,o),
(471,950,o),
(279,950,cs),
(170,950,o),
(105,871,o),
(105,751,cs),
(105,663,o),
(140,582,o),
(192,522,c),
(249,558,l),
(207,617,o),
(191,660,o),
(191,694,cs),
(191,739,o),
(222,770,o),
(282,770,cs),
(387,770,o),
(449,678,o),
(449,449,cs),
(449,224,o),
(389,60,o),
(283,60,cs),
(237,60,o),
(219,91,o),
(219,137,cs),
(219,247,o),
(325,300,o),
(415,300,cs),
(633,300,o),
(620,-10,o),
(910,-10,cs),
(1369,-10,o),
(956,770,o),
(1571,770,cs),
(1794,770,o),
(1923,668,o),
(1923,428,cs),
(1923,300,o),
(1886,167,o),
(1730,167,cs),
(1625,167,o),
(1574,228,o),
(1556,354,c),
(1492,342,l),
(1492,130,o),
(1578,-12,o),
(1725,-12,cs),
(1918,-12,o),
(2003,235,o),
(2003,479,cs),
(2003,797,o),
(1859,950,o),
(1570,950,cs)
);
}
);
width = 2103;
},
{
associatedMasterId = m01;
layerId = "06B4AEBC-37C4-41BE-83EB-F4EABB21C927";
name = "12 Jul 21 19.46";
shapes = (
{
closed = 1;
nodes = (
(484,-20,o),
(529,263,o),
(529,469,cs),
(529,703,o),
(471,950,o),
(279,950,cs),
(170,950,o),
(105,871,o),
(105,751,cs),
(105,663,o),
(140,582,o),
(192,522,c),
(249,558,l),
(207,617,o),
(191,660,o),
(191,694,cs),
(191,739,o),
(222,770,o),
(282,770,cs),
(387,770,o),
(449,678,o),
(449,449,cs),
(449,224,o),
(389,60,o),
(283,60,cs),
(237,60,o),
(219,91,o),
(219,137,cs),
(219,247,o),
(325,300,o),
(414,300,cs),
(629,300,o),
(628,-10,o),
(904,-10,cs),
(1063,-10,o),
(1181,93,o),
(1181,440,c),
(1101,440,l),
(1101,283,o),
(1064,175,o),
(945,175,cs),
(744,175,o),
(731,480,o),
(460,480,cs),
(282,480,o),
(139,348,o),
(139,152,cs),
(139,37,o),
(188,-20,o),
(280,-20,cs)
);
},
{
closed = 1;
nodes = (
(1181,440,l),
(1181,676,o),
(1312,770,o),
(1553,770,cs),
(1801,770,o),
(1923,671,o),
(1923,423,cs),
(1923,290,o),
(1888,147,o),
(1725,147,cs),
(1625,147,o),
(1572,200,o),
(1556,294,c),
(1492,282,l),
(1492,105,o),
(1581,-12,o),
(1719,-12,cs),
(1920,-12,o),
(2003,237,o),
(2003,473,cs),
(2003,792,o),
(1852,950,o),
(1565,950,cs),
(1281,950,o),
(1101,795,o),
(1101,440,c)
);
}
);
width = 2103;
}
);
metricRight = "tedung-bali";
},
{
glyphname = "ya-bali.post";
lastChange = "2021-11-21 03:05:06 +0000";
layers = (
{
layerId = m01;
shapes = (
{
closed = 1;
nodes = (
(-265,-951,o),
(-1739,-330,o),
(-1739,-1344,cs),
(-1739,-1827,o),
(-1405,-2014,o),
(-777,-2014,cs),
(-113,-2014,o),
(221,-1805,o),
(221,-1217,cs),
(221,381,ls),
(221,586,o),
(209,682,o),
(176,761,c),
(305,756,o),
(350,661,o),
(350,512,cs),
(350,-2000,l),
(430,-2000,l),
(430,512,ls),
(430,763,o),
(376,940,o),
(13,940,c),
(94,792,o),
(141,660,o),
(141,382,cs),
(141,-1217,ls),
(141,-1692,o),
(-203,-1834,o),
(-800,-1834,cs),
(-1237,-1834,o),
(-1651,-1758,o),
(-1651,-1324,cs),
(-1651,-507,o),
(-185,-1147,o),
(-185,0,cs),
(-185,10,l),
(-265,10,l),
(-265,0,l)
);
}
);
width = 615;
}
);
metricRight = "ha-bali";
},
{
glyphname = "ya-bali.post2";
lastChange = "2021-11-21 03:05:06 +0000";
layers = (
{
layerId = m01;
shapes = (
{
closed = 1;
nodes = (
(-229,-1499,o),
(-1129,-1231,o),
(-1129,-1704,cs),
(-1129,-1934,o),
(-917,-2014,o),
(-572,-2014,cs),
(-57,-2014,o),
(171,-1835,o),
(171,-1327,cs),
(171,381,ls),
(171,586,o),
(159,682,o),
(126,761,c),
(255,756,o),
(300,661,o),
(300,512,cs),
(300,-2000,l),
(380,-2000,l),
(380,512,ls),
(380,763,o),
(326,940,o),
(-37,940,c),
(44,792,o),
(91,660,o),
(91,382,cs),
(91,-1327,ls),
(91,-1742,o),
(-180,-1834,o),
(-592,-1834,cs),
(-827,-1834,o),
(-1041,-1804,o),
(-1041,-1652,cs),
(-1041,-1342,o),
(-149,-1552,o),
(-149,-1122,cs),
(-149,-1112,l),
(-229,-1112,l),
(-229,-1122,l)
);
}
);
width = 565;
}
);
metricRight = "ha-bali";
},
{
color = 0;
glyphname = "ha-bali.001";
lastChange = "2021-11-21 03:05:06 +0000";
layers = (
{
background = {
shapes = (
{
closed = 1;
nodes = (
(1130,-10,o),
(1130,270,o),
(1130,428,cs),
(1130,532,ls),
(1130,700,o),
(1181,765,o),
(1333,765,cs),
(1502,765,o),
(1548,685,o),
(1548,532,cs),
(1548,277,ls),
(1548,78,o),
(1586,-10,o),
(1690,-10,cs),
(1794,-10,o),
(1860,78,o),
(1860,382,cs),
(1860,546,o),
(1840,663,o),
(1809,761,c),
(1918,756,o),
(1959,661,o),
(1959,512,cs),
(1959,0,l),
(2039,0,l),
(2039,512,ls),
(2039,763,o),
(1989,940,o),
(1652,940,c),
(1740,757,o),
(1780,600,o),
(1780,364,cs),
(1780,213,o),
(1764,98,o),
(1691,98,cs),
(1639,98,o),
(1629,156,o),
(1629,295,cs),
(1629,532,ls),
(1629,698,o),
(1629,950,o),
(1340,950,cs),
(1117,950,o),
(1049,800,o),
(1049,532,cs),
(1049,398,ls),
(1049,249,o),
(977,175,o),
(706,175,cs),
(489,175,o),
(392,222,o),
(392,339,cs),
(392,473,o),
(518,595,o),
(518,760,cs),
(518,863,o),
(469,950,o),
(352,950,cs),
(219,950,o),
(146,836,o),
(156,608,c),
(224,608,l),
(218,713,o),
(239,784,o),
(319,784,cs),
(382,784,o),
(398,741,o),
(398,685,cs),
(398,536,o),
(283,435,o),
(283,275,cs),
(283,128,o),
(381,-10,o),
(690,-10,cs)
);
}
);
};
layerId = m01;
shapes = (
{
closed = 1;
nodes = (
(514,607,ls),
(514,793,o),
(489,860,o),
(386,860,cs),
(291,860,o),
(240,804,o),
(240,686,cs),
(240,590,o),
(274,531,o),
(356,508,c),
(323,442,l),
(200,481,o),
(160,572,o),
(160,679,cs),
(160,843,o),
(253,940,o),
(432,940,cs),
(647,940,o),
(674,801,o),
(674,607,cs),
(674,321,ls),
(674,175,o),
(720,96,o),
(896,96,cs),
(1049,96,o),
(1113,157,o),
(1114,321,cs),
(1115,587,ls),
(1116,854,o),
(1248,940,o),
(1435,940,cs),
(1694,940,o),
(1804,777,o),
(1804,456,cs),
(1804,240,o),
(1754,137,o),
(1681,76,c),
(1860,76,o),
(1904,233,o),
(1904,487,cs),
(1904,726,o),
(1866,851,o),
(1775,940,c),
(2004,940,ls),
(2244,940,o),
(2334,867,o),
(2334,694,cs),
(2334,0,l),
(2154,0,l),
(2154,694,ls),
(2154,818,o),
(2108,860,o),
(2004,860,cs),
(1923,860,l),
(1962,795,o),
(1984,664,o),
(1984,488,cs),
(1984,135,o),
(1896,0,o),
(1614,0,cs),
(1474,0,l),
(1577,92,o),
(1624,224,o),
(1624,460,cs),
(1624,781,o),
(1537,860,o),
(1402,860,cs),
(1279,860,o),
(1196,796,o),
(1195,587,cs),
(1194,321,ls),
(1193,71,o),
(1067,-6,o),
(858,-6,cs),
(634,-6,o),
(514,79,o),
(514,321,cs)
);
}
);
width = 2519;
},
{
associatedMasterId = m01;
background = {
shapes = (
{
closed = 1;
nodes = (
(198,621,l),
(175,644,o),
(165,677,o),
(165,721,cs),
(165,814,o),
(208,860,o),
(290,860,cs),
(360,860,o),
(399,829,o),
(399,730,cs),
(399,571,o),
(299,455,o),
(299,281,cs),
(299,69,o),
(448,-20,o),
(699,-20,cs),
(975,-20,o),
(1119,88,o),
(1119,321,cs),
(1119,587,ls),
(1119,783,o),
(1192,860,o),
(1326,860,cs),
(1462,860,o),
(1549,781,o),
(1549,460,cs),
(1549,224,o),
(1502,92,o),
(1399,0,c),
(1539,0,ls),
(1821,0,o),
(1909,135,o),
(1909,488,cs),
(1909,664,o),
(1887,795,o),
(1848,860,c),
(1929,860,ls),
(2033,860,o),
(2079,818,o),
(2079,694,cs),
(2079,0,l),
(2259,0,l),
(2259,694,ls),
(2259,867,o),
(2169,940,o),
(1929,940,cs),
(1700,940,l),
(1791,851,o),
(1829,726,o),
(1829,487,cs),
(1829,233,o),
(1785,76,o),
(1606,76,c),
(1679,138,o),
(1729,275,o),
(1729,483,cs),
(1729,797,o),
(1615,940,o),
(1364,940,cs),
(1173,940,o),
(1039,857,o),
(1039,587,cs),
(1039,321,ls),
(1039,173,o),
(963,82,o),
(736,82,cs),
(524,82,o),
(459,161,o),
(459,288,cs),
(459,446,o),
(559,581,o),
(559,725,cs),
(559,838,o),
(498,940,o),
(325,940,cs),
(163,940,o),
(85,850,o),
(85,716,cs),
(85,657,o),
(100,608,o),
(140,571,c)
);
}
);
};
layerId = "2CF828EC-00E2-48F4-AE9D-55EDF8411091";
name = "13 Jun 21 14.43";
shapes = (
{
closed = 0;
nodes = (
(1003,623,l),
(1003,428,ls),
(1003,261,o),
(922,175,o),
(630,175,cs),
(415,175,o),
(326,222,o),
(326,339,cs),
(326,484,o),
(462,595,o),
(462,760,cs),
(462,863,o),
(409,950,o),
(289,950,cs),
(152,950,o),
(80,836,o),
(90,608,c),
(158,608,l),
(152,713,o),
(172,784,o),
(257,784,cs),
(324,784,o),
(342,740,o),
(342,686,cs),
(342,544,o),
(217,460,o),
(217,286,cs),
(217,122,o),
(328,-10,o),
(640,-10,cs),
(1084,-10,o),
(1084,258,o),
(1084,428,cs),
(1084,605,l)
);
},
{
closed = 0;
nodes = (
(1086,479,ls),
(1086,673,o),
(1133,765,o),
(1279,765,cs),
(1586,765,o),
(1673,662,o),
(1673,472,cs),
(1673,277,ls),
(1673,78,o),
(1711,-10,o),
(1815,-10,cs),
(1919,-10,o),
(1985,78,o),
(1985,382,cs),
(1985,546,o),
(1965,663,o),
(1934,761,c),
(2048,756,o),
(2084,652,o),
(2084,472,cs),
(2084,0,l),
(2164,0,l),
(2164,472,ls),
(2164,754,o),
(2124,940,o),
(1777,940,c),
(1865,757,o),
(1905,600,o),
(1905,364,cs),
(1905,213,o),
(1889,98,o),
(1816,98,cs),
(1764,98,o),
(1754,156,o),
(1754,295,cs),
(1754,472,ls),
(1754,658,o),
(1754,950,o),
(1301,950,cs),
(1084,950,o),
(1007,767,o),
(1007,501,cs)
);
},
{
pos = (200,0);
ref = "ka-bali";
}
);
width = 2440;
},
{
associatedMasterId = m01;
background = {
shapes = (
{
pos = (1,0);
ref = "ka-bali";
}
);
};
layerId = "15CF9C65-FC4E-4FE6-AA79-766383A9C486";
name = "13 Jun 21 14.46";
shapes = (
{
closed = 1;
nodes = (
(1055,-10,o),
(1055,270,o),
(1055,428,cs),
(1055,532,ls),
(1055,700,o),
(1106,765,o),
(1258,765,cs),
(1427,765,o),
(1473,685,o),
(1473,532,cs),
(1473,277,ls),
(1473,78,o),
(1511,-10,o),
(1615,-10,cs),
(1719,-10,o),
(1785,78,o),
(1785,382,cs),
(1785,546,o),
(1765,663,o),
(1734,761,c),
(1843,756,o),
(1884,661,o),
(1884,512,cs),
(1884,0,l),
(1964,0,l),
(1964,512,ls),
(1964,763,o),
(1914,940,o),
(1577,940,c),
(1665,757,o),
(1705,600,o),
(1705,364,cs),
(1705,213,o),
(1689,98,o),
(1616,98,cs),
(1564,98,o),
(1554,156,o),
(1554,295,cs),
(1554,532,ls),
(1554,698,o),
(1554,950,o),
(1265,950,cs),
(1042,950,o),
(974,800,o),
(974,532,cs),
(974,398,ls),
(974,249,o),
(902,175,o),
(631,175,cs),
(414,175,o),
(317,222,o),
(317,339,cs),
(317,473,o),
(443,595,o),
(443,760,cs),
(443,863,o),
(394,950,o),
(277,950,cs),
(144,950,o),
(71,836,o),
(81,608,c),
(149,608,l),
(143,713,o),
(164,784,o),
(244,784,cs),
(307,784,o),
(323,741,o),
(323,685,cs),
(323,536,o),
(208,435,o),
(208,275,cs),
(208,128,o),
(306,-10,o),
(615,-10,cs)
);
}
);
width = 2144;
}
);
metricLeft = "ka-bali";
metricRight = "=ha-bali";
},
{
glyphname = "na-bali.001";
lastChange = "2021-11-21 03:05:06 +0000";
layers = (
{
anchors = (
{
name = bottom;
pos = (1670,0);
},
{
name = cerek;
pos = (1210,0);
},
{
name = top;
pos = (1670,940);
}
);
background = {
shapes = (
{
closed = 1;
nodes = (
(525,-20,o),
(569,263,o),
(569,468,cs),
(569,703,o),
(511,950,o),
(319,950,cs),
(210,950,o),
(145,871,o),
(145,751,cs),
(145,663,o),
(180,582,o),
(232,522,c),
(289,558,l),
(247,617,o),
(231,660,o),
(231,694,cs),
(231,739,o),
(262,770,o),
(322,770,cs),
(428,770,o),
(489,677,o),
(489,447,cs),
(489,223,o),
(430,60,o),
(318,60,cs),
(277,60,o),
(259,82,o),
(259,130,cs),
(259,291,o),
(458,350,o),
(671,350,cs),
(899,350,o),
(1160,282,o),
(1160,147,cs),
(1160,98,o),
(1125,60,o),
(1026,60,cs),
(837,60,o),
(748,200,o),
(748,416,cs),
(748,681,o),
(882,770,o),
(1143,770,cs),
(1431,770,o),
(1570,661,o),
(1570,431,cs),
(1570,0,l),
(1650,0,l),
(1650,431,ls),
(1650,781,o),
(1501,950,o),
(1164,950,cs),
(847,950,o),
(668,801,o),
(668,448,cs),
(668,188,o),
(765,-20,o),
(1024,-20,cs),
(1166,-20,o),
(1250,42,o),
(1250,159,cs),
(1250,355,o),
(1017,530,o),
(695,530,cs),
(396,530,o),
(179,379,o),
(179,144,cs),
(179,29,o),
(231,-20,o),
(317,-20,cs)
);
}
);
};
layerId = m01;
shapes = (
{
closed = 1;
nodes = (
(545,-20,o),
(589,263,o),
(589,468,cs),
(589,703,o),
(531,950,o),
(339,950,cs),
(230,950,o),
(165,871,o),
(165,751,cs),
(165,663,o),
(200,582,o),
(252,522,c),
(309,558,l),
(267,617,o),
(251,660,o),
(251,694,cs),
(251,739,o),
(282,770,o),
(342,770,cs),
(447,770,o),
(509,678,o),
(509,449,cs),
(509,223,o),
(449,60,o),
(342,60,cs),
(294,60,o),
(279,92,o),
(279,134,cs),
(279,289,o),
(489,350,o),
(716,350,cs),
(955,350,o),
(1230,282,o),
(1230,147,cs),
(1230,98,o),
(1193,60,o),
(1096,60,cs),
(921,60,o),
(768,182,o),
(768,436,cs),
(768,674,o),
(902,770,o),
(1167,770,cs),
(1451,770,o),
(1590,660,o),
(1590,431,cs),
(1590,0,l),
(1670,0,l),
(1670,431,ls),
(1670,779,o),
(1521,950,o),
(1188,950,cs),
(867,950,o),
(688,792,o),
(688,471,cs),
(688,178,o),
(838,-20,o),
(1093,-20,cs),
(1235,-20,o),
(1320,42,o),
(1320,158,cs),
(1320,355,o),
(1077,530,o),
(740,530,cs),
(428,530,o),
(199,380,o),
(199,142,cs),
(199,29,o),
(251,-20,o),
(337,-20,cs)
);
},
{
ref = "ta-bali.below";
},
{
pos = (-324,0);
ref = "ra-bali.below.001";
}
);
width = 1890;
},
{
anchors = (
{
name = cerek;
pos = (1146,0);
}
);
associatedMasterId = m01;
background = {
shapes = (
{
closed = 1;
nodes = (
(333,70,o),
(290,118,o),
(267,182,o),
(260,265,o),
(260,320,qs),
(260,660,ls),
(260,710,o),
(275,791,o),
(310,841,o),
(351,860,o),
(376,860,qs),
(394,860,o),
(415,852,o),
(431,830,o),
(440,791,o),
(440,760,qs),
(440,0,l),
(620,0,l),
(620,400,l),
(705,400,o),
(845,362,o),
(900,333,q),
(900,160,ls),
(900,61,o),
(981,-20,o),
(1060,-20,qs),
(1132,-20,o),
(1220,47,o),
(1220,110,qs),
(1220,148,o),
(1188,227,o),
(1126,304,o),
(1037,374,o),
(980,402,q),
(980,660,ls),
(980,716,o),
(1006,792,o),
(1053,839,o),
(1119,860,o),
(1160,860,qs),
(1320,860,ls),
(1357,860,o),
(1423,836,o),
(1472,779,o),
(1500,687,o),
(1500,620,qs),
(1500,140,ls),
(1500,68,o),
(1568,0,o),
(1630,0,qs),
(1730,0,ls),
(1754,0,o),
(1801,12,o),
(1837,43,o),
(1860,98,o),
(1860,140,qs),
(1860,580,ls),
(1860,684,o),
(1846,818,o),
(1834,860,q),
(1920,860,ls),
(1961,860,o),
(2021,837,o),
(2061,784,o),
(2080,700,o),
(2080,640,qs),
(2080,0,l),
(2260,0,l),
(2260,640,ls),
(2260,722,o),
(2233,836,o),
(2175,908,o),
(2084,940,o),
(2020,940,qs),
(1681,940,l),
(1710,916,o),
(1748,860,o),
(1771,779,o),
(1780,664,o),
(1780,580,qs),
(1780,140,ls),
(1780,113,o),
(1759,80,o),
(1730,80,qs),
(1700,80,o),
(1680,108,o),
(1680,140,qs),
(1680,620,ls),
(1680,710,o),
(1642,832,o),
(1573,907,o),
(1477,940,o),
(1420,940,qs),
(1160,940,ls),
(1105,940,o),
(1010,910,o),
(940,844,o),
(900,737,o),
(900,660,qs),
(900,435,l),
(839,456,o),
(699,480,o),
(620,480,q),
(620,760,ls),
(620,809,o),
(599,878,o),
(561,921,o),
(512,940,o),
(470,940,qs),
(400,940,ls),
(334,940,o),
(263,898,o),
(213,833,o),
(180,728,o),
(180,660,qs),
(180,320,ls),
(180,254,o),
(191,153,o),
(223,73,o),
(281,10,o),
(329,-18,q),
(369,49,l)
);
},
{
closed = 1;
nodes = (
(1080,152,o),
(1080,120,qs),
(1080,101,o),
(1063,80,o),
(1040,80,qs),
(1012,80,o),
(980,120,o),
(980,160,qs),
(980,279,l),
(1029,238,o)
);
}
);
};
layerId = "7AF252CD-D43B-41A7-AE4E-57CCB2CC86FD";
name = "13 Jun 21 15.36";
shapes = (
{
closed = 1;
nodes = (
(619,-20,o),
(669,254,o),
(669,467,cs),
(669,732,o),
(592,940,o),
(336,940,cs),
(162,940,o),
(65,843,o),
(65,678,cs),
(65,572,o),
(105,481,o),
(228,442,c),
(261,508,l),
(169,533,o),
(145,607,o),
(145,682,cs),
(145,805,o),
(209,860,o),
(310,860,cs),
(448,860,o),
(509,758,o),
(509,458,cs),
(509,212,o),
(468,80,o),
(367,80,cs),
(326,80,o),
(309,102,o),
(309,151,cs),
(309,325,o),
(528,400,o),
(721,400,cs),
(921,400,o),
(1148,319,o),
(1148,158,cs),
(1148,101,o),
(1120,80,o),
(1065,80,cs),
(929,80,o),
(848,208,o),
(848,458,cs),
(848,755,o),
(963,860,o),
(1210,860,cs),
(1394,860,o),
(1538,802,o),
(1538,542,cs),
(1538,0,l),
(1718,0,l),
(1718,536,ls),
(1718,802,o),
(1564,940,o),
(1240,940,cs),
(933,940,o),
(768,816,o),
(768,462,cs),
(768,181,o),
(872,-20,o),
(1092,-20,cs),
(1198,-20,o),
(1288,26,o),
(1288,137,cs),
(1288,327,o),
(1021,480,o),
(734,480,cs),
(474,480,o),
(229,354,o),
(229,138,cs),
(229,43,o),
(277,-20,o),
(388,-20,cs)
);
}
);
width = 1889;
},
{
anchors = (
{
name = cerek;
pos = (1150,0);
}
);
associatedMasterId = m01;
background = {
shapes = (
{
closed = 1;
nodes = (
(623,-20,o),
(673,254,o),
(673,467,cs),
(673,732,o),
(596,940,o),
(340,940,cs),
(166,940,o),
(69,843,o),
(69,678,cs),
(69,572,o),
(109,481,o),
(232,442,c),
(265,508,l),
(173,533,o),
(149,607,o),
(149,682,cs),
(149,805,o),
(213,860,o),
(314,860,cs),
(452,860,o),
(513,758,o),
(513,458,cs),
(513,212,o),
(472,80,o),
(371,80,cs),
(330,80,o),
(313,102,o),
(313,151,cs),
(313,325,o),
(532,400,o),
(725,400,cs),
(925,400,o),
(1152,319,o),
(1152,158,cs),
(1152,101,o),
(1124,80,o),
(1069,80,cs),
(933,80,o),
(852,208,o),
(852,458,cs),
(852,755,o),
(967,860,o),
(1214,860,cs),
(1398,860,o),
(1542,802,o),
(1542,542,cs),
(1542,0,l),
(1722,0,l),
(1722,536,ls),
(1722,802,o),
(1568,940,o),
(1244,940,cs),
(937,940,o),
(772,816,o),
(772,462,cs),
(772,181,o),
(876,-20,o),
(1096,-20,cs),
(1202,-20,o),
(1292,26,o),
(1292,137,cs),
(1292,327,o),
(1025,480,o),
(738,480,cs),
(478,480,o),
(233,354,o),
(233,138,cs),
(233,43,o),
(281,-20,o),
(392,-20,cs)
);
}
);
};
layerId = "D1C7AB36-496C-4CC7-8709-3C5F435BDB78";
name = "11 Jul 21 11.51";
shapes = (
{
closed = 1;
nodes = (
(465,-20,o),
(509,263,o),
(509,468,cs),
(509,703,o),
(451,950,o),
(259,950,cs),
(150,950,o),
(85,871,o),
(85,751,cs),
(85,663,o),
(120,582,o),
(172,522,c),
(229,558,l),
(187,617,o),
(171,660,o),
(171,694,cs),
(171,739,o),
(202,770,o),
(262,770,cs),
(368,770,o),
(429,677,o),
(429,447,cs),
(429,223,o),
(370,60,o),
(258,60,cs),
(217,60,o),
(199,82,o),
(199,130,cs),
(199,291,o),
(398,350,o),
(611,350,cs),
(839,350,o),
(1100,282,o),
(1100,147,cs),
(1100,98,o),
(1065,60,o),
(966,60,cs),
(777,60,o),
(688,200,o),
(688,416,cs),
(688,681,o),
(822,770,o),
(1083,770,cs),
(1371,770,o),
(1510,661,o),
(1510,431,cs),
(1510,0,l),
(1590,0,l),
(1590,431,ls),
(1590,781,o),
(1441,950,o),
(1104,950,cs),
(787,950,o),
(608,801,o),
(608,448,cs),
(608,188,o),
(705,-20,o),
(964,-20,cs),
(1106,-20,o),
(1190,42,o),
(1190,159,cs),
(1190,355,o),
(957,530,o),
(635,530,cs),
(336,530,o),
(119,379,o),
(119,144,cs),
(119,29,o),
(171,-20,o),
(257,-20,cs)
);
}
);
width = 1770;
}
);
note = uniA98F;
},
{
color = 0;
glyphname = "wa-bali.001";
lastChange = "2021-11-21 03:05:06 +0000";
layers = (
{
background = {
shapes = (
{
ref = "pa-bali";
}
);
};
layerId = m01;
shapes = (
{
closed = 1;
nodes = (
(1136,-6,o),
(1308,78,o),
(1309,361,cs),
(1310,580,ls),
(1311,722,o),
(1265,843,o),
(1081,834,c),
(1053,817,l),
(1130,844,o),
(1203,860,o),
(1273,860,cs),
(1433,860,o),
(1480,776,o),
(1480,630,cs),
(1480,0,l),
(1660,0,l),
(1660,630,ls),
(1660,830,o),
(1565,940,o),
(1310,940,cs),
(1174,940,o),
(1039,909,o),
(940,840,c),
(970,770,l),
(1112,816,o),
(1231,795,o),
(1230,580,cs),
(1229,361,ls),
(1228,165,o),
(1126,96,o),
(906,96,cs),
(655,96,o),
(599,185,o),
(599,361,cs),
(599,607,ls),
(599,801,o),
(572,940,o),
(357,940,cs),
(178,940,o),
(85,843,o),
(85,679,cs),
(85,572,o),
(125,481,o),
(248,442,c),
(281,508,l),
(199,531,o),
(165,590,o),
(165,686,cs),
(165,804,o),
(216,860,o),
(311,860,cs),
(414,860,o),
(439,793,o),
(439,607,cs),
(439,361,ls),
(439,87,o),
(582,-6,o),
(868,-6,cs)
);
}
);
width = 1840;
}
);
metricRight = "pa-java";
},
{
glyphname = "ka-bugi";
kernRight = "ka-bugi";
lastChange = "2021-11-21 03:05:06 +0000";
layers = (
{
anchors = (
{
name = bottom;
pos = (1232,0);
},
{
name = top;
pos = (934,612);
},
{
name = topleft;
pos = (440,612);
}
);
layerId = m01;
shapes = (
{
closed = 1;
nodes = (
(573,331,o),
(742,475,o),
(871,578,c),
(757,709,l),
(606,590,o),
(424,443,o),
(115,169,c),
(235,31,l)
);
},
{
closed = 1;
nodes = (
(1073,331,o),
(1242,475,o),
(1371,578,c),
(1257,709,l),
(1106,590,o),
(924,443,o),
(615,169,c),
(735,31,l)
);
}
);
width = 1486;
}
);
metricRight = "=|";
unicode = 6656;
},
{
glyphname = "ga-bugi";
kernRight = "ma-bugi";
lastChange = "2021-11-21 03:05:06 +0000";
layers = (
{
anchors = (
{
name = bottom;
pos = (1607,0);
},
{
name = top;
pos = (928,612);
},
{
name = topleft;
pos = (475,612);
}
);
layerId = m01;
shapes = (
{
closed = 1;
nodes = (
(549,311,o),
(709,444,o),
(817,444,cs),
(922,444,o),
(1032,328,o),
(1286,31,c),
(1352,84,l),
(1071,427,o),
(928,612,o),
(768,612,cs),
(617,612,o),
(424,449,o),
(115,169,c),
(235,31,l)
);
},
{
closed = 1;
nodes = (
(1286,31,l),
(1544,228,o),
(1707,351,o),
(1707,480,cs),
(1707,617,o),
(1547,788,o),
(1247,1074,c),
(1184,1018,l),
(1450,768,o),
(1549,637,o),
(1549,548,cs),
(1549,460,o),
(1424,366,o),
(1171,173,c)
);
},
{
closed = 1;
nodes = (
(861,11,o),
(914,64,o),
(914,128,cs),
(914,191,o),
(861,244,o),
(798,244,cs),
(734,244,o),
(681,191,o),
(681,128,cs),
(681,64,o),
(734,11,o),
(798,11,cs)
);
}
);
width = 1822;
}
);
metricRight = "=|";
unicode = 6657;
},
{
glyphname = "nga-bugi";
kernRight = "nga-bugi";
lastChange = "2021-11-21 03:05:06 +0000";
layers = (
{
anchors = (
{
name = bottom;
pos = (1232,0);
},
{
name = top;
pos = (1134,612);
},
{
name = topleft;
pos = (340,612);
}
);
layerId = m01;
shapes = (
{
closed = 1;
nodes = (
(549,311,o),
(708,444,o),
(825,444,cs),
(921,444,o),
(1007,358,o),
(1286,31,c),
(1352,84,l),
(1133,353,o),
(879,665,o),
(450,1074,c),
(377,1008,l),
(559,833,o),
(661,723,o),
(792,582,c),
(811,611,l),
(631,624,o),
(435,459,o),
(115,169,c),
(235,31,l)
);
}
);
width = 1467;
}
);
metricRight = "=|";
unicode = 6658;
},
{
glyphname = "ngka-bugi";
lastChange = "2021-11-21 03:05:06 +0000";
layers = (
{
anchors = (
{
name = bottom;
pos = (1232,0);
},
{
name = top;
pos = (934,712);
},
{
name = topleft;
pos = (440,612);
}
);
layerId = m01;
shapes = (
{
closed = 1;
nodes = (
(549,311,o),
(709,444,o),
(817,444,cs),
(922,444,o),
(1032,328,o),
(1286,31,c),
(1352,84,l),
(1135,349,o),
(1001,519,o),
(877,583,c),
(1011,692,o),
(1099,744,o),
(1167,744,cs),
(1263,744,o),
(1364,636,o),
(1596,361,c),
(1662,414,l),
(1401,738,o),
(1261,912,o),
(1136,912,cs),
(962,912,o),
(558,569,o),
(115,169,c),
(235,31,l)
);
}
);
width = 1777;
}
);
metricRight = "=|";
unicode = 6659;
},
{
glyphname = "pa-bugi";
lastChange = "2021-11-21 03:05:06 +0000";
layers = (
{
anchors = (
{
name = bottom;
pos = (1332,0);
},
{
name = top;
pos = (934,612);
},
{
name = topleft;
pos = (440,612);
}
);
layerId = m01;
shapes = (
{
closed = 1;
nodes = (
(549,311,o),
(709,444,o),
(817,444,cs),
(922,444,o),
(1032,328,o),
(1286,31,c),
(1352,84,l),
(1071,427,o),
(928,612,o),
(768,612,cs),
(617,612,o),
(424,449,o),
(115,169,c),
(235,31,l)
);
},
{
closed = 1;
nodes = (
(1286,31,l),
(1544,228,o),
(1707,351,o),
(1707,480,cs),
(1707,617,o),
(1547,788,o),
(1247,1074,c),
(1184,1018,l),
(1450,768,o),
(1549,637,o),
(1549,548,cs),
(1549,460,o),
(1424,366,o),
(1171,173,c)
);
}
);
width = 1822;
}
);
metricRight = "=|";
unicode = 6660;
},
{
glyphname = "ba-bugi";
lastChange = "2021-11-21 03:05:06 +0000";
layers = (
{
anchors = (
{
name = bottom;
pos = (1232,0);
},
{
name = top;
pos = (967,1276);
},
{
name = topleft;
pos = (340,612);
}
);
layerId = m01;
shapes = (
{
closed = 1;
nodes = (
(549,311,o),
(708,444,o),
(825,444,cs),
(921,444,o),
(1007,358,o),
(1286,31,c),
(1352,84,l),
(1156,331,o),
(928,618,o),
(544,993,c),
(454,940,l),
(602,793,o),
(685,700,o),
(792,582,c),
(811,611,l),
(631,624,o),
(435,459,o),
(115,169,c),
(235,31,l)
);
},
{
closed = 1;
nodes = (
(823,1009,o),
(947,1108,o),
(1018,1108,cs),
(1089,1108,o),
(1164,1005,o),
(1357,761,c),
(1423,814,l),
(1192,1107,o),
(1088,1276,o),
(967,1276,cs),
(858,1276,o),
(700,1149,o),
(454,940,c),
(592,806,l)
);
}
);
width = 1538;
}
);
metricRight = "=|";
unicode = 6661;
},
{
glyphname = "ma-bugi";
kernRight = "ma-bugi";
lastChange = "2021-11-21 03:05:06 +0000";
layers = (
{
anchors = (
{
name = bottom;
pos = (1232,0);
},
{
name = top;
pos = (924,612);
},
{
name = topleft;
pos = (390,612);
}
);
layerId = m01;
shapes = (
{
closed = 1;
nodes = (
(850,31,o),
(1043,194,o),
(1352,474,c),
(1232,612,l),
(918,332,o),
(758,199,o),
(650,199,cs),
(545,199,o),
(435,315,o),
(181,612,c),
(115,559,l),
(396,216,o),
(539,31,o),
(699,31,cs)
);
}
);
width = 1467;
}
);
metricRight = "=|";
unicode = 6662;
},
{
glyphname = "mpa-bugi";
kernRight = "ma-bugi";
lastChange = "2021-11-21 03:05:06 +0000";
layers = (
{
anchors = (
{
name = bottom;
pos = (1532,0);
},
{
name = top;
pos = (1092,612);
},
{
name = topleft;
pos = (340,612);
}
);
layerId = m01;
shapes = (
{
closed = 1;
nodes = (
(549,311,o),
(708,444,o),
(825,444,cs),
(921,444,o),
(1007,358,o),
(1286,31,c),
(1352,84,l),
(1133,353,o),
(879,665,o),
(450,1074,c),
(377,1008,l),
(559,833,o),
(661,723,o),
(792,582,c),
(811,611,l),
(631,624,o),
(435,459,o),
(115,169,c),
(235,31,l)
);
},
{
closed = 1;
nodes = (
(1286,31,l),
(1544,228,o),
(1707,351,o),
(1707,480,cs),
(1707,617,o),
(1547,788,o),
(1247,1074,c),
(1184,1018,l),
(1450,768,o),
(1549,637,o),
(1549,548,cs),
(1549,460,o),
(1424,366,o),
(1171,173,c)
);
}
);
width = 1822;
}
);
metricRight = "=|";
unicode = 6663;
},
{
glyphname = "ta-bugi";
kernRight = "nga-bugi";
lastChange = "2021-11-21 03:05:06 +0000";
layers = (
{
anchors = (
{
name = bottom;
pos = (1232,0);
},
{
name = top;
pos = (944,612);
},
{
name = topleft;
pos = (440,612);
}
);
background = {
shapes = (
{
closed = 1;
nodes = (
(549,311,o),
(709,444,o),
(817,444,cs),
(922,444,o),
(1032,328,o),
(1286,31,c),
(1352,84,l),
(1071,427,o),
(928,612,o),
(768,612,cs),
(617,612,o),
(424,449,o),
(115,169,c),
(235,31,l)
);
},
{
closed = 1;
nodes = (
(1290,35,l),
(1548,232,o),
(1700,357,o),
(1720,471,cs),
(1722,480,o),
(1723,490,o),
(1723,499,cs),
(1723,636,o),
(1551,792,o),
(1251,1078,c),
(1188,1022,l),
(1454,772,o),
(1565,656,o),
(1565,567,cs),
(1565,561,o),
(1564,555,o),
(1563,549,cs),
(1549,470,o),
(1428,370,o),
(1175,177,c)
);
}
);
};
layerId = m01;
shapes = (
{
closed = 1;
nodes = (
(549,311,o),
(709,444,o),
(817,444,cs),
(922,444,o),
(1032,328,o),
(1286,31,c),
(1352,84,l),
(1071,427,o),
(928,612,o),
(768,612,cs),
(617,612,o),
(424,449,o),
(115,169,c),
(235,31,l)
);
}
);
width = 1467;
}
);
metricRight = "=|";
unicode = 6664;
},
{
glyphname = "da-bugi";
kernRight = "ma-bugi";
lastChange = "2021-11-21 03:05:06 +0000";
layers = (
{
anchors = (
{
name = bottom;
pos = (1232,0);
},
{
name = top;
pos = (934,612);
},
{
name = topleft;
pos = (440,612);
}
);
layerId = m01;
shapes = (
{
closed = 1;
nodes = (
(850,31,o),
(1043,194,o),
(1352,474,c),
(1232,612,l),
(918,332,o),
(758,199,o),
(650,199,cs),
(545,199,o),
(435,315,o),
(181,612,c),
(115,559,l),
(396,216,o),
(539,31,o),
(699,31,cs)
);
},
{
closed = 1;
nodes = (
(751,401,o),
(804,454,o),
(804,518,cs),
(804,581,o),
(751,634,o),
(688,634,cs),
(624,634,o),
(571,581,o),
(571,518,cs),
(571,454,o),
(624,401,o),
(688,401,cs)
);
}
);
width = 1467;
}
);
metricRight = "=|";
unicode = 6665;
},
{
glyphname = "na-bugi";
kernRight = "nga-bugi";
lastChange = "2021-11-21 03:05:06 +0000";
layers = (
{
anchors = (
{
name = bottom;
pos = (1232,0);
},
{
name = top;
pos = (934,612);
},
{
name = topleft;
pos = (390,612);
}
);
layerId = m01;
shapes = (
{
closed = 1;
nodes = (
(549,311,o),
(709,444,o),
(817,444,cs),
(922,444,o),
(1032,328,o),
(1286,31,c),
(1352,84,l),
(1071,427,o),
(928,612,o),
(768,612,cs),
(617,612,o),
(424,449,o),
(115,169,c),
(235,31,l)
);
},
{
closed = 1;
nodes = (
(861,11,o),
(914,64,o),
(914,128,cs),
(914,191,o),
(861,244,o),
(798,244,cs),
(734,244,o),
(681,191,o),
(681,128,cs),
(681,64,o),
(734,11,o),
(798,11,cs)
);
}
);
width = 1467;
}
);
metricLeft = "ta-bugi";
metricRight = "ta-bugi";
unicode = 6666;
},
{
glyphname = "nra-bugi";
lastChange = "2021-10-24 04:20:57 +0000";
layers = (
{
anchors = (
{
name = bottom;
pos = (1707,0);
},
{
name = top;
pos = (904,612);
},
{
name = topleft;
pos = (340,612);
}
);
layerId = m01;
shapes = (
{
closed = 1;
nodes = (
(549,311,o),
(709,444,o),
(817,444,cs),
(922,444,o),
(1032,328,o),
(1286,31,c),
(1352,84,l),
(1071,427,o),
(928,612,o),
(768,612,cs),
(617,612,o),
(424,449,o),
(115,169,c),
(235,31,l)
);
},
{
closed = 1;
nodes = (
(1286,31,l),
(1544,228,o),
(1707,351,o),
(1707,480,cs),
(1707,617,o),
(1547,788,o),
(1247,1074,c),
(1184,1018,l),
(1450,768,o),
(1549,637,o),
(1549,548,cs),
(1549,460,o),
(1424,366,o),
(1171,173,c)
);
},
{
closed = 1;
nodes = (
(589,-149,o),
(749,-16,o),
(857,-16,cs),
(962,-16,o),
(1072,-132,o),
(1326,-429,c),
(1392,-376,l),
(1111,-33,o),
(968,152,o),
(808,152,cs),
(657,152,o),
(464,-11,o),
(155,-291,c),
(275,-429,l)
);
}
);
width = 1822;
}
);
metricRight = "=|";
unicode = 6667;
},
{
color = 0;
glyphname = "ca-bugi";
lastChange = "2021-11-21 03:05:06 +0000";
layers = (
{
anchors = (
{
name = bottom;
pos = (1503,0);
},
{
name = top;
pos = (864,612);
},
{
name = topleft;
pos = (340,612);
}
);
background = {
shapes = (
{
closed = 1;
nodes = (
(865,35,o),
(963,-59,o),
(1064,-59,cs),
(1147,-59,o),
(1260,21,o),
(1436,159,c),
(1434,163,l),
(1524,241,o),
(1577,309,o),
(1577,390,cs),
(1577,527,o),
(1417,698,o),
(1117,984,c),
(1054,928,l),
(1320,678,o),
(1419,547,o),
(1419,458,cs),
(1419,412,o),
(1393,371,o),
(1341,323,c),
(1340,324,l),
(1296,287,o),
(1257,256,o),
(1223,228,c),
(1106,139,o),
(1053,109,o),
(1015,109,cs),
(957,109,o),
(894,158,o),
(795,272,c),
(723,215,l)
);
}
);
};
layerId = m01;
shapes = (
{
closed = 1;
nodes = (
(1118,366,l),
(977,527,o),
(876,612,o),
(768,612,cs),
(617,612,o),
(424,449,o),
(115,169,c),
(235,31,l),
(549,311,o),
(709,444,o),
(817,444,cs),
(880,444,o),
(945,402,o),
(1041,305,c)
);
},
{
closed = 1;
nodes = (
(868,29,o),
(973,-59,o),
(1054,-59,cs),
(1194,-59,o),
(1577,206,o),
(1577,398,cs),
(1577,524,o),
(1417,698,o),
(1117,984,c),
(1054,928,l),
(1302,696,o),
(1419,547,o),
(1419,467,cs),
(1419,335,o),
(1097,109,o),
(1006,109,cs),
(956,109,o),
(877,176,o),
(795,272,c),
(723,215,l)
);
}
);
width = 1692;
}
);
metricRight = "=|";
unicode = 6668;
},
{
glyphname = "ja-bugi";
lastChange = "2021-11-21 03:05:06 +0000";
layers = (
{
anchors = (
{
name = bottom;
pos = (1407,0);
},
{
name = top;
pos = (834,612);
},
{
name = topleft;
pos = (340,612);
}
);
layerId = m01;
shapes = (
{
closed = 1;
nodes = (
(672,459,o),
(902,662,o),
(1045,662,cs),
(1134,662,o),
(1237,546,o),
(1464,249,c),
(1525,310,l),
(1271,648,o),
(1136,830,o),
(996,830,cs),
(800,830,o),
(531,587,o),
(115,169,c),
(235,31,l)
);
},
{
closed = 1;
nodes = (
(1200,252,o),
(1090,162,o),
(1022,162,cs),
(978,162,o),
(927,211,o),
(815,338,c),
(749,285,l),
(904,96,o),
(986,-6,o),
(1071,-6,cs),
(1172,-6,o),
(1310,110,o),
(1525,310,c),
(1407,443,l)
);
}
);
width = 1640;
}
);
metricRight = "=|";
unicode = 6669;
},
{
glyphname = "nya-bugi";
kernRight = "nga-bugi";
lastChange = "2021-11-21 03:05:06 +0000";
layers = (
{
anchors = (
{
name = bottom;
pos = (2067,0);
},
{
name = top;
pos = (1368,612);
},
{
name = topleft;
pos = (340,612);
}
);
layerId = m01;
shapes = (
{
closed = 1;
nodes = (
(522,311,o),
(673,444,o),
(767,444,cs),
(856,444,o),
(959,328,o),
(1186,31,c),
(1247,92,l),
(993,430,o),
(858,612,o),
(718,612,cs),
(584,612,o),
(400,449,o),
(115,169,c),
(235,31,l)
);
},
{
closed = 1;
nodes = (
(1473,311,o),
(1624,444,o),
(1718,444,cs),
(1807,444,o),
(1910,328,o),
(2137,31,c),
(2203,84,l),
(1946,427,o),
(1810,612,o),
(1669,612,cs),
(1540,612,o),
(1364,459,o),
(1090,196,c),
(1186,31,l)
);
},
{
closed = 1;
nodes = (
(1400,-78,o),
(1249,-211,o),
(1155,-211,cs),
(1066,-211,o),
(963,-95,o),
(736,202,c),
(670,149,l),
(927,-194,o),
(1063,-379,o),
(1204,-379,cs),
(1339,-379,o),
(1523,-218,o),
(1810,59,c),
(1687,202,l)
);
}
);
width = 2318;
}
);
metricRight = "=|";
unicode = 6670;
},
{
glyphname = "nyca-bugi";
kernRight = "nga-bugi";
lastChange = "2021-11-21 03:05:06 +0000";
layers = (
{
anchors = (
{
name = bottom;
pos = (1876,0);
},
{
name = top;
pos = (1181,612);
},
{
name = topleft;
pos = (340,612);
}
);
layerId = m01;
shapes = (
{
closed = 1;
nodes = (
(549,311,o),
(710,444,o),
(832,444,cs),
(957,444,o),
(1080,290,o),
(1367,-113,c),
(1433,-60,l),
(1123,380,o),
(968,612,o),
(782,612,cs),
(619,612,o),
(424,449,o),
(115,169,c),
(235,31,l)
);
},
{
closed = 1;
nodes = (
(1132,263,o),
(1316,444,o),
(1454,444,cs),
(1569,444,o),
(1682,328,o),
(1936,31,c),
(2002,84,l),
(1721,427,o),
(1576,612,o),
(1403,612,cs),
(1221,612,o),
(1000,395,o),
(634,1,c),
(764,-127,l)
);
}
);
width = 2117;
}
);
metricRight = "=|";
unicode = 6671;
},
{
glyphname = "ya-bugi";
kernRight = "nga-bugi";
lastChange = "2021-11-21 03:05:06 +0000";
layers = (
{
layerId = m01;
shapes = (
{
pos = (60,0);
ref = "va-bugi";
},
{
closed = 1;
nodes = (
(819,11,o),
(872,64,o),
(872,128,cs),
(872,191,o),
(819,244,o),
(756,244,cs),
(692,244,o),
(639,191,o),
(639,128,cs),
(639,64,o),
(692,11,o),
(756,11,cs)
);
},
{
closed = 1;
nodes = (
(1786,11,o),
(1839,64,o),
(1839,128,cs),
(1839,191,o),
(1786,244,o),
(1723,244,cs),
(1659,244,o),
(1606,191,o),
(1606,128,cs),
(1606,64,o),
(1659,11,o),
(1723,11,cs)
);
}
);
width = 2258;
}
);
unicode = 6672;
},
{
glyphname = "ra-bugi";
lastChange = "2021-10-24 04:29:24 +0000";
layers = (
{
anchors = (
{
name = bottom;
pos = (1262,0);
},
{
name = top;
pos = (873,789);
},
{
name = topleft;
pos = (340,612);
}
);
layerId = m01;
shapes = (
{
closed = 1;
nodes = (
(745,220,o),
(873,324,o),
(953,324,cs),
(1025,324,o),
(1108,233,o),
(1292,1,c),
(1353,62,l),
(1137,342,o),
(1024,492,o),
(902,492,cs),
(788,492,o),
(628,362,o),
(381,139,c),
(501,1,l)
);
},
{
closed = 1;
nodes = (
(595,564,o),
(773,714,o),
(883,714,cs),
(978,714,o),
(1088,598,o),
(1342,301,c),
(1403,362,l),
(1124,700,o),
(982,882,o),
(834,882,cs),
(680,882,o),
(467,699,o),
(115,386,c),
(235,248,l)
);
}
);
width = 1518;
}
);
metricRight = "=|";
unicode = 6673;
},
{
glyphname = "la-bugi";
lastChange = "2021-11-21 03:05:06 +0000";
layers = (
{
anchors = (
{
name = bottom;
pos = (2095,0);
},
{
name = top;
pos = (1221,612);
},
{
name = topleft;
pos = (340,612);
}
);
layerId = m01;
shapes = (
{
closed = 1;
nodes = (
(911,444,o),
(1170,31,o),
(1348,31,cs),
(1447,31,o),
(1593,157,o),
(1822,374,c),
(1700,511,l),
(1479,300,o),
(1367,199,o),
(1290,199,cs),
(1134,199,o),
(932,612,o),
(718,612,cs),
(584,612,o),
(400,449,o),
(115,169,c),
(235,31,l),
(522,311,o),
(675,444,o),
(761,444,cs)
);
},
{
closed = 1;
nodes = (
(1530,605,o),
(1660,704,o),
(1738,704,cs),
(1845,704,o),
(1966,515,o),
(2257,31,c),
(2323,84,l),
(2008,596,o),
(1854,872,o),
(1687,872,cs),
(1573,872,o),
(1412,749,o),
(1173,528,c),
(1296,391,l)
);
}
);
width = 2438;
}
);
metricRight = "=|";
unicode = 6674;
},
{
glyphname = "va-bugi";
kernRight = "nga-bugi";
lastChange = "2021-11-21 03:05:06 +0000";
layers = (
{
anchors = (
{
name = bottom;
pos = (2052,0);
},
{
name = top;
pos = (1284,612);
},
{
name = topleft;
pos = (340,612);
}
);
background = {
shapes = (
{
closed = 1;
nodes = (
(449,311,o),
(610,444,o),
(732,444,cs),
(843,444,o),
(952,328,o),
(1206,31,c),
(1272,84,l),
(991,427,o),
(851,612,o),
(682,612,cs),
(519,612,o),
(324,449,o),
(15,169,c),
(135,31,l)
);
},
{
closed = 1;
nodes = (
(1079,311,o),
(1236,444,o),
(1354,444,cs),
(1469,444,o),
(1582,328,o),
(1836,31,c),
(1902,84,l),
(1621,427,o),
(1476,612,o),
(1303,612,cs),
(1145,612,o),
(954,449,o),
(645,169,c),
(765,31,l)
);
}
);
};
layerId = m01;
shapes = (
{
closed = 1;
nodes = (
(522,311,o),
(673,444,o),
(767,444,cs),
(856,444,o),
(959,328,o),
(1186,31,c),
(1247,92,l),
(993,430,o),
(858,612,o),
(718,612,cs),
(584,612,o),
(400,449,o),
(115,169,c),
(235,31,l)
);
},
{
closed = 1;
nodes = (
(1473,311,o),
(1624,444,o),
(1718,444,cs),
(1807,444,o),
(1910,328,o),
(2137,31,c),
(2203,84,l),
(1946,427,o),
(1810,612,o),
(1669,612,cs),
(1540,612,o),
(1364,459,o),
(1090,196,c),
(1186,31,l)
);
}
);
width = 2318;
}
);
metricRight = "=|";
unicode = 6675;
},
{
glyphname = "sa-bugi";
kernRight = "nga-bugi";
lastChange = "2021-11-21 03:05:06 +0000";
layers = (
{
anchors = (
{
name = bottom;
pos = (1292,0);
},
{
name = top;
pos = (834,612);
},
{
name = topleft;
pos = (340,612);
}
);
layerId = m01;
shapes = (
{
closed = 1;
nodes = (
(547,327,o),
(682,444,o),
(771,444,cs),
(855,444,o),
(959,345,o),
(1186,91,c),
(1247,152,l),
(993,451,o),
(857,612,o),
(721,612,cs),
(584,612,o),
(400,449,o),
(115,169,c),
(290,79,l)
);
},
{
closed = 1;
nodes = (
(115,164,l),
(400,-116,o),
(583,-279,o),
(722,-279,cs),
(857,-279,o),
(993,-129,o),
(1247,151,c),
(1186,212,l),
(959,-20,o),
(855,-111,o),
(771,-111,cs),
(679,-111,o),
(540,7,o),
(273,254,c)
);
}
);
width = 1362;
}
);
metricRight = "=|";
unicode = 6676;
},
{
glyphname = "a-bugi";
kernRight = "nga-bugi";
lastChange = "2021-11-21 03:05:06 +0000";
layers = (
{
layerId = m01;
shapes = (
{
ref = "va-bugi";
},
{
closed = 1;
nodes = (
(1726,11,o),
(1779,64,o),
(1779,128,cs),
(1779,191,o),
(1726,244,o),
(1663,244,cs),
(1599,244,o),
(1546,191,o),
(1546,128,cs),
(1546,64,o),
(1599,11,o),
(1663,11,cs)
);
}
);
width = 2318;
}
);
metricRight = "=|";
unicode = 6677;
},
{
glyphname = "ha-bugi";
kernRight = "nga-bugi";
lastChange = "2021-11-21 03:05:06 +0000";
layers = (
{
anchors = (
{
name = bottom;
pos = (2232,0);
},
{
name = top;
pos = (1424,612);
},
{
name = topleft;
pos = (340,612);
}
);
layerId = m01;
shapes = (
{
closed = 1;
nodes = (
(522,411,o),
(673,544,o),
(767,544,cs),
(856,544,o),
(959,428,o),
(1186,131,c),
(1247,192,l),
(993,530,o),
(858,712,o),
(718,712,cs),
(584,712,o),
(400,549,o),
(115,269,c),
(235,131,l)
);
},
{
closed = 1;
nodes = (
(1473,411,o),
(1624,544,o),
(1718,544,cs),
(1807,544,o),
(1910,428,o),
(2137,131,c),
(2203,184,l),
(1946,527,o),
(1810,712,o),
(1669,712,cs),
(1540,712,o),
(1364,559,o),
(1090,296,c),
(1186,131,l)
);
},
{
closed = 1;
nodes = (
(1796,42,o),
(1645,-91,o),
(1551,-91,cs),
(1462,-91,o),
(1359,25,o),
(1132,322,c),
(1071,261,l),
(1325,-77,o),
(1460,-259,o),
(1600,-259,cs),
(1734,-259,o),
(1918,-96,o),
(2203,184,c),
(2083,322,l)
);
},
{
closed = 1;
nodes = (
(845,42,o),
(694,-91,o),
(600,-91,cs),
(511,-91,o),
(408,25,o),
(181,322,c),
(115,269,l),
(372,-74,o),
(508,-259,o),
(649,-259,cs),
(778,-259,o),
(954,-106,o),
(1228,157,c),
(1132,322,l)
);
}
);
width = 2318;
}
);
metricRight = "=|";
unicode = 6678;
},
{
glyphname = "iya-bugi";
kernRight = "nga-bugi";
lastChange = "2021-11-21 03:05:06 +0000";
layers = (
{
layerId = m01;
shapes = (
{
ref = "va-bugi";
},
{
closed = 1;
nodes = (
(1726,11,o),
(1779,64,o),
(1779,128,cs),
(1779,191,o),
(1726,244,o),
(1663,244,cs),
(1599,244,o),
(1546,191,o),
(1546,128,cs),
(1546,64,o),
(1599,11,o),
(1663,11,cs)
);
},
{
closed = 1;
nodes = (
(756,11,o),
(809,64,o),
(809,128,cs),
(809,191,o),
(756,244,o),
(693,244,cs),
(629,244,o),
(576,191,o),
(576,128,cs),
(576,64,o),
(629,11,o),
(693,11,cs)
);
}
);
width = 2318;
}
);
metricRight = "=|";
},
{
color = 4;
glyphname = "ka-java";
lastChange = "2021-11-21 03:05:06 +0000";
layers = (
{
anchors = (
{
name = bottom;
pos = (2260,0);
},
{
name = cerek;
pos = (1146,0);
},
{
name = top;
pos = (1220,940);
},
{
name = topright;
pos = (2260,940);
}
);
background = {
shapes = (
{
closed = 0;
nodes = (
(1050,730,ls),
(1050,826,o),
(1082,860,o),
(1172,860,cs),
(1300,860,ls),
(1400,860,o),
(1430,811,o),
(1430,730,cs)
);
},
{
closed = 0;
nodes = (
(1610,730,ls),
(1610,840,o),
(1578,940,o),
(1390,940,cs),
(1172,940,ls),
(1038,940,o),
(970,873,o),
(970,730,cs)
);
}
);
};
layerId = m01;
shapes = (
{
closed = 1;
nodes = (
(823,400,o),
(1080,287,o),
(1080,125,cs),
(1080,95,o),
(1071,80,o),
(1042,80,cs),
(1002,80,o),
(980,107,o),
(980,160,cs),
(980,670,ls),
(980,814,o),
(1051,860,o),
(1160,860,cs),
(1320,860,ls),
(1438,860,o),
(1500,811,o),
(1500,670,cs),
(1500,140,ls),
(1500,44,o),
(1547,0,o),
(1630,0,cs),
(1730,0,ls),
(1796,0,o),
(1860,29,o),
(1860,140,cs),
(1860,640,ls),
(1860,749,o),
(1852,815,o),
(1834,860,c),
(1940,860,ls),
(2036,860,o),
(2080,816,o),
(2080,685,cs),
(2080,0,l),
(2260,0,l),
(2260,685,ls),
(2260,869,o),
(2187,940,o),
(2010,940,cs),
(1681,940,l),
(1753,877,o),
(1780,809,o),
(1780,640,cs),
(1780,140,ls),
(1780,103,o),
(1769,80,o),
(1727,80,cs),
(1690,80,o),
(1680,98,o),
(1680,140,cs),
(1680,670,ls),
(1680,828,o),
(1628,940,o),
(1420,940,cs),
(1160,940,ls),
(1012,940,o),
(900,872,o),
(900,670,cs),
(900,160,ls),
(900,28,o),
(955,-20,o),
(1059,-20,cs),
(1156,-20,o),
(1220,22,o),
(1220,119,cs),
(1220,337,o),
(894,480,o),
(620,480,c),
(620,740,ls),
(620,862,o),
(576,940,o),
(427,940,cs),
(241,940,o),
(180,819,o),
(180,678,cs),
(180,310,ls),
(180,139,o),
(203,53,o),
(329,-18,c),
(369,49,l),
(274,102,o),
(260,164,o),
(260,310,cs),
(260,678,ls),
(260,804,o),
(302,860,o),
(373,860,cs),
(420,860,o),
(440,836,o),
(440,740,cs),
(440,0,l),
(620,0,l),
(620,400,l)
);
}
);
width = 2440;
}
);
note = uniA98F;
unicode = 43407;
},
{
color = 4;
glyphname = "kaMurda-java";
lastChange = "2021-11-21 03:05:06 +0000";
layers = (
{
anchors = (
{
name = bottom;
pos = (1680,0);
},
{
name = top;
pos = (1100,940);
},
{
name = topright;
pos = (1682,940);
}
);
background = {
shapes = (
{
closed = 1;
nodes = (
(1156,-20,o),
(1220,22,o),
(1220,119,cs),
(1220,337,o),
(894,480,o),
(620,480,c),
(620,760,ls),
(620,871,o),
(583,940,o),
(470,940,cs),
(400,940,ls),
(241,940,o),
(180,811,o),
(180,660,cs),
(180,310,ls),
(180,139,o),
(203,53,o),
(329,-18,c),
(369,49,l),
(274,102,o),
(260,164,o),
(260,310,cs),
(260,660,ls),
(260,799,o),
(301,860,o),
(376,860,cs),
(420,860,o),
(440,838,o),
(440,760,cs),
(440,0,l),
(620,0,l),
(620,400,l),
(823,400,o),
(1080,287,o),
(1080,125,cs),
(1080,95,o),
(1071,80,o),
(1042,80,cs),
(1002,80,o),
(980,107,o),
(980,160,cs),
(980,660,ls),
(980,807,o),
(1051,860,o),
(1160,860,cs),
(1320,860,ls),
(1418,860,o),
(1500,803,o),
(1500,620,cs),
(1500,160,ls),
(1500,47,o),
(1557,-20,o),
(1660,-20,cs),
(1952,-20,o),
(1790,522,o),
(2176,816,c),
(2131,868,l),
(1757,577,o),
(1830,80,o),
(1707,80,cs),
(1685,80,o),
(1680,96,o),
(1680,140,cs),
(1680,620,ls),
(1680,816,o),
(1608,940,o),
(1420,940,cs),
(1160,940,ls),
(1012,940,o),
(900,864,o),
(900,660,cs),
(900,160,ls),
(900,28,o),
(955,-20,o),
(1059,-20,cs)
);
}
);
};
layerId = m01;
shapes = (
{
closed = 1;
nodes = (
(1156,-20,o),
(1220,22,o),
(1220,119,cs),
(1220,337,o),
(894,480,o),
(620,480,c),
(620,740,ls),
(620,863,o),
(583,940,o),
(470,940,cs),
(400,940,ls),
(241,940,o),
(180,819,o),
(180,678,cs),
(180,310,ls),
(180,139,o),
(203,53,o),
(329,-18,c),
(369,49,l),
(274,102,o),
(260,164,o),
(260,310,cs),
(260,678,ls),
(260,804,o),
(302,860,o),
(373,860,cs),
(420,860,o),
(440,836,o),
(440,740,cs),
(440,0,l),
(620,0,l),
(620,400,l),
(823,400,o),
(1080,287,o),
(1080,125,cs),
(1080,95,o),
(1071,80,o),
(1042,80,cs),
(1002,80,o),
(980,107,o),
(980,160,cs),
(980,670,ls),
(980,814,o),
(1051,860,o),
(1160,860,cs),
(1320,860,ls),
(1418,860,o),
(1500,811,o),
(1500,670,cs),
(1500,140,ls),
(1500,40,o),
(1557,-20,o),
(1660,-20,cs),
(1952,-20,o),
(1790,522,o),
(2176,816,c),
(2131,868,l),
(1757,577,o),
(1830,80,o),
(1707,80,cs),
(1685,80,o),
(1680,96,o),
(1680,140,cs),
(1680,670,ls),
(1680,828,o),
(1608,940,o),
(1420,940,cs),
(1160,940,ls),
(1012,940,o),
(900,872,o),
(900,670,cs),
(900,160,ls),
(900,28,o),
(955,-20,o),
(1059,-20,cs)
);
}
);
width = 2200;
}
);
note = uniA991;
unicode = 43409;
},
{
color = 4;
glyphname = "ga-java";
lastChange = "2021-11-21 03:05:06 +0000";
layers = (
{
anchors = (
{
name = bottom;
pos = (2260,0);
},
{
name = top;
pos = (1220,940);
},
{
name = topright;
pos = (2260,940);
}
);
background = {
shapes = (
{
closed = 1;
nodes = (
(375,125,o),
(307,164,o),
(262,237,o),
(240,353,o),
(240,440,qs),
(240,533,o),
(271,662,o),
(325,743,o),
(398,780,o),
(440,780,qs),
(521,780,o),
(600,689,o),
(600,580,qs),
(600,140,ls),
(600,68,o),
(668,0,o),
(730,0,qs),
(830,0,ls),
(854,0,o),
(901,12,o),
(937,43,o),
(960,98,o),
(960,140,qs),
(960,720,ls),
(960,796,o),
(1013,860,o),
(1080,860,qs),
(1200,860,ls),
(1265,860,o),
(1340,778,o),
(1340,700,qs),
(1340,140,ls),
(1340,68,o),
(1408,0,o),
(1470,0,qs),
(1570,0,ls),
(1594,0,o),
(1641,12,o),
(1677,43,o),
(1700,98,o),
(1700,140,qs),
(1700,720,ls),
(1700,796,o),
(1753,860,o),
(1820,860,qs),
(1940,860,ls),
(2005,860,o),
(2080,778,o),
(2080,700,qs),
(2080,0,l),
(2260,0,l),
(2260,700,ls),
(2260,745,o),
(2238,831,o),
(2187,898,o),
(2102,940,o),
(2040,940,qs),
(1820,940,ls),
(1713,940,o),
(1620,832,o),
(1620,720,qs),
(1620,140,ls),
(1620,113,o),
(1599,80,o),
(1570,80,qs),
(1540,80,o),
(1520,108,o),
(1520,140,qs),
(1520,700,ls),
(1520,745,o),
(1498,831,o),
(1447,898,o),
(1362,940,o),
(1300,940,qs),
(1080,940,ls),
(973,940,o),
(880,832,o),
(880,720,qs),
(880,140,ls),
(880,113,o),
(859,80,o),
(830,80,qs),
(800,80,o),
(780,108,o),
(780,140,qs),
(780,580,ls),
(780,655,o),
(750,767,o),
(682,842,o),
(571,880,o),
(490,880,qs),
(403,880,o),
(279,817,o),
(198,702,o),
(160,539,o),
(160,440,qs),
(160,348,o),
(186,208,o),
(244,109,o),
(338,49,o),
(406,37,q),
(420,115,l)
);
}
);
};
layerId = m01;
shapes = (
{
closed = 1;
nodes = (
(820,0,ls),
(891,0,o),
(960,29,o),
(960,140,cs),
(960,730,ls),
(960,826,o),
(992,860,o),
(1082,860,cs),
(1210,860,ls),
(1310,860,o),
(1340,811,o),
(1340,730,cs),
(1340,140,ls),
(1340,44,o),
(1394,0,o),
(1490,0,cs),
(1570,0,ls),
(1636,0,o),
(1700,29,o),
(1700,140,cs),
(1700,730,ls),
(1700,826,o),
(1732,860,o),
(1822,860,cs),
(1950,860,ls),
(2050,860,o),
(2080,811,o),
(2080,730,cs),
(2080,0,l),
(2260,0,l),
(2260,730,ls),
(2260,840,o),
(2228,940,o),
(2040,940,cs),
(1822,940,ls),
(1688,940,o),
(1620,873,o),
(1620,730,cs),
(1620,140,ls),
(1620,103,o),
(1609,80,o),
(1567,80,cs),
(1530,80,o),
(1520,98,o),
(1520,140,cs),
(1520,730,ls),
(1520,840,o),
(1488,940,o),
(1300,940,cs),
(1082,940,ls),
(948,940,o),
(880,873,o),
(880,730,cs),
(880,140,ls),
(880,103,o),
(869,80,o),
(827,80,cs),
(790,80,o),
(780,98,o),
(780,140,cs),
(780,580,ls),
(780,771,o),
(706,880,o),
(505,880,cs),
(246,880,o),
(160,703,o),
(160,432,cs),
(160,248,o),
(199,72,o),
(406,37,c),
(425,106,l),
(261,140,o),
(240,289,o),
(240,434,cs),
(240,695,o),
(310,780,o),
(447,780,cs),
(558,780,o),
(600,724,o),
(600,590,cs),
(600,140,ls),
(600,44,o),
(654,0,o),
(750,0,cs)
);
}
);
width = 2440;
}
);
note = uniA992;
unicode = 43410;
},
{
color = 4;
glyphname = "gaMurda-java";
lastChange = "2021-11-21 03:05:06 +0000";
layers = (
{
anchors = (
{
name = bottom;
pos = (2260,0);
},
{
name = top;
pos = (1217,940);
},
{
name = topright;
pos = (2260,940);
}
);
background = {
shapes = (
{
closed = 1;
nodes = (
(323,117,o),
(260,243,o),
(260,336,qs),
(260,520,ls),
(260,582,o),
(282,685,o),
(321,759,o),
(371,800,o),
(400,800,qs),
(427,800,o),
(460,747,o),
(460,680,qs),
(460,140,ls),
(460,71,o),
(531,0,o),
(600,0,qs),
(980,0,l),
(980,80,l),
(940,80,o),
(874,98,o),
(826,140,o),
(800,209,o),
(800,260,qs),
(800,620,ls),
(800,743,o),
(896,860,o),
(980,860,qs),
(1060,860,ls),
(1142,860,o),
(1220,786,o),
(1220,720,qs),
(1220,200,ls),
(1220,145,o),
(1243,62,o),
(1296,7,o),
(1380,-20,o),
(1440,-20,qs),
(1488,-20,o),
(1545,-1,o),
(1584,21,o),
(1617,40,o),
(1640,40,qs),
(1662,40,o),
(1695,21,o),
(1730,-1,o),
(1775,-20,o),
(1810,-20,qs),
(1894,-20,o),
(1960,104,o),
(1960,220,qs),
(1960,500,ls),
(1960,632,o),
(1923,808,o),
(1876,860,q),
(1920,860,ls),
(1957,860,o),
(2016,843,o),
(2058,805,o),
(2080,744,o),
(2080,700,qs),
(2080,0,l),
(2260,0,l),
(2260,700,ls),
(2260,762,o),
(2226,853,o),
(2164,912,o),
(2075,940,o),
(2020,940,qs),
(1640,940,l),
(1640,860,l),
(1712,860,o),
(1805,821,o),
(1859,734,o),
(1880,597,o),
(1880,500,qs),
(1880,220,ls),
(1880,158,o),
(1850,100,o),
(1820,100,qs),
(1800,100,o),
(1771,119,o),
(1739,141,o),
(1696,160,o),
(1660,160,qs),
(1629,160,o),
(1587,135,o),
(1549,105,o),
(1508,80,o),
(1480,80,qs),
(1439,80,o),
(1400,132,o),
(1400,200,qs),
(1400,720,ls),
(1400,781,o),
(1367,866,o),
(1306,917,o),
(1217,940,o),
(1160,940,qs),
(980,940,ls),
(915,940,o),
(818,893,o),
(753,808,o),
(720,690,o),
(720,620,qs),
(720,260,ls),
(720,199,o),
(746,111,o),
(770,80,q),
(700,80,ls),
(665,80,o),
(640,111,o),
(640,140,qs),
(640,680,ls),
(640,798,o),
(549,900,o),
(450,900,qs),
(390,900,o),
(290,846,o),
(219,747,o),
(180,607,o),
(180,520,qs),
(180,336,ls),
(180,271,o),
(203,170,o),
(248,92,o),
(317,30,o),
(363,4,q),
(402,72,l)
);
}
);
};
layerId = m01;
shapes = (
{
closed = 1;
nodes = (
(297,118,o),
(260,198,o),
(260,322,cs),
(260,630,ls),
(260,743,o),
(307,800,o),
(376,800,cs),
(445,800,o),
(460,744,o),
(460,680,cs),
(460,140,ls),
(460,48,o),
(508,0,o),
(600,0,cs),
(980,0,l),
(980,80,l),
(872,80,o),
(800,125,o),
(800,260,cs),
(800,710,ls),
(800,809,o),
(847,860,o),
(940,860,cs),
(1090,860,ls),
(1179,860,o),
(1220,813,o),
(1220,710,cs),
(1220,200,ls),
(1220,57,o),
(1283,-20,o),
(1425,-20,cs),
(1551,-20,o),
(1579,40,o),
(1639,40,cs),
(1699,40,o),
(1716,-20,o),
(1810,-20,cs),
(1922,-20,o),
(1960,65,o),
(1960,220,cs),
(1960,580,ls),
(1960,717,o),
(1950,813,o),
(1864,860,c),
(1920,860,ls),
(2020,860,o),
(2080,817,o),
(2080,700,cs),
(2080,0,l),
(2260,0,l),
(2260,700,ls),
(2260,860,o),
(2174,940,o),
(2020,940,cs),
(1640,940,l),
(1640,860,l),
(1831,860,o),
(1880,785,o),
(1880,580,cs),
(1880,220,ls),
(1880,137,o),
(1860,100,o),
(1820,100,cs),
(1770,100,o),
(1746,160,o),
(1666,160,cs),
(1573,160,o),
(1554,80,o),
(1475,80,cs),
(1425,80,o),
(1400,112,o),
(1400,200,cs),
(1400,710,ls),
(1400,883,o),
(1311,940,o),
(1160,940,cs),
(950,940,ls),
(788,940,o),
(720,842,o),
(720,710,cs),
(720,260,ls),
(720,180,o),
(734,120,o),
(790,80,c),
(700,80,ls),
(653,80,o),
(640,101,o),
(640,140,cs),
(640,680,ls),
(640,835,o),
(568,900,o),
(434,900,cs),
(244,900,o),
(180,770,o),
(180,630,cs),
(180,322,ls),
(180,151,o),
(239,60,o),
(363,-10,c),
(402,58,l)
);
}
);
width = 2440;
}
);
note = uniA993;
unicode = 43411;
},
{
color = 4;
glyphname = "ca-java";
lastChange = "2021-11-21 03:05:06 +0000";
layers = (
{
anchors = (
{
name = bottom;
pos = (1740,0);
},
{
name = top;
pos = (970,940);
},
{
name = topright;
pos = (1740,940);
}
);
background = {
shapes = (
{
closed = 1;
nodes = (
(333,70,o),
(290,118,o),
(267,182,o),
(260,265,o),
(260,320,qs),
(260,660,ls),
(260,715,o),
(283,791,o),
(322,839,o),
(373,860,o),
(400,860,qs),
(440,860,ls),
(494,860,o),
(560,792,o),
(560,720,qs),
(560,446,l),
(499,423,o),
(420,302,o),
(420,200,qs),
(420,90,o),
(514,-20,o),
(590,-20,qs),
(622,-20,o),
(677,1,o),
(717,52,o),
(740,137,o),
(740,200,qs),
(740,365,l),
(797,347,o),
(881,276,o),
(952,190,o),
(1016,100,o),
(1089,27,o),
(1179,-20,o),
(1240,-20,qs),
(1283,-20,o),
(1356,5,o),
(1410,72,o),
(1440,188,o),
(1440,280,qs),
(1440,500,ls),
(1440,635,o),
(1399,810,o),
(1346,860,q),
(1400,860,ls),
(1437,860,o),
(1496,843,o),
(1538,805,o),
(1560,744,o),
(1560,700,qs),
(1560,0,l),
(1740,0,l),
(1740,700,ls),
(1740,762,o),
(1706,853,o),
(1644,912,o),
(1555,940,o),
(1500,940,qs),
(1040,940,l),
(1040,860,l),
(1136,860,o),
(1260,829,o),
(1332,748,o),
(1360,609,o),
(1360,500,qs),
(1360,280,ls),
(1360,221,o),
(1345,144,o),
(1312,99,o),
(1258,80,o),
(1220,80,qs),
(1178,80,o),
(1113,126,o),
(1051,198,o),
(988,285,o),
(908,367,o),
(808,433,o),
(740,449,q),
(740,720,ls),
(740,831,o),
(639,940,o),
(540,940,qs),
(400,940,ls),
(355,940,o),
(275,905,o),
(215,834,o),
(180,729,o),
(180,660,qs),
(180,320,ls),
(180,254,o),
(191,153,o),
(223,73,o),
(281,10,o),
(329,-18,q),
(369,49,l)
);
},
{
closed = 1;
nodes = (
(560,154,o),
(551,120,o),
(540,120,qs),
(524,120,o),
(500,158,o),
(500,200,qs),
(500,260,o),
(531,338,o),
(560,358,q),
(560,200,ls)
);
}
);
};
layerId = m01;
shapes = (
{
closed = 1;
nodes = (
(666,-20,o),
(740,30,o),
(740,200,cs),
(740,740,ls),
(740,869,o),
(682,940,o),
(540,940,cs),
(420,940,ls),
(279,940,o),
(180,863,o),
(180,680,cs),
(180,320,ls),
(180,143,o),
(203,56,o),
(329,-18,c),
(369,49,l),
(274,104,o),
(260,170,o),
(260,320,cs),
(260,680,ls),
(260,814,o),
(319,860,o),
(400,860,cs),
(450,860,ls),
(523,860,o),
(560,822,o),
(560,740,cs),
(560,200,ls),
(560,133,o),
(550,120,o),
(535,120,cs),
(508,120,o),
(500,165,o),
(500,206,cs),
(500,288,o),
(533,373,o),
(662,373,cs),
(940,373,o),
(974,-20,o),
(1244,-20,cs),
(1407,-20,o),
(1440,118,o),
(1440,280,cs),
(1440,500,ls),
(1440,679,o),
(1427,803,o),
(1316,860,c),
(1400,860,ls),
(1500,860,o),
(1560,817,o),
(1560,700,cs),
(1560,0,l),
(1740,0,l),
(1740,700,ls),
(1740,860,o),
(1654,940,o),
(1500,940,cs),
(1040,940,l),
(1040,860,l),
(1295,860,o),
(1360,790,o),
(1360,500,cs),
(1360,280,ls),
(1360,166,o),
(1339,80,o),
(1238,80,cs),
(1033,80,o),
(960,449,o),
(661,449,cs),
(505,449,o),
(420,349,o),
(420,190,cs),
(420,57,o),
(480,-20,o),
(583,-20,cs)
);
}
);
width = 1920;
}
);
note = uniA995;
unicode = 43413;
},
{
color = 4;
glyphname = "caMurda-java";
lastChange = "2021-11-21 03:05:06 +0000";
layers = (
{
anchors = (
{
name = bottom;
pos = (2130,0);
},
{
name = top;
pos = (1247,940);
},
{
name = topright;
pos = (2250,940);
}
);
background = {
shapes = (
{
closed = 1;
nodes = (
(232,833,o),
(196,713,o),
(180,584,o),
(180,520,qs),
(180,260,ls),
(180,198,o),
(209,102,o),
(262,35,o),
(336,0,o),
(380,0,qs),
(480,0,ls),
(520,0,o),
(586,26,o),
(634,79,o),
(660,157,o),
(660,210,qs),
(660,780,ls),
(660,860,o),
(740,860,qs),
(789,860,o),
(840,788,o),
(840,700,qs),
(840,200,ls),
(840,101,o),
(930,0,o),
(1000,0,qs),
(1100,0,ls),
(1180,0,o),
(1270,104,o),
(1270,210,qs),
(1270,780,ls),
(1270,860,o),
(1350,860,qs),
(1399,860,o),
(1450,788,o),
(1450,700,qs),
(1450,200,ls),
(1450,101,o),
(1540,0,o),
(1610,0,qs),
(1710,0,ls),
(1790,0,o),
(1880,104,o),
(1880,210,qs),
(1880,780,ls),
(1880,860,o),
(1960,860,qs),
(2009,860,o),
(2060,788,o),
(2060,700,qs),
(2060,680,ls),
(2060,601,o),
(1994,520,o),
(1940,520,q),
(1940,440,l),
(2016,440,o),
(2100,366,o),
(2100,300,qs),
(2100,220,ls),
(2100,156,o),
(2026,90,o),
(1960,90,q),
(1960,0,l),
(2113,0,o),
(2280,112,o),
(2280,220,qs),
(2280,300,ls),
(2280,361,o),
(2211,458,o),
(2139,487,q),
(2190,519,o),
(2240,617,o),
(2240,680,qs),
(2240,700,ls),
(2240,760,o),
(2212,850,o),
(2163,910,o),
(2097,940,o),
(2060,940,qs),
(1960,940,ls),
(1883,940,o),
(1800,858,o),
(1800,780,qs),
(1800,210,ls),
(1800,146,o),
(1752,80,o),
(1710,80,qs),
(1674,80,o),
(1630,137,o),
(1630,200,qs),
(1630,700,ls),
(1630,760,o),
(1602,850,o),
(1553,910,o),
(1487,940,o),
(1450,940,qs),
(1350,940,ls),
(1273,940,o),
(1190,858,o),
(1190,780,qs),
(1190,210,ls),
(1190,146,o),
(1142,80,o),
(1100,80,qs),
(1064,80,o),
(1020,137,o),
(1020,200,qs),
(1020,700,ls),
(1020,760,o),
(992,850,o),
(943,910,o),
(877,940,o),
(840,940,qs),
(740,940,ls),
(663,940,o),
(580,858,o),
(580,780,qs),
(580,210,ls),
(580,80,o),
(480,80,qs),
(425,80,o),
(360,171,o),
(360,260,qs),
(360,520,ls),
(360,574,o),
(369,691,o),
(387,799,o),
(414,892,o),
(432,922,q),
(330,980,l),
(289,939,o)
);
}
);
};
layerId = m01;
shapes = (
{
closed = 1;
nodes = (
(220,859,o),
(180,710,o),
(180,570,cs),
(180,210,ls),
(180,76,o),
(252,0,o),
(400,0,cs),
(480,0,ls),
(587,0,o),
(660,63,o),
(660,190,cs),
(660,770,ls),
(660,836,o),
(692,860,o),
(752,860,cs),
(820,860,o),
(840,830,o),
(840,770,cs),
(840,175,ls),
(840,58,o),
(907,0,o),
(1000,0,cs),
(1100,0,ls),
(1207,0,o),
(1270,59,o),
(1270,175,cs),
(1270,770,ls),
(1270,836,o),
(1300,860,o),
(1360,860,cs),
(1428,860,o),
(1450,830,o),
(1450,770,cs),
(1450,175,ls),
(1450,58,o),
(1517,0,o),
(1610,0,cs),
(1710,0,ls),
(1817,0,o),
(1880,59,o),
(1880,175,cs),
(1880,760,ls),
(1880,830,o),
(1913,860,o),
(1977,860,cs),
(2042,860,o),
(2070,829,o),
(2070,743,cs),
(2070,663,ls),
(2070,577,o),
(2018,532,o),
(1940,532,c),
(1940,452,l),
(2061,452,o),
(2100,407,o),
(2100,332,cs),
(2100,200,ls),
(2100,128,o),
(2048,90,o),
(1960,90,c),
(1960,0,l),
(2164,0,o),
(2280,69,o),
(2280,200,cs),
(2280,322,ls),
(2280,413,o),
(2245,487,o),
(2102,512,c),
(2113,482,l),
(2227,518,o),
(2250,596,o),
(2250,690,cs),
(2250,730,ls),
(2250,871,o),
(2198,940,o),
(2052,940,cs),
(1982,940,ls),
(1861,940,o),
(1800,877,o),
(1800,760,cs),
(1800,175,ls),
(1800,114,o),
(1767,80,o),
(1713,80,cs),
(1663,80,o),
(1630,107,o),
(1630,175,cs),
(1630,770,ls),
(1630,880,o),
(1559,940,o),
(1450,940,cs),
(1350,940,ls),
(1247,940,o),
(1190,884,o),
(1190,770,cs),
(1190,175,ls),
(1190,114,o),
(1156,80,o),
(1100,80,cs),
(1052,80,o),
(1020,107,o),
(1020,175,cs),
(1020,770,ls),
(1020,880,o),
(949,940,o),
(840,940,cs),
(740,940,ls),
(637,940,o),
(580,876,o),
(580,770,cs),
(580,190,ls),
(580,114,o),
(556,80,o),
(478,80,cs),
(396,80,o),
(360,118,o),
(360,190,cs),
(360,570,ls),
(360,681,o),
(383,826,o),
(437,892,c),
(335,950,l)
);
}
);
width = 2440;
}
);
note = uniA996;
unicode = 43414;
},
